<?xml version="1.0" encoding="utf-8"?>
<!-- Generator: Adobe Illustrator 17.1.0, SVG Export Plug-In . SVG Version: 6.00 Build 0)  -->
<!DOCTYPE svg PUBLIC "-//W3C//DTD SVG 1.1//EN" "http://www.w3.org/Graphics/SVG/1.1/DTD/svg11.dtd">
<svg version="1.1" id="Layer_1" xmlns="http://www.w3.org/2000/svg" xmlns:xlink="http://www.w3.org/1999/xlink" x="0px" y="0px"
	 viewBox="194.6 218.8 222.8 44.5" enable-background="new 194.6 218.8 222.8 44.5" xml:space="preserve">
<g id="_x5C_">
</g>
<g>
	<g>
		<rect x="194.6" y="218.8" fill="#367A57" width="22.2" height="22.2"/>
		<rect x="216.8" y="218.8" fill="#429369" width="22.2" height="22.2"/>
		<rect x="239.1" y="218.8" fill="#469E71" width="22.2" height="22.2"/>
		<rect x="261.3" y="218.8" fill="#50B380" width="22.2" height="22.2"/>
		<rect x="283.6" y="218.8" fill="#77C49C" width="22.2" height="22.2"/>
		<rect x="305.9" y="218.8" fill="#9AD3B5" width="22.2" height="22.2"/>
		<rect x="328.1" y="218.8" fill="#BBE1CD" width="22.2" height="22.2"/>
		<rect x="350.4" y="218.8" fill="#DCF0E6" width="22.2" height="22.2"/>
		<rect x="372.6" y="218.8" fill="#F8FCFA" width="22.2" height="22.2"/>
	</g>
	<g>
		<rect x="216.8" y="241.1" fill="#777777" width="22.2" height="22.2"/>
		<rect x="194.6" y="241.1" fill="#555555" width="22.2" height="22.2"/>
		<rect x="239.1" y="241.1" fill="#888888" width="22.2" height="22.2"/>
		<rect x="261.3" y="241.1" fill="#999999" width="22.2" height="22.2"/>
		<rect x="283.6" y="241.1" fill="#AAAAAA" width="22.2" height="22.2"/>
		<rect x="305.9" y="241.1" fill="#BBBBBB" width="22.2" height="22.2"/>
		<rect x="328.1" y="241.1" fill="#CCCCCC" width="22.2" height="22.2"/>
		<rect x="350.4" y="241.1" fill="#DDDDDD" width="22.2" height="22.2"/>
		<rect x="372.6" y="241.1" fill="#EEEEEE" width="22.2" height="22.2"/>
		<rect x="394.9" y="241.1" fill="#F8F8F8" width="22.2" height="22.2"/>
	</g>
</g>
</svg>
