<?xml version="1.0" encoding="utf-8"?>
<!-- Generator: Adobe Illustrator 17.1.0, SVG Export Plug-In . SVG Version: 6.00 Build 0)  -->
<!DOCTYPE svg PUBLIC "-//W3C//DTD SVG 1.1//EN" "http://www.w3.org/Graphics/SVG/1.1/DTD/svg11.dtd">
<svg version="1.1" id="Layer_1" xmlns="http://www.w3.org/2000/svg" xmlns:xlink="http://www.w3.org/1999/xlink" x="0px" y="0px"
	 width="495.1px" height="413px" viewBox="0 0 495.1 413" enable-background="new 0 0 495.1 413" xml:space="preserve">
<g>
	<polygon fill="#74C29A" points="403.2,103.3 243.8,10.6 84.4,103.3 82.2,99.5 243.8,5.4 405.5,99.5 	"/>
</g>
<g>
	<rect x="16.6" y="74.2" fill="#FFFFFE" width="462.8" height="322.6"/>
</g>
<g>
	<g>
		<g>
			<g>
				<rect x="358.9" y="253.7" fill="#97D1B4" width="44.2" height="61.7"/>
			</g>
		</g>
	</g>
	<g>
		<g>
			<polygon fill="#74C29A" points="440.4,321.9 323.9,321.9 326.5,227.4 435.9,217.6 			"/>
		</g>
	</g>
	<g>
		<g>
			<polyline fill="#4FB280" points="381.3,321.9 323.9,321.9 326.5,227.4 381,222.5 			"/>
		</g>
	</g>
	<g>
		<g>
			<g>
				<path fill="#97D1B4" d="M286.5,338.2l93.7-47.9l95.2,47.9C475.4,338.2,426.4,341.3,286.5,338.2z"/>
			</g>
		</g>
	</g>
	<g>
		<g>
			<g>
				<path fill="#74C29A" d="M478.1,339.3v44H285.9v-44.7c-0.2-0.7,0.2-1.5,0.9-1.8l65.7-33.6c0.5-0.2,1-0.2,1.5,0
					c0.5,0.2,0.8,0.7,0.9,1.2l0,0.2c1.9,12.9,13.2,22.6,26.3,22.6c13.2,0,24.5-9.8,26.3-22.9l0-0.1c0-0.6,0.3-1.1,0.8-1.3
					c0.5-0.3,1.1-0.3,1.6,0l67.3,33.9c0.7,0.3,1,1.1,0.9,1.8"/>
			</g>
		</g>
	</g>
	<g>
		<g>
			<g>
				<path fill="#BAE0CC" d="M335.8,239.4c0,6.3-3.6,11.4-8.2,11.4c-4.5,0-8.2-5.1-8.2-11.4c0-6.3,3.7-11.4,8.2-11.4
					C332.2,228,335.8,233.1,335.8,239.4z"/>
			</g>
		</g>
	</g>
	<g>
		<g>
			<g>
				<rect x="359.3" y="253.7" fill="#97D1B4" width="44.2" height="61.7"/>
			</g>
		</g>
	</g>
	<g>
		<g>
			<g>
				<path fill="#DEEFE6" d="M442.8,239.4c0,6.3-3.6,11.4-8.2,11.4c-4.5,0-8.2-5.1-8.2-11.4c0-6.3,3.7-11.4,8.2-11.4
					C439.1,228,442.8,233.1,442.8,239.4z"/>
			</g>
		</g>
	</g>
	<g>
		<g>
			<g>
				<path fill="#DEEFE6" d="M435.2,235.1c0,34.7-24.1,62.9-53.8,62.9c-29.7,0-53.8-28.1-53.8-62.9s24.1-62.9,53.8-62.9
					C411.1,172.3,435.2,200.4,435.2,235.1z"/>
			</g>
		</g>
	</g>
	<g>
		<g>
			<g>
				<path fill="#BAE0CC" d="M381.4,298c-29.7,0-53.8-28.1-53.8-62.9s24.1-62.9,53.8-62.9"/>
			</g>
		</g>
	</g>
	<g>
		<g>
			<g>
				<path fill="#449D71" d="M359.4,238.8c0,2.5-2,4.6-4.6,4.6c-2.5,0-4.6-2-4.6-4.6c0-2.5,2-4.6,4.6-4.6
					C357.3,234.2,359.4,236.3,359.4,238.8z"/>
			</g>
		</g>
	</g>
	<g>
		<g>
			<g>
				<circle fill="#449D71" cx="408" cy="238.8" r="4.6"/>
			</g>
		</g>
	</g>
	<g>
		<g>
			<g>
				<polygon fill="#97D1B4" points="386.1,257 381.5,234.3 377.9,257 				"/>
			</g>
		</g>
		<g>
			<g>
				<path fill="#97D1B4" d="M377.9,257.9c-0.3,0-0.5-0.1-0.7-0.3c-0.2-0.2-0.2-0.5-0.2-0.7l3.7-22.7c0.1-0.4,0.4-0.8,0.9-0.8h0
					c0.4,0,0.8,0.3,0.9,0.7l4.6,22.7c0.1,0.3,0,0.6-0.2,0.8c-0.2,0.2-0.4,0.3-0.7,0.3L377.9,257.9L377.9,257.9L377.9,257.9z
					 M381.6,239.5l-2.7,16.6l6,0L381.6,239.5z"/>
			</g>
		</g>
	</g>
	<g>
		<g>
			<g>
				<g>
					<path fill="#4FB280" d="M388.8,218.8c-29.1-2.4-39.2-9.7-42.4-14.1c-4,25.7-13,52.9-13.1,53.1c-3.4,15.5-0.5,24.2-0.5,24.2
						l-7.5-12.4l1.3-46.3c0.1-15.7,4.1-28.5,12.1-38.3c15.8-19.2,41.7-19.5,42.2-19.5h0c20.7,1.6,35.9,9,45.3,22
						c16.8,23.2,11,60.1,11.2,69.2l-10.5,24.4c3.4-32.5-8.9-51.6-8.9-51.6C410.9,218.9,388.8,218.8,388.8,218.8z"/>
				</g>
			</g>
		</g>
	</g>
	<g>
		<g>
			<path fill="#74C29A" d="M381.4,281.5c-7.3,0-13.9-3.7-17.7-9.9c-0.4-0.7-0.3-1.6,0.2-2.2c0.5-0.6,1.4-0.8,2.1-0.5
				c0.1,0,6.2,2.7,15.2,2.7l0,0c5.3,0,10.5-0.9,15.6-2.7c0.7-0.3,1.6,0,2.1,0.6c0.5,0.6,0.6,1.5,0.2,2.1
				C395.3,277.8,388.7,281.5,381.4,281.5z"/>
		</g>
	</g>
	<g>
		<g>
			<polyline fill="#BAE0CC" points="353.3,304.9 353.2,304.7 287.6,338.2 287.6,388.7 353.3,388.7 353.2,304.7 			"/>
		</g>
		<g>
			<path fill="#BAE0CC" d="M353.3,390.6h-65.7c-1,0-1.9-0.8-1.9-1.9v-50.5c0-0.7,0.4-1.3,1-1.7l65.7-33.5c0.2-0.1,0.5-0.2,0.8-0.2
				c0,0,0,0,0.1,0h0h0c0.9,0,1.7,0.7,1.8,1.6l0,0.2c0,0.2,0,0.4,0,0.6l0,83.5c0,0.5-0.2,1-0.5,1.3
				C354.2,390.4,353.8,390.6,353.3,390.6z M289.4,386.9h62l0-79.2l-62,31.7V386.9z"/>
		</g>
	</g>
	<g>
		<g>
			
				<path fill="#BAE0CC" stroke="#BAE0CC" stroke-width="2" stroke-linecap="round" stroke-linejoin="round" stroke-miterlimit="10" d="
				M409.1,304.5"/>
		</g>
	</g>
	<g>
		<g>
			<polygon fill="#DEEFE6" points="354.4,300.2 333.3,312.2 351.5,316.3 333.3,330.4 354.4,383.2 			"/>
		</g>
		<g>
			<path fill="#DEEFE6" d="M354.4,384.5c-0.5,0-1-0.3-1.1-0.8l-21.1-52.9c-0.2-0.5,0-1.1,0.4-1.4l16.1-12.5l-15.6-3.5
				c-0.5-0.1-0.9-0.5-1-1s0.2-1,0.6-1.3l21.1-12c0.4-0.2,0.9-0.2,1.2,0c0.4,0.2,0.6,0.6,0.6,1.1v83.1c0,0.6-0.4,1.1-1,1.2
				C354.6,384.5,354.5,384.5,354.4,384.5z M334.8,330.8l18.3,46v-74.5l-16.4,9.3l15,3.4c0.5,0.1,0.8,0.5,0.9,0.9
				c0.1,0.5-0.1,1-0.4,1.2L334.8,330.8z"/>
		</g>
	</g>
	<g>
		<g>
			<polyline fill="#BAE0CC" points="411.6,304.9 411.6,304.7 477.3,338.2 477.3,388.7 411.6,388.7 411.6,304.7 			"/>
		</g>
		<g>
			<path fill="#BAE0CC" d="M477.3,390.6h-65.7c-0.5,0-1-0.2-1.3-0.5c-0.3-0.3-0.5-0.8-0.5-1.3l0-83.5c0-0.2,0-0.4,0-0.6l0-0.2
				c0-0.4,0.2-0.7,0.4-1c0.1-0.1,0.1-0.1,0.2-0.2c0.3-0.3,0.7-0.4,1.2-0.4c0,0,0,0,0.1,0c0.3,0,0.6,0.1,0.8,0.2l65.7,33.5
				c0.6,0.3,1,1,1,1.7v50.5C479.1,389.7,478.3,390.6,477.3,390.6z M413.4,386.9h62v-47.5l-62-31.7L413.4,386.9z"/>
		</g>
	</g>
	<g>
		<g>
			<polygon fill="#DEEFE6" points="410.4,300.2 431.5,312.2 413.3,316.3 431.5,330.4 410.4,383.2 			"/>
		</g>
		<g>
			<path fill="#DEEFE6" d="M410.4,384.5c-0.1,0-0.2,0-0.2,0c-0.6-0.1-1-0.6-1-1.2v-83.1c0-0.4,0.2-0.8,0.6-1.1
				c0.4-0.2,0.9-0.2,1.2,0l21.1,12c0.4,0.3,0.7,0.8,0.6,1.3c-0.1,0.5-0.4,0.9-0.9,1l-15.6,3.5l16.1,12.5c0.4,0.3,0.6,0.9,0.4,1.4
				l-21.1,52.9C411.4,384.2,410.9,384.5,410.4,384.5z M411.7,302.3v74.5l18.3-46l-17.4-13.5c-0.4-0.3-0.6-0.8-0.5-1.2
				c0.1-0.5,0.5-0.8,0.9-0.9l15-3.4L411.7,302.3z"/>
		</g>
	</g>
	<g>
		<g>
			<defs>
				<rect id="SVGID_1_" x="381.3" y="150.3" width="71.6" height="136.5"/>
			</defs>
			<clipPath id="SVGID_2_">
				<use xlink:href="#SVGID_1_"  overflow="visible"/>
			</clipPath>
			<g clip-path="url(#SVGID_2_)">
				<g>
					<g>
						<g>
							<path fill="#74C29A" d="M388.8,218.8c-29.1-2.4-39.2-9.7-42.4-14.1c-4,25.7-15.6,51.8-15.6,52c-3.4,15.5,2,25.3,2,25.3
								l-8.1-16.2l1.9-42.4c0.1-15.7,4.1-28.5,12.1-38.3c15.8-19.2,41.7-19.5,42.2-19.5h0c20.7,1.6,35.9,9,45.3,22
								c16.8,23.2,11,60.1,11.2,69.2l-10.5,24.4c3.4-32.5-8.9-51.6-8.9-51.6C410.9,218.9,388.8,218.8,388.8,218.8z"/>
						</g>
					</g>
				</g>
			</g>
		</g>
	</g>
	<g>
		<g>
			<g>
				<g>
					<g>
						<polygon fill="#DEEFE6" points="438.1,335.2 440.4,325.3 442.8,335.2 						"/>
					</g>
				</g>
			</g>
			<g>
				<g>
					<g>
						<path fill="#DEEFE6" d="M442.8,335.5L442.8,335.5l-4.7,0c-0.1,0-0.2,0-0.2-0.1c-0.1-0.1-0.1-0.2-0.1-0.2l2.3-9.9
							c0-0.1,0.1-0.2,0.3-0.2c0.1,0,0.2,0.1,0.3,0.2l2.4,9.8c0,0,0,0.1,0,0.1C443.1,335.4,443,335.5,442.8,335.5z"/>
					</g>
				</g>
			</g>
		</g>
		<g>
			<g>
				<g>
					<polygon fill="#74C29A" points="442.2,334.3 441.3,335.2 440.4,334.3 439.5,335.2 438.6,334.3 437.8,335.2 437.8,335.2 
						437.8,335.6 437.8,376 443.1,376 443.1,335.6 443.1,335.2 					"/>
				</g>
			</g>
		</g>
		<g>
			<g>
				<g>
					<path fill="#97D1B4" d="M443.1,379.6c0,0.2-0.1,0.3-0.3,0.3l-4.7,0c-0.2,0-0.3-0.1-0.3-0.3l0-3c0-0.2,0.1-0.3,0.3-0.3l4.7,0
						c0.2,0,0.3,0.1,0.3,0.3L443.1,379.6z"/>
				</g>
			</g>
		</g>
		<g>
			<g>
				<g>
					<polygon fill="#4FB280" points="439.9,327.4 440.4,325.3 440.9,327.4 					"/>
				</g>
			</g>
			<g>
				<g>
					<path fill="#4FB280" d="M440.9,327.7L440.9,327.7l-1,0c-0.1,0-0.2,0-0.2-0.1c-0.1-0.1-0.1-0.2-0.1-0.2l0.5-2.1
						c0-0.1,0.1-0.2,0.3-0.2l0,0c0.1,0,0.3,0.1,0.3,0.2l0.5,2c0,0,0,0.1,0,0.1C441.2,327.6,441.1,327.7,440.9,327.7z M440.3,327.1
						h0.3l-0.1-0.5L440.3,327.1z"/>
				</g>
			</g>
		</g>
		<g>
			<g>
				<g>
					
						<rect x="437.8" y="374.8" transform="matrix(-1 2.200037e-03 -2.200037e-03 -1 881.7917 750.9922)" fill="#449D71" width="5.3" height="2.4"/>
				</g>
			</g>
		</g>
	</g>
	<g>
		<g>
			<polygon fill="#DEEFE6" points="457.1,376.3 444.3,380.1 431.5,376.3 431.5,350.8 457.1,350.8 			"/>
		</g>
		<g>
			<path fill="#DEEFE6" d="M444.3,381.3c-0.1,0-0.2,0-0.3,0l-12.8-3.7c-0.5-0.2-0.9-0.6-0.9-1.2v-25.6c0-0.7,0.6-1.2,1.2-1.2h25.6
				c0.7,0,1.2,0.6,1.2,1.2v25.6c0,0.6-0.4,1-0.9,1.2l-12.8,3.7C444.5,381.3,444.4,381.3,444.3,381.3z M432.7,375.4l11.5,3.4
				l11.5-3.4V352h-23.1V375.4z"/>
		</g>
	</g>
</g>
<g>
	<g>
		<g>
			<g>
				<path fill="#74C29A" d="M15.3,332.9l95.5-48.8l96.9,48.8C207.8,332.9,157.8,335.9,15.3,332.9z"/>
			</g>
		</g>
	</g>
	<g>
		<g>
			<g>
				<rect x="89" y="246.8" fill="#74C29A" width="45" height="62.9"/>
			</g>
		</g>
	</g>
	<g>
		<g>
			<g>
				<path fill="#97D1B4" d="M14.7,333.2c-0.2-0.8,0.2-1.5,0.9-1.9l66.9-34.2c0.5-0.2,1.1-0.2,1.5,0c0.5,0.3,0.8,0.7,0.9,1.3l0,0.2
					c1.9,13.1,13.4,23,26.7,23c13.4,0,25-10,26.8-23.3l0-0.1c0-0.6,0.4-1.1,0.8-1.4c0.5-0.3,1.1-0.3,1.6,0l68.6,34.5
					c0.7,0.3,1,1.1,0.9,1.8v47.7H16.1L14.7,333.2z"/>
			</g>
		</g>
	</g>
	<g>
		<g>
			<g>
				<path fill="#97D1B4" d="M65.5,232.2c0,6.4-3.7,11.6-8.3,11.6c-4.6,0-8.3-5.2-8.3-11.6c0-6.4,3.7-11.6,8.3-11.6
					C61.8,220.6,65.5,225.8,65.5,232.2z"/>
			</g>
		</g>
	</g>
	<g>
		<g>
			<g>
				<path fill="#BAE0CC" d="M174.5,232.2c0,6.4-3.7,11.6-8.3,11.6c-4.6,0-8.3-5.2-8.3-11.6c0-6.4,3.7-11.6,8.3-11.6
					C170.7,220.6,174.5,225.8,174.5,232.2z"/>
			</g>
		</g>
	</g>
	<g>
		<g>
			<g>
				<path fill="#BAE0CC" d="M166.8,227.9c0,35.4-24.5,64-54.8,64c-30.3,0-54.8-28.7-54.8-64c0-35.4,24.5-64,54.8-64
					C142.2,163.8,166.8,192.5,166.8,227.9z"/>
			</g>
		</g>
	</g>
	<g>
		<g>
			<g>
				<path fill="#97D1B4" d="M112,291.9c-30.3,0-54.8-28.7-54.8-64c0-35.4,24.5-64,54.8-64"/>
			</g>
		</g>
	</g>
	<g>
		<g>
			<g>
				<path fill="#449D71" d="M89.5,231.6c0,2.6-2.1,4.6-4.6,4.6c-2.6,0-4.6-2.1-4.6-4.6c0-2.6,2.1-4.6,4.6-4.6
					C87.4,226.9,89.5,229,89.5,231.6z"/>
			</g>
		</g>
	</g>
	<g>
		<g>
			<g>
				<circle fill="#449D71" cx="139.1" cy="231.6" r="4.6"/>
			</g>
		</g>
	</g>
	<g>
		<g>
			<g>
				<polygon fill="#74C29A" points="117.6,249.9 112,222.2 107.5,249.9 				"/>
			</g>
		</g>
		<g>
			<g>
				<path fill="#74C29A" d="M107.5,251c-0.3,0-0.6-0.1-0.9-0.4c-0.2-0.3-0.3-0.6-0.3-0.9l4.5-27.8c0.1-0.5,0.5-0.9,1.1-0.9h0
					c0.5,0,1,0.4,1.1,0.9l5.6,27.7c0.1,0.3,0,0.7-0.2,0.9c-0.2,0.3-0.5,0.4-0.9,0.4L107.5,251L107.5,251L107.5,251z M112.1,228.5
					l-3.3,20.3l7.4,0L112.1,228.5z"/>
			</g>
		</g>
	</g>
	<g>
		<g>
			<g>
				<path fill="#4FB280" d="M112.6,273.1c-5.8,0-11.2-2.4-14.2-6.3c-0.6-0.7-0.4-1.8,0.3-2.4c0.7-0.6,1.8-0.4,2.4,0.3
					c2.4,3.1,6.9,5,11.6,5c4.7,0,9.2-1.9,11.6-5c0.6-0.7,1.6-0.9,2.4-0.3c0.7,0.6,0.9,1.6,0.3,2.4
					C123.8,270.7,118.4,273.1,112.6,273.1z"/>
			</g>
		</g>
	</g>
	<g>
		<g>
			<path fill="#449D71" d="M84.9,249.3c-9.8,0-17.7-7.9-17.7-17.7c0-9.8,7.9-17.7,17.7-17.7c9.8,0,17.7,7.9,17.7,17.7
				C102.6,241.3,94.7,249.3,84.9,249.3z M84.9,217.6c-7.7,0-13.9,6.2-13.9,13.9c0,7.7,6.3,13.9,13.9,13.9c7.7,0,13.9-6.2,13.9-13.9
				C98.8,223.9,92.6,217.6,84.9,217.6z"/>
		</g>
	</g>
	<g>
		<g>
			<path fill="#449D71" d="M139,249.3c-9.8,0-17.7-7.9-17.7-17.7c0-9.8,7.9-17.7,17.7-17.7c9.8,0,17.7,7.9,17.7,17.7
				C156.7,241.3,148.8,249.3,139,249.3z M139,217.6c-7.7,0-13.9,6.2-13.9,13.9c0,7.7,6.2,13.9,13.9,13.9c7.7,0,13.9-6.2,13.9-13.9
				C153,223.9,146.7,217.6,139,217.6z"/>
		</g>
	</g>
	<g>
		<g>
			<path fill="#449D71" d="M100.7,235c-0.3,0-0.6-0.1-0.9-0.2c-0.9-0.5-1.3-1.6-0.8-2.6c2.6-4.8,7.5-7.7,12.9-7.7
				c5.4,0,10.3,2.9,12.9,7.7c0.5,0.9,0.2,2.1-0.8,2.6c-0.9,0.5-2.1,0.2-2.6-0.8c-1.9-3.5-5.6-5.7-9.6-5.7c-4,0-7.7,2.2-9.6,5.7
				C102,234.7,101.4,235,100.7,235z"/>
		</g>
	</g>
	<g>
		<g>
			<path fill="#449D71" d="M154,228.3c-0.7,0-1.3-0.4-1.7-1c-0.5-0.9-0.2-2.1,0.8-2.6l9.9-5.4c0.9-0.5,2.1-0.2,2.6,0.8
				c0.5,0.9,0.2,2.1-0.8,2.6l-9.9,5.4C154.6,228.2,154.3,228.3,154,228.3z"/>
		</g>
	</g>
	<g>
		<g>
			<polyline fill="#BAE0CC" points="84.8,296.8 84.8,296.5 12.6,333.4 12.6,388.9 84.8,388.9 84.8,296.5 			"/>
		</g>
		<g>
			<path fill="#BAE0CC" d="M84.8,390.8H12.6c-1,0-1.9-0.8-1.9-1.9v-55.5c0-0.7,0.4-1.4,1-1.7l72.2-36.9c0.3-0.1,0.6-0.2,0.9-0.2h0
				c1,0,1.8,0.7,1.9,1.7l0,0.2c0,0.2,0,0.4,0,0.6l0,91.8c0,0.5-0.2,1-0.6,1.3C85.8,390.6,85.3,390.8,84.8,390.8z M14.5,387h68.5
				l0-87.4l-68.4,35L14.5,387L14.5,387z"/>
		</g>
	</g>
	<g>
		<g>
			<polyline fill="#BAE0CC" points="139.4,296.8 139.4,296.5 211.6,333.4 211.6,388.9 139.4,388.9 139.4,296.5 			"/>
		</g>
		<g>
			<path fill="#BAE0CC" d="M211.6,390.8h-72.2c-0.5,0-1-0.2-1.3-0.6c-0.4-0.4-0.6-0.8-0.6-1.3l0-91.8c0-0.2,0-0.4,0-0.6l0-0.2
				c0-0.4,0.2-0.7,0.4-1c0.1-0.1,0.1-0.1,0.2-0.2c0.3-0.3,0.8-0.4,1.2-0.4h0c0.3,0,0.6,0.1,0.9,0.2l72.2,36.9c0.6,0.3,1,1,1,1.7
				v55.5C213.5,390,212.6,390.8,211.6,390.8z M141.3,387h68.5v-52.5l-68.4-35L141.3,387z"/>
		</g>
	</g>
	<g>
		<g>
			<path fill="#449D71" d="M69.1,228.3c-0.3,0-0.6-0.1-0.9-0.2l-9.9-5.4c-0.9-0.5-1.3-1.6-0.8-2.6c0.5-0.9,1.6-1.3,2.6-0.8l9.9,5.4
				c0.9,0.5,1.3,1.6,0.8,2.6C70.4,228,69.7,228.3,69.1,228.3z"/>
		</g>
	</g>
	<g>
		<g>
			<g>
				<g>
					<path fill="#74C29A" d="M59,238c-0.3,0-8.8-34.9,8.3-58.5c9.5-13.2,25.1-20.7,46.1-22.4h0c0.5,0,26.9,0.3,43,19.8
						c11.9,14.5,15.2,35.8,9.8,63.1c0,0.2-0.3,0.4-0.5,0.5c0,0,0,0-0.1,0c-0.2,0-0.4-0.1-0.5-0.4c-0.1-0.2-11.2-44.3-16-51
						c0,0-31.8,14.1-71.8,0.2C77.4,189.4,67.9,199.7,59,238"/>
					<path fill="#74C29A" d="M165.7,241.2c-0.5,0-1-0.3-1.2-0.8c0-0.1,0-0.1-0.4-1.4c-7-27-12.4-44.3-15.2-48.9
						c-2.9,1.2-16.5,6.1-35.5,6.1c-12.2,0-24.2-2-35.9-6c-1.7,2.1-10,14.1-17.9,47.9c-0.1,0.6-1.1,0.7-1.4,0.1
						c-0.1-0.3-9-35.2,8.4-59.2c9.7-13.4,25.4-21,46.7-22.7h0c0.5,0,27.4,0.3,43.6,20.1c12.1,14.7,15.4,36.1,10,63.7
						c-0.1,0.6-0.6,1-1.1,1C165.8,241.2,165.7,241.2,165.7,241.2z M149.2,188.4c0.2,0,0.5,0.1,0.6,0.3c3.6,5.1,10.6,29.9,15.8,49.9
						c0,0.2,0.1,0.4,0.1,0.5c5.2-26.7,1.9-47.5-9.8-61.7c-15.9-19.4-42.2-19.6-42.4-19.6c-20.8,1.6-36.1,9-45.5,22.1
						c-13.7,18.9-10.8,46.1-8.9,55c8.6-35.7,17.5-45.6,17.9-46.1c0.2-0.2,0.5-0.3,0.8-0.2c11.6,4,23.7,6.1,35.9,6.1
						c21.1,0,35.3-6.2,35.4-6.3C149,188.4,149.1,188.4,149.2,188.4z"/>
				</g>
			</g>
		</g>
	</g>
	<g>
		<g>
			<defs>
				<polygon id="SVGID_3_" points="112,243.2 51.5,243.2 51.5,153.2 112,152.7 				"/>
			</defs>
			<clipPath id="SVGID_4_">
				<use xlink:href="#SVGID_3_"  overflow="visible"/>
			</clipPath>
			<g clip-path="url(#SVGID_4_)">
				<g>
					<g>
						<g>
							<path fill="#4FB280" d="M59,238c-0.3,0-8.8-34.9,8.3-58.5c9.5-13.2,25.1-20.7,46.1-22.4h0c0.5,0,26.9,0.3,43,19.8
								c11.9,14.5,15.2,35.8,9.8,63.1c0,0.2-0.3,0.4-0.5,0.5c0,0,0,0-0.1,0c-0.2,0-0.4-0.1-0.5-0.4c-0.1-0.2-11.2-44.3-16-51
								c0,0-31.8,14.1-71.8,0.2C77.4,189.4,67.9,199.7,59,238"/>
							<path fill="#4FB280" d="M165.7,241.2c-0.5,0-1-0.3-1.2-0.8c0-0.1,0-0.1-0.4-1.4c-7-27-12.4-44.3-15.2-48.9
								c-2.9,1.2-16.5,6.1-35.5,6.1c-12.2,0-24.2-2-35.9-6c-1.7,2.1-10,14.1-17.9,47.9c-0.1,0.6-1.1,0.7-1.4,0.1
								c-0.1-0.3-9-35.2,8.4-59.2c9.7-13.4,25.4-21,46.7-22.7h0c0.5,0,27.4,0.3,43.6,20.1c12.1,14.7,15.4,36.1,10,63.7
								c-0.1,0.6-0.6,1-1.1,1C165.8,241.2,165.7,241.2,165.7,241.2z M149.2,188.4c0.2,0,0.5,0.1,0.6,0.3
								c3.6,5.1,10.6,29.9,15.8,49.9c0,0.2,0.1,0.4,0.1,0.5c5.2-26.7,1.9-47.5-9.8-61.7c-15.9-19.4-42.2-19.6-42.4-19.6
								c-20.8,1.6-36.1,9-45.5,22.1c-13.7,18.9-10.8,46.1-8.9,55c8.6-35.7,17.5-45.6,17.9-46.1c0.2-0.2,0.5-0.3,0.8-0.2
								c11.6,4,23.7,6.1,35.9,6.1c21.1,0,35.3-6.2,35.4-6.3C149,188.4,149.1,188.4,149.2,188.4z"/>
						</g>
					</g>
				</g>
			</g>
		</g>
	</g>
	<g>
		<g>
			<defs>
				<rect id="SVGID_5_" x="66.1" y="305" width="92.9" height="96.2"/>
			</defs>
			<clipPath id="SVGID_6_">
				<use xlink:href="#SVGID_5_"  overflow="visible"/>
			</clipPath>
			<g clip-path="url(#SVGID_6_)">
				<g>
					<g>
						<polygon fill="#449D71" points="122.6,415.8 111.6,427.2 100.4,415.8 104.4,323.6 118.7,323.6 						"/>
					</g>
				</g>
				<g>
					<g>
						<defs>
							<polygon id="SVGID_7_" points="122.6,415.8 111.6,427.2 100.4,415.8 104.4,323.6 118.7,323.6 							"/>
						</defs>
						<clipPath id="SVGID_8_">
							<use xlink:href="#SVGID_7_"  overflow="visible"/>
						</clipPath>
						<g clip-path="url(#SVGID_8_)">
							<g>
								<g>
									
										<rect x="79.2" y="302" transform="matrix(-0.7115 0.7027 -0.7027 -0.7115 389.8683 456.6318)" fill="#4FB280" width="43.9" height="12.7"/>
								</g>
							</g>
							<g>
								<g>
									<polygon fill="#4FB280" points="126,328.4 94.7,359.3 85.8,350.3 117.1,319.4 									"/>
								</g>
							</g>
							<g>
								<g>
									
										<rect x="88.7" y="364.2" transform="matrix(-0.7115 0.7027 -0.7027 -0.7115 449.7801 556.3438)" fill="#4FB280" width="43.9" height="12.7"/>
								</g>
							</g>
							<g>
								<g>
									<polygon fill="#4FB280" points="135.5,390.4 104.2,421.3 95.3,412.3 126.6,381.4 									"/>
								</g>
							</g>
						</g>
					</g>
					<g>
						<g>
							<polygon fill="#449D71" points="119,330.6 104.1,330.6 100.7,319.1 122.3,319.1 							"/>
						</g>
						<g>
							<path fill="#449D71" d="M119,331.3h-14.9c-0.3,0-0.5-0.2-0.6-0.5l-3.3-11.5c-0.1-0.2,0-0.4,0.1-0.6c0.1-0.2,0.3-0.3,0.5-0.3
								h21.6c0.2,0,0.4,0.1,0.5,0.3c0.1,0.2,0.2,0.4,0.1,0.6l-3.3,11.5C119.5,331.1,119.3,331.3,119,331.3z M104.6,330h14l3-10.3
								h-19.9L104.6,330z"/>
						</g>
					</g>
				</g>
			</g>
			<g clip-path="url(#SVGID_6_)">
				<g>
					<polygon fill="#BAE0CC" points="85.9,304 111.3,317.5 97.3,328.4 					"/>
				</g>
				<g>
					<path fill="#BAE0CC" d="M97.3,330.2c-0.1,0-0.3,0-0.4-0.1c-0.6-0.1-1-0.5-1.3-1l-11.5-24.3c-0.3-0.7-0.2-1.6,0.4-2.2
						c0.6-0.6,1.5-0.7,2.2-0.3l25.4,13.5c0.6,0.3,0.9,0.9,1,1.5s-0.2,1.3-0.7,1.7l-14,10.8C98.1,330.1,97.7,330.2,97.3,330.2z
						 M90,308.4l8,17l9.8-7.6L90,308.4z"/>
				</g>
			</g>
			<g clip-path="url(#SVGID_6_)">
				<g>
					<polygon fill="#BAE0CC" points="137.9,304 112.4,317.5 126.4,328.4 					"/>
				</g>
				<g>
					<path fill="#BAE0CC" d="M126.4,330.2c-0.4,0-0.8-0.1-1.2-0.4l-14-10.8c-0.5-0.4-0.8-1-0.7-1.7c0.1-0.6,0.4-1.2,1-1.5l25.4-13.5
						c0.7-0.4,1.6-0.3,2.2,0.3c0.6,0.6,0.8,1.4,0.4,2.2l-11.5,24.3c-0.2,0.5-0.7,0.9-1.3,1C126.7,330.2,126.6,330.2,126.4,330.2z
						 M115.9,317.8l9.8,7.6l8-17L115.9,317.8z"/>
				</g>
			</g>
			<g clip-path="url(#SVGID_6_)">
				<g>
					<polygon fill="#DEEFE6" points="87.8,291.6 66.4,303.8 84.9,308 66.4,322.3 87.8,376.2 					"/>
				</g>
				<g>
					<path fill="#DEEFE6" d="M87.8,377.5c-0.5,0-1-0.3-1.2-0.8l-21.5-53.9c-0.2-0.5,0-1.1,0.4-1.5L82,308.6L66.1,305
						c-0.5-0.1-0.9-0.5-1-1c-0.1-0.5,0.2-1,0.6-1.3l21.5-12.2c0.4-0.2,0.9-0.2,1.3,0c0.4,0.2,0.6,0.6,0.6,1.1v84.6
						c0,0.6-0.4,1.1-1,1.2C88,377.4,87.9,377.5,87.8,377.5z M67.9,322.7l18.7,46.9v-75.9l-16.8,9.5l15.3,3.5c0.5,0.1,0.8,0.5,1,1
						c0.1,0.5-0.1,1-0.5,1.3L67.9,322.7z"/>
				</g>
			</g>
			<g clip-path="url(#SVGID_6_)">
				<g>
					<polygon fill="#DEEFE6" points="135.3,291.6 156.8,303.8 138.3,308 156.8,322.3 135.3,376.2 					"/>
				</g>
				<g>
					<path fill="#DEEFE6" d="M135.3,377.5c-0.1,0-0.2,0-0.2,0c-0.6-0.1-1-0.6-1-1.2v-84.6c0-0.4,0.2-0.9,0.6-1.1
						c0.4-0.2,0.9-0.2,1.3,0l21.5,12.2c0.5,0.3,0.7,0.8,0.6,1.3c-0.1,0.5-0.5,0.9-1,1l-15.9,3.6l16.4,12.7c0.4,0.3,0.6,0.9,0.4,1.5
						l-21.5,53.9C136.3,377.1,135.8,377.5,135.3,377.5z M136.6,293.7v75.9l18.7-46.9L137.5,309c-0.4-0.3-0.6-0.8-0.5-1.3
						c0.1-0.5,0.5-0.9,1-1l15.3-3.5L136.6,293.7z"/>
				</g>
			</g>
		</g>
		<g>
			<g>
				<g>
					<path fill="#449D71" d="M138,316.5l-19.4-2.2c-0.4-3.3-3.1-5.9-6.6-5.9s-6.2,2.6-6.6,5.9L86,316.5c-3.5,0-6.3,2.8-6.3,6.3h64.6
						C144.3,319.4,141.5,316.5,138,316.5z M112,318c-1.6,0-2.9-1.3-2.9-2.9c0-1.6,1.3-2.9,2.9-2.9s2.9,1.3,2.9,2.9
						C115,316.7,113.6,318,112,318z"/>
				</g>
			</g>
			<g>
				<g>
					<path fill="#74C29A" d="M65.1,396.1v-69.8c0-2.5,2-4.4,4.4-4.4h84.9c2.5,0,4.4,2,4.4,4.4v69.8"/>
					<path fill="#74C29A" d="M158.9,396.8c-0.4,0-0.7-0.3-0.7-0.7v-69.8c0-2-1.7-3.7-3.7-3.7H69.6c-2,0-3.7,1.7-3.7,3.7v69.8
						c0,0.4-0.3,0.7-0.7,0.7s-0.7-0.3-0.7-0.7v-69.8c0-2.9,2.3-5.2,5.2-5.2h84.9c2.9,0,5.2,2.3,5.2,5.2v69.8
						C159.7,396.5,159.3,396.8,158.9,396.8z"/>
				</g>
			</g>
		</g>
		<g>
			<rect x="32.7" y="92.4" fill="#DEEFE6" width="430.5" height="23.7"/>
		</g>
		<g>
			<g>
				<g>
					<rect x="218.6" y="276.1" fill="#97D1B4" width="52.8" height="73.8"/>
				</g>
			</g>
			<g>
				<g>
					<path fill="#97D1B4" d="M132.1,377.2l112.1-57.3L358,377.2C358,377.2,299.3,380.8,132.1,377.2z"/>
				</g>
			</g>
			<g>
				<g>
					<path fill="#74C29A" d="M278.7,336.6l80.5,40.5c0,0-58.6,3.6-225.9,0l78.5-40.1l0,0.3c2.4,16.3,16.4,28.7,33.4,28.7
						c17.1,0,31.2-12.7,33.4-29.1L278.7,336.6z"/>
				</g>
				<g>
					<path fill="#74C29A" d="M266.2,380.7c-38.9,0-83.6-0.5-132.9-1.6c-0.9,0-1.7-0.7-1.9-1.5c-0.2-0.9,0.2-1.8,1-2.2l78.5-40.1
						c0.6-0.3,1.3-0.3,1.8,0c0.6,0.3,1,0.9,1,1.5l0,0.3c2.3,15.4,15.8,27,31.4,27c15.8,0,29.3-11.8,31.4-27.4l0-0.2
						c0-0.7,0.4-1.3,1-1.6c0.6-0.3,1.3-0.3,1.9,0l80.5,40.5c0.8,0.4,1.2,1.3,1,2.2c-0.2,0.9-0.9,1.5-1.8,1.6
						C359.1,379.1,332.4,380.7,266.2,380.7z M141.2,375.3c46.2,1,88.2,1.4,125,1.4c46.5,0,73.4-0.8,85.4-1.3l-71.4-35.9
						c-3.4,16.3-18,28.4-34.9,28.4c-16.7,0-31.3-11.9-34.9-28L141.2,375.3z"/>
				</g>
			</g>
			<g>
				<g>
					<defs>
						<path id="SVGID_9_" d="M278.7,336.6l80.5,40.5c0,0-58.6,3.6-225.9,0l78.5-40.1l0,0.3c2.4,16.3,16.4,28.7,33.4,28.7
							c17.1,0,31.2-12.7,33.4-29.1L278.7,336.6z"/>
					</defs>
					<clipPath id="SVGID_10_">
						<use xlink:href="#SVGID_9_"  overflow="visible"/>
					</clipPath>
					<g clip-path="url(#SVGID_10_)">
						<g>
							<g>
								<rect x="122.8" y="331.7" fill="#74C29A" width="243.3" height="8.8"/>
							</g>
						</g>
						<g>
							<g>
								<rect x="122.8" y="340.5" fill="#449D71" width="243.3" height="8.8"/>
							</g>
						</g>
						<g>
							<g>
								<rect x="122.8" y="349.3" fill="#74C29A" width="243.3" height="8.8"/>
							</g>
						</g>
						<g>
							<g>
								<rect x="122.8" y="358.1" fill="#449D71" width="243.3" height="8.8"/>
							</g>
						</g>
						<g>
							<g>
								<rect x="122.8" y="366.9" fill="#74C29A" width="243.3" height="8.8"/>
							</g>
						</g>
						<g>
							<g>
								<rect x="122.8" y="375.7" fill="#449D71" width="243.3" height="8.8"/>
							</g>
						</g>
					</g>
				</g>
			</g>
			<g>
				<g>
					<path fill="#BAE0CC" d="M191,258.9c0,7.5-4.4,13.6-9.8,13.6c-5.4,0-9.8-6.1-9.8-13.6c0-7.5,4.4-13.6,9.8-13.6
						C186.7,245.4,191,251.5,191,258.9z"/>
				</g>
			</g>
			<g>
				<g>
					<path fill="#DEEFE6" d="M318.9,258.9c0,7.5-4.4,13.6-9.8,13.6c-5.4,0-9.8-6.1-9.8-13.6c0-7.5,4.4-13.6,9.8-13.6
						C314.5,245.4,318.9,251.5,318.9,258.9z"/>
				</g>
			</g>
			<g>
				<g>
					<path fill="#DEEFE6" d="M309.9,253.9c0,41.5-28.8,75.2-64.3,75.2c-35.5,0-64.3-33.7-64.3-75.2c0-41.5,28.8-75.2,64.3-75.2
						C281.1,178.7,309.9,212.4,309.9,253.9z"/>
				</g>
			</g>
			<g>
				<g>
					<path fill="#BAE0CC" d="M245.6,329.1c-35.5,0-64.3-33.7-64.3-75.2c0-41.5,28.8-75.2,64.3-75.2"/>
				</g>
			</g>
			<g>
				<g>
					<circle fill="#449D71" cx="209.3" cy="258.2" r="5.4"/>
				</g>
			</g>
			<g>
				<g>
					<circle fill="#449D71" cx="281.8" cy="258.2" r="5.4"/>
				</g>
			</g>
			<g>
				<g>
					<g>
						<path fill="#4FB280" d="M308.7,268.7c-0.3,0-0.5-0.2-0.6-0.4c-0.1-0.3-11.5-28.9-16.3-59.6c-3.8,5.2-19.1,22.9-53.9,25.7
							c-0.3,0-0.6-0.2-0.7-0.4c-0.1-0.3,0-0.6,0.3-0.8c0.1-0.1,8.6-5.8,17.6-17.9c-7.1,4.5-25.3,15.6-39.2,19.1
							c-0.2,0-0.4,0-0.5-0.1c-0.2-0.1-0.3-0.3-0.3-0.4c0-0.1-0.8-4.7-1.4-11.4c-6.2,10.4-26.1,43.3-30.3,43.3
							c-0.3,0-0.6-0.2-0.6-0.5c-0.1-0.4-9.7-40.4,10.4-68.2c11.2-15.5,29.4-24.3,54.2-26.3h0c0.6,0,31.6,0.3,50.5,23.3
							c14,17.1,17.9,42,11.5,74C309.2,268.5,309,268.7,308.7,268.7C308.7,268.7,308.7,268.7,308.7,268.7z"/>
					</g>
				</g>
			</g>
			<g>
				<g>
					<circle fill="#97D1B4" cx="199.1" cy="276.7" r="2.4"/>
				</g>
			</g>
			<g>
				<g>
					<circle fill="#97D1B4" cx="210" cy="283.1" r="2.4"/>
				</g>
			</g>
			<g>
				<g>
					<path fill="#97D1B4" d="M221.9,274.3c0,1.3-1.1,2.4-2.4,2.4c-1.3,0-2.4-1.1-2.4-2.4c0-1.3,1.1-2.4,2.4-2.4
						C220.8,271.9,221.9,273,221.9,274.3z"/>
				</g>
			</g>
			<g>
				<g>
					<path fill="#BAE0CC" d="M274,277.1c0,1.3-1.1,2.4-2.4,2.4c-1.3,0-2.4-1.1-2.4-2.4c0-1.3,1.1-2.4,2.4-2.4
						C272.9,274.7,274,275.8,274,277.1z"/>
				</g>
			</g>
			<g>
				<g>
					<path fill="#BAE0CC" d="M284.9,283.5c0,1.3-1.1,2.4-2.4,2.4c-1.3,0-2.4-1.1-2.4-2.4c0-1.3,1.1-2.4,2.4-2.4
						C283.8,281.1,284.9,282.2,284.9,283.5z"/>
				</g>
			</g>
			<g>
				<g>
					<path fill="#BAE0CC" d="M294.4,274.7c0,1.3-1.1,2.4-2.4,2.4c-1.3,0-2.4-1.1-2.4-2.4c0-1.3,1.1-2.4,2.4-2.4
						C293.3,272.3,294.4,273.4,294.4,274.7z"/>
				</g>
			</g>
			<g>
				<g>
					<defs>
						<rect id="SVGID_11_" x="169" y="163.9" width="76.6" height="110.5"/>
					</defs>
					<clipPath id="SVGID_12_">
						<use xlink:href="#SVGID_11_"  overflow="visible"/>
					</clipPath>
					<g clip-path="url(#SVGID_12_)">
						<g>
							<g>
								<path fill="#449D71" d="M308.7,268.7c-0.3,0-0.5-0.2-0.6-0.4c-0.1-0.3-11.5-28.9-16.3-59.6c-3.8,5.2-19.1,22.9-53.9,25.7
									c-0.3,0-0.6-0.2-0.7-0.4c-0.1-0.3,0-0.6,0.3-0.8c0.1-0.1,8.6-5.8,17.6-17.9c-7.1,4.5-25.3,15.6-39.2,19.1
									c-0.2,0-0.4,0-0.5-0.1c-0.2-0.1-0.3-0.3-0.3-0.4c0-0.1-0.8-4.7-1.4-11.4c-6.2,10.4-26.1,43.3-30.3,43.3
									c-0.3,0-0.6-0.2-0.6-0.5c-0.1-0.4-9.7-40.4,10.4-68.2c11.2-15.5,29.4-24.3,54.2-26.3h0c0.6,0,31.6,0.3,50.5,23.3
									c14,17.1,17.9,42,11.5,74C309.2,268.5,309,268.7,308.7,268.7C308.7,268.7,308.7,268.7,308.7,268.7z"/>
							</g>
						</g>
					</g>
				</g>
			</g>
			<g>
				<g>
					<polygon fill="#97D1B4" points="252.1,279.8 245.6,247.2 240.3,279.8 					"/>
				</g>
				<g>
					<path fill="#97D1B4" d="M240.3,281.1c-0.4,0-0.8-0.2-1-0.5c-0.2-0.3-0.4-0.7-0.3-1.1l5.3-32.6c0.1-0.6,0.6-1.1,1.3-1.1
						c0,0,0,0,0,0c0.6,0,1.2,0.4,1.3,1.1l6.6,32.6c0.1,0.4,0,0.8-0.3,1.1c-0.3,0.3-0.6,0.5-1,0.5L240.3,281.1L240.3,281.1z
						 M245.7,254.6l-3.9,23.9l8.7,0L245.7,254.6z"/>
				</g>
			</g>
		</g>
		<g>
			<path fill="#FFFFFE" d="M272,290.9c-5.3,13.5-14.9,22.5-25.8,22.5c-10.9,0-20.5-9-25.8-22.5C220.4,290.9,243.6,306.9,272,290.9"
				/>
		</g>
		<g>
			<g>
				<path fill="#74C29A" d="M260.1,129.8c-79.8,0-157.8-14.2-232.4-42.4l1.6-4.2c83.4,31.5,171.3,45.5,261.2,41.4
					c61-2.8,121.1-13.9,178.4-33l1.4,4.2c-57.8,19.3-118.2,30.5-179.6,33.3C280.5,129.6,270.3,129.8,260.1,129.8z"/>
			</g>
			<g>
				<path fill="#449D71" d="M128.6,140.3c3.2,0.8,6.2,0.1,8.9-2l3.2,5.3c-4.2,3-8.6,4-13.2,2.9c-4.6-1.1-8-3.4-10.2-6.9
					c-2.3-3.6-2.9-7.5-1.9-11.9c1-4.4,3.4-7.7,7.1-9.9c3.7-2.2,7.7-2.8,12-1.8c4.9,1.1,8.5,3.9,10.9,8.4l-5.2,3.7
					c-1.5-3.1-3.8-5-6.9-5.7c-2.5-0.6-4.8-0.3-6.9,0.9c-2.1,1.2-3.5,3.2-4.2,5.9c-0.6,2.7-0.3,5.2,0.9,7.2
					C124.4,138.4,126.2,139.7,128.6,140.3z"/>
			</g>
			<g>
				<path fill="#4FB280" d="M176.2,149.9c-3.4,2.6-7.3,3.7-11.8,3.2c-4.5-0.5-8.1-2.4-10.8-5.7c-2.7-3.3-3.8-7.2-3.4-11.6
					c0.5-4.4,2.4-8,5.8-10.6c3.4-2.6,7.3-3.7,11.8-3.2c4.5,0.5,8.1,2.4,10.8,5.7c2.7,3.3,3.8,7.2,3.4,11.6
					C181.5,143.7,179.6,147.3,176.2,149.9z M175.2,138.6c0.3-2.7-0.3-5.1-1.8-7.2c-1.5-2.1-3.5-3.3-6.1-3.5
					c-2.5-0.3-4.7,0.4-6.7,2.2c-1.9,1.7-3.1,3.9-3.3,6.6c-0.3,2.7,0.3,5.1,1.8,7.2c1.5,2.1,3.5,3.3,6.1,3.5s4.7-0.4,6.7-2.1
					C173.8,143.5,174.9,141.3,175.2,138.6z"/>
			</g>
			<g>
				<path fill="#97D1B4" d="M212,127.2l6.7,0.6l-2.9,30.2l-6.8-0.6l-12.6-20.3l-1.8,18.9l-6.7-0.6l2.9-30.2l6.3,0.6l13,20.9
					L212,127.2z"/>
			</g>
			<g>
				<path fill="#449D71" d="M247.5,143.4l6.8,0.1l-0.2,10.8c-3.1,3.3-7.3,4.9-12.6,4.8c-4.5-0.1-8.2-1.6-11.2-4.6
					c-3-3-4.4-6.8-4.4-11.3c0.1-4.5,1.7-8.2,4.8-11.2s6.9-4.4,11.2-4.3c4.4,0.1,8.1,1.6,11.3,4.5l-3.6,5c-1.3-1.2-2.6-2-3.7-2.5
					c-1.1-0.5-2.4-0.7-3.7-0.7c-2.6,0-4.8,0.8-6.6,2.5c-1.8,1.7-2.7,4-2.8,6.9c0,2.9,0.8,5.2,2.4,6.9c1.7,1.8,3.7,2.6,6,2.7
					c2.3,0,4.3-0.4,5.9-1.3L247.5,143.4z"/>
			</g>
			<g>
				<path fill="#4FB280" d="M288.5,137.9c0.2,4.9-1.5,8.1-5.3,9.7l8.2,10.5l-8.3,0.4l-7.2-9.4l-4.7,0.2l0.5,9.7l-6.8,0.3l-1.5-30.3
					l11.5-0.6c4.7-0.2,8.1,0.4,10.2,1.9C287.2,131.9,288.3,134.4,288.5,137.9z M280.5,141.9c0.8-0.8,1.2-2,1.1-3.6
					c-0.1-1.6-0.6-2.7-1.5-3.3c-0.9-0.6-2.4-0.8-4.6-0.7l-5.1,0.2l0.4,9l4.9-0.2C278.1,143.2,279.7,142.7,280.5,141.9z"/>
			</g>
			<g>
				<path fill="#449D71" d="M322.6,156.1l-3.3-6.4l-12.7,0.9l-2.4,6.7l-7.2,0.5l11-31.2l6.5-0.4l15.2,29.4L322.6,156.1z M312,135.4
					l-3.2,9.1l7.6-0.5L312,135.4z"/>
			</g>
			<g>
				<path fill="#97D1B4" d="M344.7,129.2l3.6,24.2l-6.7,1l-3.6-24.2l-8.5,1.3l-0.9-5.8l23.7-3.5l0.9,5.8L344.7,129.2z"/>
			</g>
			<g>
				<path fill="#4FB280" d="M366.7,126.2c-0.6,0.6-0.8,1.4-0.7,2.2c0.1,0.9,0.6,1.5,1.5,1.9c0.9,0.4,2.8,0.8,5.7,1
					c3,0.3,5.3,1,7.1,2.2c1.8,1.2,2.9,3.1,3.2,5.8c0.4,2.7-0.3,5-2.1,7c-1.8,2-4.3,3.2-7.6,3.7c-4.8,0.7-9.3-0.5-13.6-3.4l3.3-5.5
					c3.6,2.4,6.8,3.4,9.6,3c1.2-0.2,2.2-0.6,2.8-1.2c0.6-0.6,0.9-1.4,0.7-2.3c-0.1-0.9-0.6-1.6-1.4-2c-0.8-0.4-2.4-0.7-4.7-1
					c-3.6-0.3-6.3-1-8.1-2.1c-1.8-1.1-2.9-3.1-3.3-5.9c-0.4-2.9,0.3-5.2,2.1-7c1.8-1.8,4.3-3,7.3-3.4c2-0.3,4.1-0.2,6.2,0.2
					c2.1,0.4,4,1.1,5.7,2.2l-2.7,5.4c-2.9-1.6-5.7-2.2-8.5-1.8C368.1,125.2,367.2,125.6,366.7,126.2z"/>
			</g>
			<g>
				<path fill="#449D71" d="M388,115.6l7.2-2l1.4,5l2.8,15l-4.8,1.3l-5.2-14.3L388,115.6z M396.6,143c-0.9-0.5-1.5-1.3-1.7-2.3
					c-0.3-1-0.2-1.9,0.3-2.8c0.5-0.9,1.3-1.5,2.3-1.7c1-0.3,1.9-0.2,2.8,0.3c0.9,0.5,1.5,1.3,1.7,2.3c0.3,1,0.2,1.9-0.3,2.8
					c-0.5,0.9-1.3,1.5-2.3,1.7C398.4,143.6,397.5,143.5,396.6,143z"/>
			</g>
		</g>
		<g>
			<g>
				<g>
					<rect x="180.9" y="312.1" fill="#97D1B4" width="130.7" height="60.9"/>
					<path fill="#97D1B4" d="M311.6,374.5H180.9c-0.8,0-1.5-0.7-1.5-1.5v-60.9c0-0.8,0.7-1.5,1.5-1.5h130.7c0.8,0,1.5,0.7,1.5,1.5
						V373C313,373.8,312.4,374.5,311.6,374.5z M182.4,371.5h127.7v-57.9H182.4V371.5z"/>
				</g>
				<g>
					<path fill="#4FB280" d="M264.7,344.1h-73.5c-0.4,0-0.7-0.3-0.7-0.7s0.3-0.7,0.7-0.7h73.5c0.4,0,0.7,0.3,0.7,0.7
						S265.1,344.1,264.7,344.1z"/>
				</g>
				<g>
					<path fill="#4FB280" d="M215.2,320.5h-24c-0.4,0-0.7-0.3-0.7-0.7s0.3-0.7,0.7-0.7h24c0.4,0,0.7,0.3,0.7,0.7
						C215.9,320.1,215.6,320.5,215.2,320.5z"/>
				</g>
				<g>
					<path fill="#4FB280" d="M215.2,324.9h-24c-0.4,0-0.7-0.3-0.7-0.7s0.3-0.7,0.7-0.7h24c0.4,0,0.7,0.3,0.7,0.7
						C215.9,324.5,215.6,324.9,215.2,324.9z"/>
				</g>
				<g>
					<path fill="#4FB280" d="M230.6,361h-39.4c-0.4,0-0.7-0.3-0.7-0.7c0-0.4,0.3-0.7,0.7-0.7h39.4c0.4,0,0.7,0.3,0.7,0.7
						C231.3,360.7,231,361,230.6,361z"/>
				</g>
				<g>
					<path fill="#4FB280" d="M300.1,361h-39.4c-0.4,0-0.7-0.3-0.7-0.7c0-0.4,0.3-0.7,0.7-0.7h39.4c0.4,0,0.7,0.3,0.7,0.7
						C300.8,360.7,300.5,361,300.1,361z"/>
				</g>
				<g>
					<rect x="270.5" y="335.3" fill="#BAE0CC" width="29.3" height="7.5"/>
					<path fill="#BAE0CC" d="M299.7,343.6h-29.3c-0.4,0-0.7-0.3-0.7-0.7v-7.5c0-0.4,0.3-0.7,0.7-0.7h29.3c0.4,0,0.7,0.3,0.7,0.7v7.5
						C300.5,343.2,300.1,343.6,299.7,343.6z M271.2,342.1H299v-6h-27.8V342.1z"/>
				</g>
				<g>
					<path fill="#4FB280" d="M222.1,366.9c0.1-0.1,0.1-0.3,0.1-0.4c0-0.1,0-0.2-0.1-0.3c-0.1-0.1-0.2-0.1-0.3-0.1
						c-0.2,0-0.5,0.2-0.7,0.5l-0.7-0.4c0.2-0.3,0.4-0.5,0.6-0.6c0.2-0.1,0.5-0.2,0.8-0.2c0.3,0,0.6,0.1,0.8,0.3
						c0.2,0.2,0.4,0.5,0.4,0.8c0,0.2,0,0.4-0.1,0.5c-0.1,0.2-0.3,0.4-0.5,0.7l-0.7,0.7h1.5v0.7h-2.6v-0.6l1.1-1.1
						C221.9,367.2,222,367.1,222.1,366.9z"/>
					<path fill="#4FB280" d="M225.1,367.6v-0.6h0.8v0.6h0.4v0.7h-0.4v0.9h-0.8v-0.9h-1.5v-0.6l1.3-2.2h0.9l-1.3,2.1H225.1z"/>
					<path fill="#4FB280" d="M227,366.2v-0.7h2.3v0.6l-0.8,0.9c0.3,0,0.5,0.2,0.7,0.4c0.2,0.2,0.2,0.4,0.2,0.7
						c0,0.4-0.1,0.7-0.4,0.9c-0.3,0.2-0.6,0.3-1,0.3c-0.4,0-0.8-0.1-1.2-0.4l0.3-0.7c0.3,0.2,0.7,0.4,0.9,0.4c0.2,0,0.3,0,0.4-0.1
						c0.1-0.1,0.2-0.2,0.2-0.4c0-0.2-0.1-0.3-0.2-0.4c-0.1-0.1-0.3-0.1-0.5-0.1c-0.1,0-0.3,0-0.5,0.1V367l0.7-0.8L227,366.2
						L227,366.2z"/>
					<path fill="#4FB280" d="M231.4,367.6v-0.6h0.8v0.6h0.4v0.7h-0.4v0.9h-0.8v-0.9h-1.5v-0.6l1.3-2.2h0.9l-1.3,2.1H231.4z"/>
					<path fill="#4FB280" d="M233.2,366.2v-0.7h2.3v0.6l-0.8,0.9c0.3,0,0.5,0.2,0.7,0.4c0.2,0.2,0.2,0.4,0.2,0.7
						c0,0.4-0.1,0.7-0.4,0.9c-0.3,0.2-0.6,0.3-1,0.3c-0.4,0-0.8-0.1-1.2-0.4l0.3-0.7c0.3,0.2,0.7,0.4,0.9,0.4c0.2,0,0.3,0,0.4-0.1
						c0.1-0.1,0.2-0.2,0.2-0.4c0-0.2-0.1-0.3-0.2-0.4c-0.1-0.1-0.3-0.1-0.5-0.1c-0.1,0-0.3,0-0.5,0.1V367l0.7-0.8L233.2,366.2
						L233.2,366.2z"/>
					<path fill="#4FB280" d="M237.6,367.6v-0.6h0.8v0.6h0.4v0.7h-0.4v0.9h-0.8v-0.9h-1.5v-0.6l1.3-2.2h0.9l-1.3,2.1H237.6z"/>
					<path fill="#4FB280" d="M240.9,369.2c-0.5,0-0.9-0.2-1.1-0.5c-0.3-0.3-0.4-0.8-0.4-1.4s0.1-1,0.4-1.4c0.3-0.3,0.6-0.5,1.1-0.5
						c0.5,0,0.9,0.2,1.1,0.5c0.3,0.3,0.4,0.8,0.4,1.4c0,0.6-0.1,1-0.4,1.4C241.8,369,241.4,369.2,240.9,369.2z M240.3,366.4
						c-0.1,0.2-0.2,0.5-0.2,0.9c0,0.4,0.1,0.7,0.2,0.9c0.1,0.2,0.3,0.3,0.5,0.3s0.4-0.1,0.5-0.3c0.1-0.2,0.2-0.5,0.2-0.9
						s-0.1-0.7-0.2-0.9c-0.1-0.2-0.3-0.3-0.5-0.3S240.4,366.2,240.3,366.4z"/>
					<path fill="#4FB280" d="M244.5,369.2c-0.5,0-0.9-0.2-1.1-0.5c-0.3-0.3-0.4-0.8-0.4-1.4s0.1-1,0.4-1.4c0.3-0.3,0.6-0.5,1.1-0.5
						c0.5,0,0.9,0.2,1.1,0.5s0.4,0.8,0.4,1.4c0,0.6-0.1,1-0.4,1.4C245.4,369,245,369.2,244.5,369.2z M244,366.4
						c-0.1,0.2-0.2,0.5-0.2,0.9c0,0.4,0.1,0.7,0.2,0.9c0.1,0.2,0.3,0.3,0.5,0.3s0.4-0.1,0.5-0.3c0.1-0.2,0.2-0.5,0.2-0.9
						s-0.1-0.7-0.2-0.9c-0.1-0.2-0.3-0.3-0.5-0.3S244.1,366.2,244,366.4z"/>
					<path fill="#4FB280" d="M248.2,369.2c-0.5,0-0.9-0.2-1.1-0.5c-0.3-0.3-0.4-0.8-0.4-1.4s0.1-1,0.4-1.4c0.3-0.3,0.6-0.5,1.1-0.5
						c0.5,0,0.9,0.2,1.1,0.5c0.3,0.3,0.4,0.8,0.4,1.4c0,0.6-0.1,1-0.4,1.4C249,369,248.7,369.2,248.2,369.2z M247.6,366.4
						c-0.1,0.2-0.2,0.5-0.2,0.9c0,0.4,0.1,0.7,0.2,0.9c0.1,0.2,0.3,0.3,0.5,0.3s0.4-0.1,0.5-0.3s0.2-0.5,0.2-0.9s-0.1-0.7-0.2-0.9
						c-0.1-0.2-0.3-0.3-0.5-0.3S247.7,366.2,247.6,366.4z"/>
					<path fill="#4FB280" d="M250.1,365.5h1.5v3.7h-0.8v-3h-0.7V365.5z"/>
					<path fill="#4FB280" d="M254,366.9c0.1-0.1,0.1-0.3,0.1-0.4c0-0.1,0-0.2-0.1-0.3c-0.1-0.1-0.2-0.1-0.3-0.1
						c-0.2,0-0.5,0.2-0.7,0.5l-0.7-0.4c0.2-0.3,0.4-0.5,0.6-0.6c0.2-0.1,0.5-0.2,0.8-0.2c0.3,0,0.6,0.1,0.8,0.3
						c0.2,0.2,0.4,0.5,0.4,0.8c0,0.2,0,0.4-0.1,0.5c-0.1,0.2-0.3,0.4-0.5,0.7l-0.7,0.7h1.5v0.7h-2.6v-0.6l1.1-1.1
						C253.7,367.2,253.9,367.1,254,366.9z"/>
					<path fill="#4FB280" d="M257.2,366.1c-0.2,0-0.4,0.1-0.5,0.2c-0.1,0.2-0.2,0.4-0.2,0.6c0.2-0.1,0.5-0.2,0.7-0.2
						c0.3,0,0.6,0.1,0.9,0.3c0.2,0.2,0.3,0.5,0.3,0.9c0,0.4-0.1,0.7-0.4,0.9c-0.2,0.2-0.6,0.3-0.9,0.3c-0.3,0-0.5,0-0.7-0.1
						c-0.2-0.1-0.3-0.2-0.4-0.4c-0.2-0.3-0.3-0.8-0.3-1.3c0-0.3,0-0.6,0.1-0.9c0.1-0.3,0.2-0.5,0.3-0.6c0.3-0.3,0.6-0.4,1-0.4
						c0.2,0,0.3,0,0.5,0.1c0.2,0.1,0.3,0.1,0.4,0.2c0.1,0.1,0.2,0.1,0.3,0.2l-0.4,0.6c0,0-0.1,0-0.1-0.1c0,0-0.1-0.1-0.2-0.1
						C257.4,366.1,257.3,366.1,257.2,366.1z M257.1,367.4c-0.2,0-0.3,0-0.4,0.1c-0.1,0.1-0.2,0.2-0.2,0.4c0,0.2,0.1,0.3,0.2,0.4
						c0.1,0.1,0.2,0.2,0.4,0.2s0.3,0,0.4-0.1c0.1-0.1,0.2-0.2,0.2-0.4c0-0.2,0-0.3-0.1-0.4C257.4,367.5,257.2,367.4,257.1,367.4z"/>
					<path fill="#4FB280" d="M258.9,366.7v-1.2h2.7v0.6l-1.5,3.1h-0.9l1.4-3h-0.9v0.5L258.9,366.7L258.9,366.7z"/>
					<path fill="#4FB280" d="M263.5,369.2c-0.5,0-0.9-0.2-1.1-0.5c-0.3-0.3-0.4-0.8-0.4-1.4s0.1-1,0.4-1.4c0.3-0.3,0.6-0.5,1.1-0.5
						c0.5,0,0.9,0.2,1.1,0.5c0.3,0.3,0.4,0.8,0.4,1.4c0,0.6-0.1,1-0.4,1.4C264.4,369,264,369.2,263.5,369.2z M263,366.4
						c-0.1,0.2-0.2,0.5-0.2,0.9c0,0.4,0.1,0.7,0.2,0.9c0.1,0.2,0.3,0.3,0.5,0.3s0.4-0.1,0.5-0.3s0.2-0.5,0.2-0.9s-0.1-0.7-0.2-0.9
						c-0.1-0.2-0.3-0.3-0.5-0.3S263.1,366.2,263,366.4z"/>
					<path fill="#4FB280" d="M267.2,369.2c-0.5,0-0.9-0.2-1.1-0.5c-0.3-0.3-0.4-0.8-0.4-1.4s0.1-1,0.4-1.4c0.3-0.3,0.6-0.5,1.1-0.5
						c0.5,0,0.9,0.2,1.1,0.5s0.4,0.8,0.4,1.4c0,0.6-0.1,1-0.4,1.4C268.1,369,267.7,369.2,267.2,369.2z M266.6,366.4
						c-0.1,0.2-0.2,0.5-0.2,0.9c0,0.4,0.1,0.7,0.2,0.9c0.1,0.2,0.3,0.3,0.5,0.3c0.2,0,0.4-0.1,0.5-0.3c0.1-0.2,0.2-0.5,0.2-0.9
						s-0.1-0.7-0.2-0.9c-0.1-0.2-0.3-0.3-0.5-0.3C266.9,366.1,266.7,366.2,266.6,366.4z"/>
					<path fill="#4FB280" d="M270.8,366.9c0.1-0.1,0.1-0.3,0.1-0.4c0-0.1,0-0.2-0.1-0.3c-0.1-0.1-0.2-0.1-0.3-0.1
						c-0.2,0-0.5,0.2-0.7,0.5l-0.7-0.4c0.2-0.3,0.4-0.5,0.6-0.6c0.2-0.1,0.5-0.2,0.8-0.2c0.3,0,0.6,0.1,0.8,0.3
						c0.2,0.2,0.4,0.5,0.4,0.8c0,0.2,0,0.4-0.1,0.5c-0.1,0.2-0.3,0.4-0.5,0.7l-0.7,0.7h1.5v0.7h-2.6v-0.6l1.1-1.1
						C270.6,367.2,270.7,367.1,270.8,366.9z"/>
				</g>
				<g>
					<path fill="#449D71" d="M203,341.1c0,0-0.1,0-0.1,0c-0.9-0.1-1.4-0.7-2-1.3c-0.6-0.7-1.2-1.4-2.4-1.9c-1-0.4-1.6,0-2.3,0.3
						c-0.6,0.3-1.2,0.6-1.9,0.3c-0.6-0.2-1.1-0.8-1.6-1.8c-0.4,0.3-0.7,0.9-1,1.4l-0.2,0.3c-0.2,0.4-0.6,0.5-1,0.3
						c-0.4-0.2-0.5-0.6-0.3-1l0.2-0.3c0.5-1,1.3-2.4,2.7-2.4c0,0,0,0,0,0c0.3,0,0.6,0.2,0.7,0.5c0.6,1.4,0.9,1.6,1,1.6
						c0.1,0,0.4-0.1,0.7-0.3c0.7-0.4,1.9-0.9,3.5-0.4c1.6,0.6,2.4,1.6,3.1,2.3c0.4,0.5,0.7,0.8,0.9,0.8c0.2,0,0.8-0.2,1.9-1.2
						c1.2-1.1,2-1.7,2.8-1.6c0.8,0.1,1.2,0.6,1.8,1.4c0.2,0.3,0.5,0.7,0.9,1.1c0.4-0.3,0.7-0.7,1.1-1.2c0.7-0.8,1.4-1.6,2.4-1.9
						c1.3-0.3,2.4,0.4,3.3,1c0.4,0.3,0.9,0.6,1.3,0.7c1,0.4,1.1,0.2,1.6-0.4c0.4-0.5,1-1.1,2-1.6c1.6-0.7,2.9,0.3,4,1.1
						c1,0.7,1.6,1.1,2.2,0.9c0.4-0.2,0.7-0.7,1.1-1.3c0.5-0.9,1.1-2.1,2.5-2.2c0.9-0.1,1.8,0.7,2.7,1.5c0.5,0.5,1.1,1,1.6,1.2
						c0.1,0,0.3-0.1,0.5-0.2c0.4-0.1,0.8-0.3,1.3-0.2c0.5,0.1,1,0.3,1.4,0.5c0.5,0.2,0.9,0.5,1.3,0.4c0.4-0.1,0.8,0.2,0.8,0.6
						c0.1,0.4-0.2,0.8-0.6,0.8c-0.9,0.1-1.6-0.2-2.2-0.5c-0.3-0.2-0.6-0.3-0.9-0.4c-0.1,0-0.4,0.1-0.6,0.2c-0.4,0.1-1,0.3-1.4,0.2
						c-0.7-0.2-1.4-0.9-2.1-1.5c-0.5-0.4-1.3-1.1-1.6-1.1h0c-0.6,0-0.9,0.6-1.3,1.4c-0.4,0.8-0.9,1.7-1.9,2
						c-1.4,0.5-2.6-0.3-3.6-1.1c-1.1-0.8-1.8-1.2-2.5-0.9c-0.7,0.3-1.1,0.7-1.5,1.2c-0.8,0.9-1.5,1.5-3.3,0.8
						c-0.6-0.2-1.1-0.6-1.6-0.9c-0.9-0.6-1.5-1-2.1-0.8c-0.6,0.1-1.1,0.8-1.6,1.4c-0.6,0.7-1.2,1.5-2.1,1.8
						c-0.3,0.1-0.6,0.1-0.8-0.2c-0.6-0.6-1-1.1-1.4-1.6c-0.3-0.3-0.7-0.8-0.8-0.8c-0.2,0-0.5,0.1-1.7,1.2
						C204.7,340.7,203.8,341.1,203,341.1z"/>
				</g>
				<g>
					<path fill="#449D71" d="M281.2,342.3c-0.1,0-0.2,0-0.3,0c-1.7-0.6-2.9-2.5-3.7-4.4c-0.3,1.7-0.9,3.3-2.4,4.1
						c-0.2,0.1-0.4,0.1-0.7,0c-1.9-0.8-2.9-3-2.6-5.7c0-0.4,0.4-0.7,0.8-0.7c0.4,0,0.7,0.4,0.7,0.8c-0.1,0.9-0.2,3,1.4,4
						c1.5-1.2,1.5-4.4,1.6-6.4l0-0.2c0-0.4,0.3-0.7,0.7-0.7c0.4,0,0.7,0.2,0.8,0.6c0.4,1.7,1.4,5.5,3.4,6.8c0.1-0.2,0.1-0.3,0.2-0.5
						c0.7-1.6,1.4-3.4,3.3-4c0.4-0.1,0.7,0,0.9,0.4c0.2,0.5,0.6,0.8,1,1.2c0.2,0.2,0.5,0.5,0.7,0.8c0.3,0.3,0.2,0.8-0.1,1
						c-0.3,0.3-0.8,0.2-1-0.1c-0.2-0.2-0.4-0.4-0.6-0.6c-0.3-0.3-0.6-0.6-0.9-1c-0.9,0.6-1.3,1.7-1.8,2.9c-0.2,0.4-0.4,0.9-0.6,1.3
						C281.8,342.1,281.5,342.3,281.2,342.3z"/>
				</g>
				<g>
					<path fill="#449D71" d="M290.8,342.5c-0.4,0-0.8-0.1-1.2-0.2c-0.3-0.1-0.5-0.4-0.5-0.7c0-1.6,0.5-3.8,1.8-4.9
						c0.3-0.3,0.8-0.2,1,0.1c0.1,0.1,0.1,0.1,0.1,0.2c0.1,0,0.1,0,0.2,0c0.2-0.4,0.4-0.7,0.8-0.9c1-0.6,2.5-0.2,3.7,0.1l0.4,0.1
						c0.3,0.1,0.5,0.3,0.5,0.5c0,0,0,0,0,0c0.7,0,1.5-0.1,2.2-0.1c1.8-0.1,3.7-0.2,5.6-0.2c0.4,0,0.7,0.4,0.7,0.8
						c0,0.4-0.3,0.7-0.7,0.7h0c-1.8,0-3.7,0.1-5.5,0.2c-0.6,0-1.3,0.1-2,0.1c0.1,1,0,1.9-0.6,2.4c-0.8,0.6-1.9,0.1-3-0.5
						c-0.1,0.3-0.3,0.6-0.5,0.9C293.1,341.8,292.1,342.5,290.8,342.5z M290.6,341c1.1,0.1,1.8-0.6,2-0.9c0.2-0.3,0.3-0.5,0.4-0.8
						c-0.1-0.1-0.2-0.1-0.3-0.2c-0.4-0.3-0.8-0.5-1.1-0.7c-0.1,0-0.1-0.1-0.2-0.1C291,339,290.7,340.1,290.6,341z M294.5,338.6
						c0.8,0.5,1.7,1,2,0.9c0,0,0.1-0.3,0-1.1c-0.7,0-1.4,0-2,0C294.4,338.5,294.5,338.5,294.5,338.6z"/>
				</g>
				<g>
					<path fill="#449D71" d="M207.7,356.9c-0.9,0-1.8-0.5-2.5-0.9c-0.7-0.4-1.4-0.8-2.2-0.8c-0.2,0-0.4,0.2-0.6,0.5
						c-0.5,0.5-1.2,1.2-2.6,0.9c-1-0.2-1.9-1.1-2.3-1.8c-0.3,0.2-0.6,0.4-0.9,0.7c-1,0.8-2.1,1.6-3.2,1.2c-1.1-0.4-1.5-1.8-1.7-2.7
						c-0.1-0.4,0.2-0.8,0.6-0.9c0.4-0.1,0.8,0.2,0.9,0.6c0.3,1.5,0.7,1.6,0.7,1.6c0.3,0.1,1.2-0.6,1.8-1c0.6-0.5,1.2-1,1.9-1.2
						c0.3-0.1,0.7,0,0.9,0.3c0.4,0.7,1.2,1.6,1.8,1.7c0.5,0.1,0.8-0.1,1.2-0.5c0.4-0.4,0.9-0.9,1.6-0.9c1.1,0,2.1,0.5,2.9,1
						c1.5,0.8,2.2,1.3,3.4-0.6c0.1-0.2,0.3-0.3,0.5-0.3c0.2,0,0.4,0,0.6,0.1c1.9,1.3,2.2,1.3,4.1,0.9l0.5-0.1c0.2,0,0.4-0.1,0.6-0.2
						c0.4-0.2,0.9-0.5,1.9-0.3c0.4,0.1,0.7,0.5,0.6,0.9c-0.1,0.4-0.5,0.7-0.9,0.6c-0.5-0.1-0.6,0-1,0.2c-0.2,0.1-0.5,0.3-1,0.3
						l-0.5,0.1c-2,0.4-2.8,0.4-4.6-0.8C209.3,356.5,208.5,356.9,207.7,356.9z"/>
				</g>
				<g>
					<path fill="#449D71" d="M271.3,363.5c-0.8,0-1.5-0.3-2.2-0.8c-0.6-0.5-1.1-1.3-1.4-2.2c-1.1,0.9-2.4,1.3-3.7,0.9
						c-2.4-0.8-2.3-3.9-2.2-6c0-0.4,0-0.7,0-0.9c0-0.4,0.3-0.7,0.7-0.7c0,0,0,0,0,0c0.4,0,0.7,0.3,0.7,0.7c0,0.3,0,0.6,0,1
						c-0.1,2.1-0.1,4.1,1.2,4.5c1,0.3,2-0.2,2.9-1.1c-0.5-2.9-0.1-6.5,0.8-8c0.2-0.3,0.6-0.5,1-0.3c1.9,0.9,2.4,3.4,1.2,6.3
						c-0.4,0.9-0.8,1.7-1.4,2.4c0.2,1,0.6,1.9,1.1,2.3c0.6,0.5,1.3,0.6,1.9,0.4c1-0.4,2-1.6,2.8-3.1c-0.7-3.1-0.1-7,0.6-8.6
						c0.1-0.2,0.3-0.4,0.5-0.4c0.2-0.1,0.5,0,0.6,0.1c1.1,0.9,1.5,2.6,1.1,5c-0.2,1.3-0.7,2.8-1.3,4.1c0.1,0.3,0.2,0.6,0.3,0.9
						c0.4,0.8,0.9,1.2,1.5,1.4c1,0.2,1.9-0.1,2.7-1c0.8-0.9,1.3-2.3,1.5-3.7c0,0-0.1-0.1-0.1-0.1c-0.9-0.9-1.5-2.9-0.2-5.2
						c0.1-0.2,0.4-0.4,0.7-0.4c0.3,0,0.5,0.2,0.6,0.4c0.2,0.4,0.4,1,0.5,1.6c0.3-0.1,0.6-0.1,1.1-0.1c0.4,0,0.7,0.3,0.7,0.6
						c0.2,1.1,0.1,1.9-0.1,2.5c0.4,0.2,0.8,0.3,0.9,0.2c0.1-0.1,0.2-0.3,0.3-0.8c0-0.2,0-0.5,0-0.8c0-0.4,0.3-0.7,0.8-0.6
						c0.4,0,0.7,0.3,0.7,0.7c0,0.2,0,0.5,0,0.7c0,0.1,0,0.1,0,0.2c0,0,0,0,0,0c5.6,0.5,9.4-0.2,10.9-2.1c0.3-0.3,0.7-0.3,1-0.1
						c0.3,0.3,0.3,0.7,0.1,1c-2,2.3-6.2,3.1-12.6,2.5c-0.2,0.3-0.4,0.4-0.7,0.6c-0.8,0.4-1.7,0.1-2.5-0.4c0,0,0,0-0.1,0
						c-0.3,0.1-0.5,0.2-0.8,0.2c-0.3,1.5-0.9,2.9-1.7,4c-1.1,1.4-2.6,1.9-4.1,1.5c-1.1-0.3-1.9-0.9-2.5-2.1
						c-0.8,1.2-1.8,2.2-2.9,2.6C272.1,363.4,271.7,363.5,271.3,363.5z M269,352.3c-0.4,1.2-0.5,2.9-0.4,4.6c0.1-0.2,0.2-0.5,0.3-0.7
						C269.5,354.9,269.7,353.3,269,352.3z M276.3,352.5c-0.2,1-0.3,2.1-0.3,3.3c0.1-0.4,0.2-0.8,0.2-1.2
						C276.3,353.8,276.4,353.1,276.3,352.5z"/>
				</g>
			</g>
			<g>
				<g>
					<path fill="#DEEFE6" d="M184.1,333.9c3.9,0,7.1,3.2,7.1,7.1l0,0c0,3.9-3.2,7.1-7.1,7.1h-39.7c-3.9,0-7.1-3.2-7.1-7.1l0,0
						c0-3.9,3.2-7.1,7.1-7.1L184.1,333.9L184.1,333.9z"/>
				</g>
				<g>
					<path fill="#DEEFE6" d="M189.3,349.5c3.9,0,7.1,3.2,7.1,7.1l0,0c0,3.9-3.2,7.1-7.1,7.1h-44.9c-3.9,0-7.1-3.2-7.1-7.1l0,0
						c0-3.9,3.2-7.1,7.1-7.1H189.3z"/>
				</g>
				<g>
					<path fill="#DEEFE6" d="M184.1,365.1c3.9,0,7.1,3.2,7.1,7.1l0,0c0,3.9-3.2,7.1-7.1,7.1h-39.7c-3.9,0-7.1-3.2-7.1-7.1l0,0
						c0-3.9,3.2-7.1,7.1-7.1L184.1,365.1L184.1,365.1z"/>
				</g>
				<g>
					<path fill="#DEEFE6" d="M180,380.7c3.3,0,6.1,2.7,6.1,6.1l0,0c0,3.3-2.7,6.1-6.1,6.1h-36.7c-3.3,0-6.1-2.7-6.1-6.1l0,0
						c0-3.3,2.7-6.1,6.1-6.1L180,380.7L180,380.7z"/>
				</g>
				<g>
					<path fill="#BAE0CC" d="M183.9,336c2.8,0,5.1,2.3,5.1,5.1l0,0c0,2.8-2.3,5.1-5.1,5.1h-1.7V336H183.9z"/>
				</g>
				<g>
					<path fill="#BAE0CC" d="M183.9,367.1c2.8,0,5.1,2.3,5.1,5.1l0,0c0,2.8-2.3,5.1-5.1,5.1h-1.7v-10.2H183.9z"/>
				</g>
				<g>
					<path fill="#BAE0CC" d="M188.9,351.6c2.8,0,5.1,2.3,5.1,5.1l0,0c0,2.8-2.3,5.1-5.1,5.1h-1.7v-10.2L188.9,351.6L188.9,351.6z"/>
				</g>
				<g>
					<path fill="#BAE0CC" d="M179.6,382.7c2.2,0,4.1,1.8,4.1,4.1l0,0c0,2.2-1.8,4.1-4.1,4.1h-1.4v-8.1H179.6z"/>
				</g>
				<g>
					<g>
						<path fill="#BAE0CC" d="M164,345.1c-0.4,0-0.7-0.3-0.7-0.7v-6.5c0-0.4,0.3-0.7,0.7-0.7s0.7,0.3,0.7,0.7v6.5
							C164.7,344.8,164.4,345.1,164,345.1z"/>
					</g>
					<g>
						<path fill="#BAE0CC" d="M167.1,345.1c-0.4,0-0.7-0.3-0.7-0.7v-6.5c0-0.4,0.3-0.7,0.7-0.7s0.7,0.3,0.7,0.7v6.5
							C167.9,344.8,167.5,345.1,167.1,345.1z"/>
					</g>
				</g>
				<g>
					<g>
						<path fill="#BAE0CC" d="M164,360.7c-0.4,0-0.7-0.3-0.7-0.7v-6.5c0-0.4,0.3-0.7,0.7-0.7s0.7,0.3,0.7,0.7v6.5
							C164.7,360.3,164.4,360.7,164,360.7z"/>
					</g>
					<g>
						<path fill="#BAE0CC" d="M167.1,360.7c-0.4,0-0.7-0.3-0.7-0.7v-6.5c0-0.4,0.3-0.7,0.7-0.7s0.7,0.3,0.7,0.7v6.5
							C167.9,360.3,167.5,360.7,167.1,360.7z"/>
					</g>
				</g>
				<g>
					<g>
						<path fill="#BAE0CC" d="M164,376.3c-0.4,0-0.7-0.3-0.7-0.7V369c0-0.4,0.3-0.7,0.7-0.7s0.7,0.3,0.7,0.7v6.5
							C164.7,375.9,164.4,376.3,164,376.3z"/>
					</g>
					<g>
						<path fill="#BAE0CC" d="M167.1,376.3c-0.4,0-0.7-0.3-0.7-0.7V369c0-0.4,0.3-0.7,0.7-0.7s0.7,0.3,0.7,0.7v6.5
							C167.9,375.9,167.5,376.3,167.1,376.3z"/>
					</g>
				</g>
				<g>
					<g>
						<path fill="#BAE0CC" d="M164,390.8c-0.4,0-0.7-0.3-0.7-0.7v-6.5c0-0.4,0.3-0.7,0.7-0.7s0.7,0.3,0.7,0.7v6.5
							C164.7,390.5,164.4,390.8,164,390.8z"/>
					</g>
					<g>
						<path fill="#BAE0CC" d="M167.1,390.8c-0.4,0-0.7-0.3-0.7-0.7v-6.5c0-0.4,0.3-0.7,0.7-0.7s0.7,0.3,0.7,0.7v6.5
							C167.9,390.5,167.5,390.8,167.1,390.8z"/>
					</g>
				</g>
				<g>
					<rect x="140.3" y="337.8" fill="#DEEFE6" width="14.5" height="51"/>
				</g>
			</g>
			<g>
				<g>
					<path fill="#DEEFE6" d="M308.2,333.9c-3.9,0-7.1,3.2-7.1,7.1l0,0c0,3.9,3.2,7.1,7.1,7.1h39.7c3.9,0,7.1-3.2,7.1-7.1l0,0
						c0-3.9-3.2-7.1-7.1-7.1L308.2,333.9L308.2,333.9z"/>
				</g>
				<g>
					<path fill="#DEEFE6" d="M303,349.5c-3.9,0-7.1,3.2-7.1,7.1l0,0c0,3.9,3.2,7.1,7.1,7.1h44.9c3.9,0,7.1-3.2,7.1-7.1l0,0
						c0-3.9-3.2-7.1-7.1-7.1H303z"/>
				</g>
				<g>
					<path fill="#DEEFE6" d="M308.2,365.1c-3.9,0-7.1,3.2-7.1,7.1l0,0c0,3.9,3.2,7.1,7.1,7.1h39.7c3.9,0,7.1-3.2,7.1-7.1l0,0
						c0-3.9-3.2-7.1-7.1-7.1L308.2,365.1L308.2,365.1z"/>
				</g>
				<g>
					<path fill="#DEEFE6" d="M312.3,380.7c-3.3,0-6.1,2.7-6.1,6.1l0,0c0,3.3,2.7,6.1,6.1,6.1H349c3.3,0,6.1-2.7,6.1-6.1l0,0
						c0-3.3-2.7-6.1-6.1-6.1L312.3,380.7L312.3,380.7z"/>
				</g>
				<g>
					<path fill="#BAE0CC" d="M308.4,336c-2.8,0-5.1,2.3-5.1,5.1l0,0c0,2.8,2.3,5.1,5.1,5.1h1.7V336H308.4z"/>
				</g>
				<g>
					<path fill="#BAE0CC" d="M308.4,367.1c-2.8,0-5.1,2.3-5.1,5.1l0,0c0,2.8,2.3,5.1,5.1,5.1h1.7v-10.2H308.4z"/>
				</g>
				<g>
					<path fill="#BAE0CC" d="M303.4,351.6c-2.8,0-5.1,2.3-5.1,5.1l0,0c0,2.8,2.3,5.1,5.1,5.1h1.7v-10.2L303.4,351.6L303.4,351.6z"/>
				</g>
				<g>
					<path fill="#BAE0CC" d="M312.7,382.7c-2.2,0-4.1,1.8-4.1,4.1l0,0c0,2.2,1.8,4.1,4.1,4.1h1.4v-8.1H312.7z"/>
				</g>
				<g>
					<g>
						<path fill="#BAE0CC" d="M328.3,345.1c-0.4,0-0.7-0.3-0.7-0.7v-6.5c0-0.4,0.3-0.7,0.7-0.7c0.4,0,0.7,0.3,0.7,0.7v6.5
							C329.1,344.8,328.7,345.1,328.3,345.1z"/>
					</g>
					<g>
						<path fill="#BAE0CC" d="M325.2,345.1c-0.4,0-0.7-0.3-0.7-0.7v-6.5c0-0.4,0.3-0.7,0.7-0.7c0.4,0,0.7,0.3,0.7,0.7v6.5
							C325.9,344.8,325.6,345.1,325.2,345.1z"/>
					</g>
				</g>
				<g>
					<g>
						<path fill="#BAE0CC" d="M328.3,360.7c-0.4,0-0.7-0.3-0.7-0.7v-6.5c0-0.4,0.3-0.7,0.7-0.7c0.4,0,0.7,0.3,0.7,0.7v6.5
							C329.1,360.3,328.7,360.7,328.3,360.7z"/>
					</g>
					<g>
						<path fill="#BAE0CC" d="M325.2,360.7c-0.4,0-0.7-0.3-0.7-0.7v-6.5c0-0.4,0.3-0.7,0.7-0.7c0.4,0,0.7,0.3,0.7,0.7v6.5
							C325.9,360.3,325.6,360.7,325.2,360.7z"/>
					</g>
				</g>
				<g>
					<g>
						<path fill="#BAE0CC" d="M328.3,376.3c-0.4,0-0.7-0.3-0.7-0.7V369c0-0.4,0.3-0.7,0.7-0.7c0.4,0,0.7,0.3,0.7,0.7v6.5
							C329.1,375.9,328.7,376.3,328.3,376.3z"/>
					</g>
					<g>
						<path fill="#BAE0CC" d="M325.2,376.3c-0.4,0-0.7-0.3-0.7-0.7V369c0-0.4,0.3-0.7,0.7-0.7c0.4,0,0.7,0.3,0.7,0.7v6.5
							C325.9,375.9,325.6,376.3,325.2,376.3z"/>
					</g>
				</g>
				<g>
					<g>
						<path fill="#BAE0CC" d="M328.3,390.8c-0.4,0-0.7-0.3-0.7-0.7v-6.5c0-0.4,0.3-0.7,0.7-0.7c0.4,0,0.7,0.3,0.7,0.7v6.5
							C329.1,390.5,328.7,390.8,328.3,390.8z"/>
					</g>
					<g>
						<path fill="#BAE0CC" d="M325.2,390.8c-0.4,0-0.7-0.3-0.7-0.7v-6.5c0-0.4,0.3-0.7,0.7-0.7c0.4,0,0.7,0.3,0.7,0.7v6.5
							C325.9,390.5,325.6,390.8,325.2,390.8z"/>
					</g>
				</g>
				<g>
					<rect x="337.5" y="337.8" fill="#DEEFE6" width="14.5" height="51"/>
				</g>
			</g>
		</g>
		<g>
			<path fill="#3E9168" d="M468.1,385.9H27.5V89.5h440.6V385.9z M37.9,375.5h419.9V99.8H37.9V375.5z"/>
		</g>
		<g>
			<polygon fill="#4FB280" points="32.7,62.4 32.7,412.9 0.4,412.8 0.4,62.4 			"/>
		</g>
		<g>
			<polygon fill="#4FB280" points="495.5,62.4 495.5,412.9 463.2,412.8 463.2,62.4 			"/>
		</g>
		<g>
			<polygon fill="#74C29A" points="463.6,94.7 33.5,94.7 1,62.4 496.1,62.4 			"/>
		</g>
		<g>
			<polygon fill="#449D71" points="33,380.7 463,380.7 495.5,413 0.4,413 			"/>
		</g>
		<g>
			<circle fill="#3E9168" cx="243.8" cy="8" r="8"/>
		</g>
		<g>
			<path fill="none" stroke="#74C29A" stroke-width="3" stroke-linecap="round" stroke-linejoin="round" stroke-miterlimit="10" d="
				M236.2,320.8"/>
		</g>
		<g>
			<path fill="#449D71" d="M420.9,199.6c-0.4,0-0.8-0.1-1-0.4c-1.9-1.9-2.9-4.3-2.9-7c0-2.6,1-5.1,2.9-7l0.2-0.2
				c2.6-2.6,2.6-7-0.1-9.7l-0.1-0.1c-2-1.9-3-4.4-3-7.1c0-0.8,0.7-1.5,1.5-1.5h0c0.8,0,1.5,0.7,1.5,1.5c0,1.8,0.7,3.6,2,4.9l0.1,0.1
				c3.9,3.9,3.9,10.2,0.1,14.1l-0.2,0.2c-1.3,1.3-2,3-2,4.8c0,1.8,0.7,3.6,2,4.9c0.6,0.6,0.6,1.5,0,2.1
				C421.6,199.5,421.3,199.6,420.9,199.6z"/>
		</g>
		<g>
			<path fill="#449D71" d="M57.2,158.1c-0.4,0-0.8-0.1-1-0.4c-1.9-1.9-2.9-4.3-2.9-7c0-2.6,1-5.1,2.9-7l0.2-0.2
				c2.6-2.6,2.6-7-0.1-9.7l-0.1-0.1c-2-1.9-3-4.4-3-7.1c0-0.8,0.7-1.5,1.5-1.5h0c0.8,0,1.5,0.7,1.5,1.5c0,1.8,0.7,3.6,2,4.9l0.1,0.1
				c3.9,3.9,3.9,10.2,0.1,14.1l-0.2,0.2c-1.3,1.3-2,3-2,4.8c0,1.8,0.7,3.6,2,4.9c0.6,0.6,0.6,1.5,0,2.1
				C58,157.9,57.6,158.1,57.2,158.1z"/>
		</g>
		<g>
			<polygon fill="#4FB280" points="432.7,129.2 434.3,132.3 437.8,132.8 435.3,135.3 435.9,138.8 432.7,137.1 429.6,138.8 
				430.2,135.3 427.7,132.8 431.2,132.3 			"/>
			<path fill="#4FB280" d="M436.8,140.1l-4.1-2.2l-4.1,2.2l0.8-4.6l-3.3-3.2l4.6-0.7l2.1-4.2l2.1,4.2l4.6,0.7l-3.3,3.2L436.8,140.1z
				 M429.3,133.3l1.7,1.7l-0.4,2.4l2.1-1.1l2.1,1.1l-0.4-2.4l1.7-1.7l-2.4-0.3l-1.1-2.2l-1.1,2.2L429.3,133.3z"/>
		</g>
		<g>
			<polygon fill="#4FB280" points="182.7,178.6 183.2,182 186.4,183.6 183.3,185.2 182.8,188.7 180.3,186.2 176.8,186.8 
				178.4,183.7 176.8,180.5 180.3,181.1 			"/>
			<path fill="#4FB280" d="M183.3,190.3l-3.3-3.3l-4.6,0.8l2.1-4.1l-2.2-4.1l4.6,0.7l3.2-3.4l0.7,4.6l4.2,2l-4.1,2.1L183.3,190.3z
				 M180.6,185.4l1.7,1.7l0.3-2.4l2.2-1.1l-2.2-1.1l-0.4-2.4l-1.7,1.8l-2.4-0.4l1.1,2.1l-1.1,2.2L180.6,185.4z"/>
		</g>
	</g>
</g>
</svg>
