<?xml version="1.0" encoding="utf-8"?>
<!-- Generator: Adobe Illustrator 17.1.0, SVG Export Plug-In . SVG Version: 6.00 Build 0)  -->
<!DOCTYPE svg PUBLIC "-//W3C//DTD SVG 1.1//EN" "http://www.w3.org/Graphics/SVG/1.1/DTD/svg11.dtd">
<svg version="1.1" id="Layer_1" xmlns="http://www.w3.org/2000/svg" xmlns:xlink="http://www.w3.org/1999/xlink" x="0px" y="0px"
	 width="612px" height="572.4px" viewBox="0 0 612 572.4" enable-background="new 0 0 612 572.4" xml:space="preserve">
<g>
	<path fill="#EEEEEE" d="M611,556.3c0,7.4-6,13.4-13.4,13.4H14.4c-7.4,0-13.4-6-13.4-13.4V13.4C1,6,7,0,14.4,0h583.1
		C605,0,611,6,611,13.4V556.3"/>
	<path fill="#CCCCCC" d="M611,16.1v540.1c0,7.4-6,13.4-13.4,13.4H14.4c-7.4,0-13.4-6-13.4-13.4v2.7c0,7.4,6,13.4,13.4,13.4h583.1
		c7.4,0,13.4-6,13.4-13.4L611,16.1"/>
	<path fill="#BEBEBE" d="M597.6,2.7H14.4C7,2.7,1,8.7,1,16.1v540.1c0,7.4,6,13.4,13.4,13.4h583.1c7.4,0,13.4-6,13.4-13.4V16.1
		C611,8.7,605,2.7,597.6,2.7"/>
	<path fill="#EAEAEA" d="M611,556.3c0,7.4-6,13.4-13.4,13.4H14.4c-7.4,0-13.4-6-13.4-13.4V13.4C1,6,7,0,14.4,0h583.1
		C605,0,611,6,611,13.4V556.3z"/>
	<path fill="#3F9268" d="M111.8,472.9H490c3.7,0,6.7,3,6.7,6.7v40.3c0,3.7-3,6.7-6.7,6.7H111.8c-3.7,0-6.7-3-6.7-6.7v-40.3
		C105,475.9,108,472.9,111.8,472.9z"/>
	<path fill="#50B380" d="M111.8,468.9H490c3.7,0,6.7,3,6.7,6.7v40.3c0,3.7-3,6.7-6.7,6.7H111.8c-3.7,0-6.7-3-6.7-6.7v-40.3
		C105,471.9,108,468.9,111.8,468.9z"/>
	<path fill="#FFFFFF" d="M360.9,500.7c0.4,0,0.7-0.1,1-0.4s0.4-0.6,0.4-1c0-0.4-0.1-0.7-0.4-1c-0.3-0.3-0.6-0.4-1-0.4
		s-0.7,0.1-1,0.4c-0.3,0.3-0.4,0.6-0.4,1s0.1,0.7,0.4,1C360.2,500.6,360.5,500.7,360.9,500.7z M359.5,491.3l0.5,5.8h1.9l0.5-5.8v-2
		h-2.9V491.3z M350.7,498.3h-1.6v-6.9h1.4c1.3,0,2.2,0.3,2.8,0.9s0.9,1.4,0.9,2.6s-0.3,2-0.9,2.5S351.8,498.3,350.7,498.3z
		 M350.5,489.3h-4v11.3h3.9c2.1,0,3.7-0.5,4.8-1.5c1-1,1.6-2.4,1.6-4.2s-0.5-3.1-1.6-4.1S352.6,489.3,350.5,489.3z M335.1,489.3
		v11.3h8.3v-2.2h-5.8V496h5v-2.1h-5v-2.3h5.6v-2.2H335.1z M332.7,491.5v-2.2h-8.9v2.2h3.2v9.1h2.5v-9.1H332.7z M316.7,494.8h-1.8
		v-3.3h1.9c0.8,0,1.4,0.1,1.7,0.3c0.3,0.2,0.5,0.6,0.5,1.2s-0.2,1.1-0.5,1.3S317.6,494.8,316.7,494.8z M320.4,490.2
		c-0.7-0.6-2-0.9-3.7-0.9h-4.3v11.3h2.5V497h1.7l2.5,3.6h3.1l-2.9-4c1.4-0.5,2.1-1.7,2.1-3.5C321.5,491.7,321.2,490.8,320.4,490.2z
		 M305.5,495.9h-2.8l1.4-3.3L305.5,495.9z M310.2,500.6l-4.9-11.3h-2.4l-4.9,11.3h2.7l1-2.4h4.7l1,2.4H310.2z M297.9,491.5v-2.2H289
		v2.2h3.2v9.1h2.5v-9.1H297.9z M282.5,491.2c1,0,2.1,0.4,3,1.1l1.3-1.8c-0.6-0.5-1.2-0.8-2-1.1c-0.8-0.3-1.5-0.4-2.3-0.4
		c-1.1,0-2.1,0.3-2.9,0.9c-0.8,0.6-1.2,1.4-1.2,2.5s0.3,1.9,0.9,2.4c0.6,0.5,1.6,0.9,2.9,1.2c0.8,0.2,1.4,0.4,1.7,0.6
		c0.3,0.2,0.4,0.5,0.4,0.8c0,0.3-0.1,0.6-0.4,0.8c-0.3,0.2-0.6,0.3-1.1,0.3c-1,0-2.2-0.5-3.4-1.6l-1.5,1.8c1.4,1.3,3,2,4.8,2
		c1.2,0,2.2-0.3,3-0.9s1.1-1.4,1.1-2.5c0-1-0.3-1.8-0.9-2.3c-0.6-0.5-1.4-0.9-2.5-1.2c-1.1-0.3-1.8-0.5-2-0.7
		c-0.3-0.2-0.4-0.5-0.4-0.8c0-0.3,0.1-0.6,0.4-0.8C281.7,491.4,282.1,491.2,282.5,491.2z M271.2,491.5v-2.2h-8.9v2.2h3.2v9.1h2.5
		v-9.1H271.2z M251.9,489.3v11.3h8.3v-2.2h-5.8V496h5v-2.1h-5v-2.3h5.6v-2.2H251.9z M246.2,497.9c-0.6,0.3-1.3,0.5-2.2,0.5
		s-1.6-0.3-2.2-1s-0.9-1.5-0.9-2.6s0.3-1.9,1-2.6c0.7-0.6,1.5-1,2.4-1c0.5,0,1,0.1,1.4,0.2c0.4,0.2,0.9,0.5,1.4,0.9l1.3-1.9
		c-1.2-1.1-2.6-1.6-4.2-1.6s-3,0.6-4.1,1.7c-1.1,1.1-1.7,2.5-1.7,4.2c0,1.7,0.6,3.1,1.7,4.2c1.1,1.1,2.5,1.6,4.2,1.6
		c2,0,3.5-0.6,4.6-1.9v-4h-2.5L246.2,497.9L246.2,497.9z"/>
	<path fill="#555555" d="M463.3,318.4c0.5,0,0.9-0.2,1.2-0.5c0.3-0.3,0.5-0.7,0.5-1.2s-0.2-0.9-0.5-1.2c-0.3-0.3-0.7-0.5-1.2-0.5
		s-0.9,0.2-1.2,0.5c-0.3,0.3-0.5,0.7-0.5,1.2s0.2,0.9,0.5,1.2C462.4,318.2,462.8,318.4,463.3,318.4z M457,312.2h-4.4
		c0.1-0.6,0.3-1,0.8-1.4c0.5-0.3,1-0.5,1.5-0.5c0.6,0,1,0.2,1.4,0.5S456.9,311.6,457,312.2z M457.5,315c-0.6,0.7-1.5,1-2.4,1
		c-0.6,0-1.2-0.2-1.7-0.5c-0.5-0.4-0.8-0.8-0.9-1.4h7.4v-1.5c0-1.5-0.5-2.6-1.5-3.5c-1-0.8-2.2-1.3-3.5-1.3c-1.4,0-2.6,0.5-3.6,1.4
		c-1,0.9-1.5,2.2-1.5,3.8c0,1.6,0.5,2.9,1.5,3.8c1,0.9,2.3,1.4,3.8,1.4s2.9-0.5,4-1.6L457.5,315z M447.8,310.1v-2h-2.4v-3h-2.8v3
		h-1.2v2h1.2v4.7c0,1.1,0.3,2,1,2.6s1.5,1,2.5,1c1,0,1.9-0.4,2.8-1.2l-1.1-2c-0.4,0.5-0.8,0.7-1.3,0.7c-0.3,0-0.5-0.1-0.7-0.3
		c-0.2-0.2-0.3-0.5-0.3-0.9v-4.5H447.8z M437.2,312.2h-4.4c0.1-0.6,0.3-1,0.8-1.4c0.5-0.3,1-0.5,1.5-0.5c0.6,0,1,0.2,1.4,0.5
		S437.2,311.6,437.2,312.2z M437.7,315c-0.6,0.7-1.5,1-2.4,1c-0.6,0-1.2-0.2-1.7-0.5c-0.5-0.4-0.8-0.8-0.9-1.4h7.4v-1.5
		c0-1.5-0.5-2.6-1.5-3.5c-1-0.8-2.2-1.3-3.5-1.3c-1.4,0-2.6,0.5-3.6,1.4c-1,0.9-1.5,2.2-1.5,3.8c0,1.6,0.5,2.9,1.5,3.8
		c1,0.9,2.3,1.4,3.8,1.4s2.9-0.5,4-1.6L437.7,315z M427.8,304.3H425v14h2.8V304.3z M415.9,311.1c0.5-0.5,1-0.8,1.7-0.8
		c0.7,0,1.2,0.3,1.7,0.8s0.7,1.2,0.7,2.1s-0.2,1.5-0.7,2s-1.1,0.8-1.7,0.8s-1.2-0.3-1.7-0.8c-0.5-0.5-0.7-1.2-0.7-2
		S415.5,311.7,415.9,311.1z M415.3,309.2v-1.1h-2.8v13.8h2.8v-5c0.8,1,1.7,1.5,3,1.5s2.3-0.5,3.2-1.5c0.9-1,1.4-2.3,1.4-3.7
		s-0.5-2.7-1.4-3.7s-2-1.5-3.1-1.5C417.2,307.9,416.2,308.4,415.3,309.2z M403.9,311c0.4-0.4,0.9-0.6,1.5-0.6c1.1,0,1.7,0.8,1.7,2.3
		v5.5h2.8v-6.2c0-1.3-0.4-2.4-1.1-3.1c-0.7-0.7-1.7-1.1-2.9-1.1c-0.7,0-1.3,0.2-2,0.5c-0.7,0.3-1.2,0.8-1.6,1.4
		c-0.3-0.5-0.7-1-1.2-1.4c-0.5-0.4-1.1-0.6-1.7-0.6c-1,0-1.9,0.4-2.7,1.3v-1.1H394v10.1h2.8v-5.5c0-0.8,0.2-1.4,0.6-1.8
		c0.4-0.4,0.9-0.6,1.4-0.6c0.5,0,0.9,0.2,1.2,0.6c0.2,0.4,0.4,1,0.4,1.8v5.5h2.8v-5.5C403.3,312,403.5,311.4,403.9,311z
		 M390.4,309.5c-1-1-2.3-1.5-3.8-1.5c-1.5,0-2.8,0.5-3.8,1.5c-1,1-1.5,2.2-1.5,3.7c0,1.5,0.5,2.7,1.5,3.7c1,1,2.3,1.5,3.8,1.5
		c1.5,0,2.8-0.5,3.8-1.5c1-1,1.5-2.2,1.5-3.7C391.9,311.7,391.4,310.5,390.4,309.5z M384.7,311.1c0.5-0.5,1.1-0.8,1.8-0.8
		c0.7,0,1.3,0.3,1.8,0.8c0.5,0.5,0.7,1.2,0.7,2c0,0.8-0.2,1.5-0.7,2c-0.5,0.5-1.1,0.8-1.8,0.8s-1.3-0.3-1.8-0.8
		c-0.5-0.5-0.7-1.2-0.7-2C384,312.3,384.3,311.7,384.7,311.1z M374,315.2c-0.5-0.5-0.8-1.1-0.8-2s0.3-1.5,0.8-2
		c0.5-0.5,1.2-0.7,1.9-0.7c0.5,0,0.9,0.1,1.4,0.3s0.9,0.5,1.2,0.9l1.5-1.9c-0.6-0.6-1.2-1-2-1.3s-1.5-0.5-2.2-0.5
		c-1.5,0-2.7,0.5-3.8,1.5c-1.1,1-1.6,2.2-1.6,3.8s0.5,2.8,1.6,3.8c1,1,2.3,1.4,3.8,1.4s2.9-0.7,4.2-2l-1.7-1.9
		c-0.8,0.9-1.6,1.4-2.5,1.4C375.1,315.9,374.5,315.6,374,315.2z M362.8,312.9c-0.4-0.2-0.7-0.4-1-0.5s-0.7-0.3-1.4-0.5
		c-0.6-0.2-1.1-0.4-1.4-0.5c-0.3-0.1-0.4-0.4-0.4-0.6c0-0.5,0.4-0.7,1.3-0.7c0.9,0,1.7,0.3,2.6,0.9l1.1-1.9
		c-1.2-0.8-2.4-1.2-3.6-1.2s-2.2,0.3-2.9,0.9c-0.8,0.6-1.1,1.4-1.1,2.3c0,0.9,0.4,1.6,1.1,2.1c0.4,0.2,0.7,0.4,1,0.5
		c0.3,0.1,0.7,0.3,1.3,0.5c0.6,0.2,1,0.4,1.3,0.6c0.3,0.2,0.4,0.4,0.4,0.7s-0.1,0.4-0.3,0.6c-0.2,0.1-0.5,0.2-0.9,0.2
		c-1.2,0-2.3-0.4-3.4-1.2l-1.2,1.8c0.7,0.5,1.4,0.9,2.2,1.2c0.8,0.3,1.6,0.4,2.4,0.4c1.1,0,2.1-0.3,2.8-0.9c0.7-0.6,1.1-1.4,1.1-2.4
		C363.9,314.1,363.5,313.4,362.8,312.9z M352.2,307.3c0.5,0,0.9-0.2,1.2-0.5c0.3-0.3,0.5-0.7,0.5-1.2s-0.2-0.9-0.5-1.2
		c-0.3-0.3-0.7-0.5-1.2-0.5s-0.9,0.2-1.2,0.5c-0.3,0.3-0.5,0.7-0.5,1.2s0.2,0.9,0.5,1.2C351.3,307.1,351.7,307.3,352.2,307.3z
		 M353.6,308.1h-2.8v10.1h2.8V308.1z M340.9,312.2h-4.4c0.1-0.6,0.3-1,0.8-1.4c0.5-0.3,1-0.5,1.5-0.5c0.6,0,1,0.2,1.4,0.5
		S340.8,311.6,340.9,312.2z M341.3,315c-0.6,0.7-1.5,1-2.4,1c-0.6,0-1.2-0.2-1.7-0.5c-0.5-0.4-0.8-0.8-0.9-1.4h7.4v-1.5
		c0-1.5-0.5-2.6-1.5-3.5c-1-0.8-2.2-1.3-3.5-1.3c-1.4,0-2.6,0.5-3.6,1.4c-1,0.9-1.5,2.2-1.5,3.8c0,1.6,0.5,2.9,1.5,3.8
		c1,0.9,2.3,1.4,3.8,1.4s2.9-0.5,4-1.6L341.3,315z M331.5,304.3h-2.8v14h2.8V304.3z M324.6,307.3c0.5,0,0.9-0.2,1.2-0.5
		c0.3-0.3,0.5-0.7,0.5-1.2s-0.2-0.9-0.5-1.2c-0.3-0.3-0.7-0.5-1.2-0.5s-0.9,0.2-1.2,0.5c-0.3,0.3-0.5,0.7-0.5,1.2s0.2,0.9,0.5,1.2
		C323.7,307.1,324.1,307.3,324.6,307.3z M326,308.1h-2.8v10.1h2.8V308.1z M319.3,306.6c0.2-0.2,0.4-0.3,0.7-0.3c0.5,0,1,0.2,1.4,0.7
		l1-1.9c-0.8-0.8-1.7-1.1-2.7-1.1s-1.8,0.3-2.5,1c-0.7,0.6-1,1.5-1,2.6v0.6H315v2h1.2v8h2.8v-8h2.4v-2H319v-0.7
		C319,307.1,319.1,306.8,319.3,306.6z M312.2,309.5c-1-1-2.3-1.5-3.8-1.5c-1.5,0-2.8,0.5-3.8,1.5c-1,1-1.5,2.2-1.5,3.7
		c0,1.5,0.5,2.7,1.5,3.7c1,1,2.3,1.5,3.8,1.5c1.5,0,2.8-0.5,3.8-1.5c1-1,1.5-2.2,1.5-3.7C313.7,311.7,313.2,310.5,312.2,309.5z
		 M306.5,311.1c0.5-0.5,1.1-0.8,1.8-0.8s1.3,0.3,1.8,0.8c0.5,0.5,0.7,1.2,0.7,2c0,0.8-0.2,1.5-0.7,2c-0.5,0.5-1.1,0.8-1.8,0.8
		s-1.3-0.3-1.8-0.8c-0.5-0.5-0.7-1.2-0.7-2C305.8,312.3,306.1,311.7,306.5,311.1z M301.9,310.6l0-2.7c-0.6,0-1.1,0.2-1.7,0.5
		c-0.5,0.3-1,0.6-1.4,1.1v-1.3H296v10.1h2.8v-4.4c0-1,0.2-1.8,0.6-2.4c0.4-0.6,1-0.9,1.9-0.9L301.9,310.6L301.9,310.6z M286.9,311.1
		c0.5-0.5,1-0.8,1.7-0.8c0.7,0,1.2,0.3,1.7,0.8s0.7,1.2,0.7,2.1s-0.2,1.5-0.7,2s-1.1,0.8-1.7,0.8s-1.2-0.3-1.7-0.8
		c-0.5-0.5-0.7-1.2-0.7-2S286.5,311.7,286.9,311.1z M286.3,309.2v-1.1h-2.8v13.8h2.8v-5c0.8,1,1.7,1.5,3,1.5s2.3-0.5,3.2-1.5
		c0.9-1,1.4-2.3,1.4-3.7s-0.5-2.7-1.4-3.7s-2-1.5-3.2-1.5S287.2,308.4,286.3,309.2z M276.6,310.6l0-2.7c-0.6,0-1.1,0.2-1.7,0.5
		c-0.5,0.3-1,0.6-1.4,1.1v-1.3h-2.8v10.1h2.8v-4.4c0-1,0.2-1.8,0.6-2.4c0.4-0.6,1-0.9,1.9-0.9L276.6,310.6L276.6,310.6z
		 M264.6,315.3c-0.4,0.4-0.9,0.6-1.5,0.6c-1.1,0-1.7-0.8-1.7-2.3v-5.5h-2.8v6.1c0,1.4,0.4,2.4,1.1,3.1c0.8,0.7,1.7,1,2.8,1
		s2-0.5,2.7-1.5v1.3h2.8v-10.1h-2.8v5.5C265.3,314.3,265,314.9,264.6,315.3z M255.1,309.5c-1-1-2.3-1.5-3.8-1.5s-2.8,0.5-3.8,1.5
		c-1,1-1.5,2.2-1.5,3.7c0,1.5,0.5,2.7,1.5,3.7c1,1,2.3,1.5,3.8,1.5s2.8-0.5,3.8-1.5c1-1,1.5-2.2,1.5-3.7
		C256.6,311.7,256.1,310.5,255.1,309.5z M249.5,311.1c0.5-0.5,1.1-0.8,1.8-0.8s1.3,0.3,1.8,0.8c0.5,0.5,0.7,1.2,0.7,2
		c0,0.8-0.2,1.5-0.7,2s-1.1,0.8-1.8,0.8s-1.3-0.3-1.8-0.8s-0.7-1.2-0.7-2C248.8,312.3,249,311.7,249.5,311.1z M241.8,313l4.6-8h-3.2
		l-2.8,4.9l-2.8-4.9h-3.2l4.6,8v5.2h2.9L241.8,313L241.8,313z M226.6,318.4c0.5,0,0.9-0.2,1.2-0.5c0.3-0.3,0.5-0.7,0.5-1.2
		s-0.2-0.9-0.5-1.2c-0.3-0.3-0.7-0.5-1.2-0.5s-0.9,0.2-1.2,0.5c-0.3,0.3-0.5,0.7-0.5,1.2s0.2,0.9,0.5,1.2
		C225.8,318.2,226.2,318.4,226.6,318.4z M225,307.4l0.5,6.8h2.2l0.6-6.8v-2.3H225L225,307.4L225,307.4z M222.5,310.1v-2h-2.4v-3
		h-2.8v3h-1.2v2h1.2v4.7c0,1.1,0.3,2,1,2.6s1.5,1,2.5,1s1.9-0.4,2.8-1.2l-1.1-2c-0.4,0.5-0.8,0.7-1.3,0.7c-0.3,0-0.5-0.1-0.7-0.3
		s-0.3-0.5-0.3-0.9v-4.5H222.5z M208.3,310.8c0.4-0.4,0.9-0.6,1.5-0.6c1.1,0,1.7,0.8,1.7,2.3v5.7h2.8v-6.2c0-1.3-0.4-2.3-1.1-3
		c-0.7-0.8-1.6-1.1-2.7-1.1s-2,0.4-2.9,1.3v-1.1h-2.8v10.1h2.8v-5.6C207.7,311.8,207.9,311.2,208.3,310.8z M200,312.2h-4.4
		c0.1-0.6,0.3-1,0.8-1.4c0.5-0.3,1-0.5,1.5-0.5s1,0.2,1.4,0.5S199.9,311.6,200,312.2z M200.4,315c-0.6,0.7-1.5,1-2.4,1
		c-0.6,0-1.2-0.2-1.7-0.5s-0.8-0.8-0.9-1.4h7.4v-1.5c0-1.5-0.5-2.6-1.5-3.5c-1-0.8-2.2-1.3-3.5-1.3s-2.6,0.5-3.6,1.4
		s-1.5,2.2-1.5,3.8c0,1.6,0.5,2.9,1.5,3.8s2.3,1.4,3.8,1.4c1.5,0,2.9-0.5,4-1.6L200.4,315z M190.6,304.3h-2.8v14h2.8V304.3z
		 M185.1,304.3h-2.8v14h2.8V304.3z M177.4,312.2h-4.4c0.1-0.6,0.3-1,0.8-1.4c0.5-0.3,1-0.5,1.5-0.5s1,0.2,1.4,0.5
		S177.3,311.6,177.4,312.2z M177.8,315c-0.6,0.7-1.5,1-2.4,1c-0.6,0-1.2-0.2-1.7-0.5s-0.8-0.8-0.9-1.4h7.4v-1.5
		c0-1.5-0.5-2.6-1.5-3.5c-1-0.8-2.2-1.3-3.5-1.3s-2.6,0.5-3.6,1.4s-1.5,2.2-1.5,3.8c0,1.6,0.5,2.9,1.5,3.8s2.3,1.4,3.8,1.4
		c1.5,0,2.9-0.5,4-1.6L177.8,315z M162.7,315.2c-0.5-0.5-0.8-1.1-0.8-2s0.3-1.5,0.8-2s1.2-0.7,1.9-0.7c0.5,0,0.9,0.1,1.4,0.3
		c0.5,0.2,0.9,0.5,1.2,0.9l1.5-1.9c-0.6-0.6-1.2-1-2-1.3s-1.5-0.5-2.2-0.5c-1.5,0-2.7,0.5-3.8,1.5c-1.1,1-1.6,2.2-1.6,3.8
		s0.5,2.8,1.6,3.8c1,1,2.3,1.4,3.8,1.4c1.5,0,2.9-0.7,4.2-2l-1.7-1.9c-0.8,0.9-1.6,1.4-2.5,1.4C163.8,315.9,163.2,315.6,162.7,315.2
		z M147.8,308.1l3.3,5l-3.5,5.2h3.3l1.9-2.8l2,2.8h3.4l-3.6-5.2l3.5-4.9h-3.3l-1.8,2.7l-1.7-2.7H147.8z M136.7,305.1v13.1h9.7v-2.6
		h-6.8v-2.7h5.9v-2.5h-5.9v-2.7h6.5v-2.6L136.7,305.1L136.7,305.1z"/>
	<path fill="#555555" d="M282.3,342.8c0.5-0.5,1.1-0.8,1.9-0.8s1.3,0.3,1.8,0.8c0.5,0.5,0.7,1.2,0.7,2c0,0.8-0.2,1.5-0.7,2
		c-0.5,0.5-1.1,0.8-1.8,0.8s-1.3-0.3-1.9-0.8s-0.8-1.2-0.8-2S281.8,343.4,282.3,342.8z M283.8,349.3c1.3,0,2.3-0.5,2.9-1.4v1.3h1.8
		v-12h-1.8v4.7c-0.7-1-1.6-1.5-2.8-1.5c-1.1,0-2.1,0.4-3,1.2c-0.8,0.8-1.2,1.9-1.2,3.2c0,1.3,0.4,2.4,1.2,3.2
		C281.7,348.9,282.7,349.3,283.8,349.3z M278.5,342.3l0-1.8c-0.6,0-1.1,0.2-1.6,0.5c-0.5,0.3-0.9,0.8-1.2,1.3v-1.7h-1.8v8.6h1.8
		v-3.7c0-1,0.2-1.8,0.7-2.3C276.8,342.6,277.5,342.3,278.5,342.3L278.5,342.3L278.5,342.3z M268.9,347.3c-0.4,0.3-0.9,0.5-1.5,0.5
		c-0.6,0-1-0.1-1.3-0.3c-0.3-0.2-0.5-0.5-0.5-1c0-0.8,0.6-1.2,2-1.2h2v0.7C269.5,346.5,269.3,346.9,268.9,347.3z M271.3,343.6
		c0-1.1-0.3-1.9-1-2.4c-0.6-0.5-1.5-0.8-2.5-0.8c-1.3,0-2.5,0.4-3.5,1.2l0.8,1.1c0.9-0.6,1.7-0.9,2.5-0.9c1.3,0,1.9,0.6,1.9,1.7v0.3
		h-2.3c-1.1,0-1.9,0.2-2.5,0.6c-0.6,0.4-0.9,1.1-0.9,1.9s0.3,1.5,0.9,2c0.6,0.5,1.3,0.8,2.2,0.8c1.2,0,2.1-0.4,2.9-1.3v1.1h1.6
		L271.3,343.6L271.3,343.6z M262.4,344.9c0-1.2-0.4-2.3-1.3-3.1c-0.9-0.9-1.9-1.3-3.2-1.3s-2.4,0.4-3.2,1.3s-1.3,1.9-1.3,3.1
		s0.4,2.3,1.3,3.1c0.9,0.9,1.9,1.3,3.2,1.3s2.4-0.4,3.2-1.3C261.9,347.1,262.4,346.1,262.4,344.9z M255.1,344.9c0-0.8,0.3-1.5,0.8-2
		c0.5-0.5,1.2-0.8,1.9-0.8c0.8,0,1.4,0.3,1.9,0.8c0.5,0.5,0.8,1.2,0.8,2c0,0.8-0.3,1.5-0.8,2c-0.5,0.5-1.2,0.8-1.9,0.8
		c-0.8,0-1.4-0.3-1.9-0.8C255.4,346.4,255.1,345.7,255.1,344.9z M245.6,342.8c0.5-0.5,1.1-0.8,1.8-0.8s1.3,0.3,1.9,0.8
		c0.5,0.5,0.8,1.2,0.8,2s-0.3,1.5-0.8,2c-0.5,0.5-1.1,0.8-1.9,0.8s-1.3-0.3-1.8-0.8c-0.5-0.5-0.7-1.2-0.7-2
		C244.8,344.1,245.1,343.4,245.6,342.8z M244.9,342.1v-4.9h-1.8v12h1.8v-1.3c0.9,0.9,1.8,1.4,2.9,1.4c1.1,0,2-0.4,2.8-1.2
		c0.8-0.8,1.2-1.9,1.2-3.2s-0.4-2.4-1.2-3.2c-0.8-0.8-1.8-1.2-2.9-1.2C246.5,340.4,245.6,341,244.9,342.1z M238.1,347.3
		c-0.4,0.3-0.9,0.5-1.5,0.5c-0.6,0-1-0.1-1.3-0.3c-0.3-0.2-0.5-0.5-0.5-1c0-0.8,0.6-1.2,2-1.2h2v0.7
		C238.7,346.5,238.5,346.9,238.1,347.3z M240.5,343.6c0-1.1-0.3-1.9-1-2.4c-0.6-0.5-1.5-0.8-2.5-0.8c-1.3,0-2.5,0.4-3.5,1.2l0.8,1.1
		c0.9-0.6,1.7-0.9,2.5-0.9c1.3,0,1.9,0.6,1.9,1.7v0.3h-2.3c-1.1,0-1.9,0.2-2.5,0.6c-0.6,0.4-0.9,1.1-0.9,1.9s0.3,1.5,0.9,2
		c0.6,0.5,1.3,0.8,2.2,0.8c1.2,0,2.1-0.4,2.9-1.3v1.1h1.6V343.6z M224.1,347c-0.5,0.4-1,0.6-1.6,0.6c-1.3,0-2-0.8-2-2.4v-4.7h-1.8
		v5.3c0,1.1,0.3,2,0.9,2.6s1.4,0.9,2.3,0.9c0.6,0,1.1-0.1,1.7-0.5s0.9-0.7,1.2-1.2v1.6h1.8v-8.6h-1.8v4.6
		C224.8,346,224.5,346.6,224.1,347z M216.7,344.9c0-1.2-0.4-2.3-1.3-3.1c-0.9-0.9-1.9-1.3-3.2-1.3c-1.3,0-2.4,0.4-3.2,1.3
		s-1.3,1.9-1.3,3.1s0.4,2.3,1.3,3.1c0.9,0.9,1.9,1.3,3.2,1.3c1.3,0,2.4-0.4,3.2-1.3C216.3,347.1,216.7,346.1,216.7,344.9z
		 M209.5,344.9c0-0.8,0.3-1.5,0.8-2c0.5-0.5,1.2-0.8,1.9-0.8c0.8,0,1.4,0.3,1.9,0.8c0.5,0.5,0.8,1.2,0.8,2c0,0.8-0.3,1.5-0.8,2
		c-0.5,0.5-1.2,0.8-1.9,0.8c-0.8,0-1.4-0.3-1.9-0.8C209.7,346.4,209.5,345.7,209.5,344.9z M201.7,352.1c0.5-0.3,0.8-0.8,1.1-1.3
		l4.2-10.2H205l-2.6,6.3l-2.6-6.3H198c2.3,5.7,3.5,8.7,3.5,8.8c0,0.3-0.1,0.7-0.4,1c-0.3,0.3-0.6,0.4-1,0.4s-0.8-0.2-1.2-0.5
		l-0.8,1.5c0.6,0.6,1.3,0.9,2.1,0.9C200.8,352.6,201.3,352.4,201.7,352.1z M186.8,342.6c0.5-0.4,1.1-0.6,1.8-0.6s1.2,0.2,1.7,0.6
		c0.5,0.4,0.7,0.9,0.7,1.7H186C186,343.5,186.3,343,186.8,342.6z M192.7,344.4c0-1.2-0.4-2.2-1.2-2.9s-1.8-1.1-3-1.1
		c-1.2,0-2.2,0.4-3,1.2c-0.9,0.8-1.3,1.9-1.3,3.2s0.4,2.4,1.3,3.2s1.9,1.2,3.1,1.2c1.5,0,2.7-0.5,3.6-1.4l-1-1.1
		c-0.6,0.7-1.4,1-2.5,1c-0.7,0-1.3-0.2-1.8-0.6c-0.5-0.4-0.8-0.9-0.9-1.5h6.7L192.7,344.4L192.7,344.4z M179.9,349.2l3.5-8.6h-1.9
		l-2.6,6.5l-2.6-6.5h-1.9l3.5,8.6H179.9z M170.7,347.3c-0.4,0.3-0.9,0.5-1.5,0.5c-0.6,0-1-0.1-1.3-0.3c-0.3-0.2-0.5-0.5-0.5-1
		c0-0.8,0.6-1.2,2-1.2h2v0.7C171.3,346.5,171.1,346.9,170.7,347.3z M173.1,343.6c0-1.1-0.3-1.9-1-2.4c-0.6-0.5-1.5-0.8-2.5-0.8
		c-1.3,0-2.5,0.4-3.5,1.2l0.8,1.1c0.9-0.6,1.7-0.9,2.5-0.9c1.3,0,1.9,0.6,1.9,1.7v0.3H169c-1.1,0-1.9,0.2-2.5,0.6
		c-0.6,0.4-0.9,1.1-0.9,1.9s0.3,1.5,0.9,2c0.6,0.5,1.3,0.8,2.2,0.8c1.2,0,2.1-0.4,2.9-1.3v1.1h1.6V343.6z M158.2,342.7
		c0.5-0.4,1-0.6,1.6-0.6c1.3,0,2,0.8,2,2.4v4.7h1.8v-5.3c0-1.1-0.3-2-0.9-2.6s-1.4-0.9-2.3-0.9c-0.6,0-1.2,0.2-1.7,0.5
		s-0.9,0.7-1.2,1.2v-4.9h-1.8v11.9h1.8v-4.6C157.6,343.7,157.8,343.1,158.2,342.7z M149.3,344.9c0-1.2-0.4-2.3-1.3-3.1
		c-0.9-0.9-1.9-1.3-3.2-1.3c-1.3,0-2.4,0.4-3.2,1.3s-1.3,1.9-1.3,3.1s0.4,2.3,1.3,3.1c0.9,0.9,1.9,1.3,3.2,1.3
		c1.3,0,2.4-0.4,3.2-1.3C148.9,347.1,149.3,346.1,149.3,344.9z M142.1,344.9c0-0.8,0.3-1.5,0.8-2c0.5-0.5,1.2-0.8,1.9-0.8
		c0.8,0,1.4,0.3,1.9,0.8c0.5,0.5,0.8,1.2,0.8,2c0,0.8-0.3,1.5-0.8,2c-0.5,0.5-1.2,0.8-1.9,0.8c-0.8,0-1.4-0.3-1.9-0.8
		C142.3,346.4,142.1,345.7,142.1,344.9z M138.6,342v-1.5h-2.3v-2.7h-1.8v2.7h-1.1v1.5h1.1v4.3c0,0.9,0.3,1.6,0.8,2.2
		c0.5,0.5,1.2,0.8,2,0.8s1.5-0.3,2.1-0.9l-0.7-1.3c-0.4,0.4-0.7,0.6-1.1,0.6c-0.4,0-0.7-0.1-0.9-0.4s-0.3-0.6-0.3-1V342L138.6,342
		L138.6,342z M120.9,342.8c0.5-0.5,1.1-0.8,1.9-0.8c0.7,0,1.3,0.3,1.8,0.8c0.5,0.5,0.7,1.2,0.7,2c0,0.8-0.2,1.5-0.7,2
		c-0.5,0.5-1.1,0.8-1.8,0.8s-1.3-0.3-1.9-0.8s-0.8-1.2-0.8-2S120.4,343.4,120.9,342.8z M122.4,349.3c1.3,0,2.3-0.5,2.9-1.4v1.3h1.8
		v-12h-1.8v4.7c-0.7-1-1.6-1.5-2.8-1.5c-1.1,0-2.1,0.4-3,1.2c-0.8,0.8-1.2,1.9-1.2,3.2c0,1.3,0.4,2.4,1.2,3.2
		C120.4,348.9,121.3,349.3,122.4,349.3z M116.8,344.9c0-1.2-0.4-2.3-1.3-3.1c-0.9-0.9-1.9-1.3-3.2-1.3s-2.4,0.4-3.2,1.3
		s-1.3,1.9-1.3,3.1s0.4,2.3,1.3,3.1c0.9,0.9,1.9,1.3,3.2,1.3s2.4-0.4,3.2-1.3C116.4,347.1,116.8,346.1,116.8,344.9z M109.6,344.9
		c0-0.8,0.3-1.5,0.8-2c0.5-0.5,1.2-0.8,1.9-0.8c0.8,0,1.4,0.3,1.9,0.8c0.5,0.5,0.8,1.2,0.8,2c0,0.8-0.3,1.5-0.8,2
		c-0.5,0.5-1.2,0.8-1.9,0.8c-0.8,0-1.4-0.3-1.9-0.8C109.9,346.4,109.6,345.7,109.6,344.9z M106.3,344.9c0-1.2-0.4-2.3-1.3-3.1
		c-0.9-0.9-1.9-1.3-3.2-1.3s-2.4,0.4-3.2,1.3s-1.3,1.9-1.3,3.1s0.4,2.3,1.3,3.1c0.9,0.9,1.9,1.3,3.2,1.3s2.4-0.4,3.2-1.3
		C105.9,347.1,106.3,346.1,106.3,344.9z M99.1,344.9c0-0.8,0.3-1.5,0.8-2c0.5-0.5,1.2-0.8,1.9-0.8c0.8,0,1.4,0.3,1.9,0.8
		c0.5,0.5,0.8,1.2,0.8,2c0,0.8-0.3,1.5-0.8,2c-0.5,0.5-1.2,0.8-1.9,0.8c-0.8,0-1.4-0.3-1.9-0.8C99.4,346.4,99.1,345.7,99.1,344.9z
		 M93.7,346.8c-0.7,0.5-1.6,0.7-2.7,0.7s-2-0.4-2.7-1.1s-1.1-1.7-1.1-2.9c0-1.2,0.4-2.2,1.2-2.9s1.7-1.1,2.9-1.1
		c0.6,0,1.1,0.1,1.6,0.2c0.4,0.1,0.9,0.4,1.3,0.8l1-1.5c-1.1-0.9-2.4-1.4-4-1.4c-1.6,0-3,0.6-4.2,1.7c-1.1,1.1-1.7,2.5-1.7,4.2
		s0.6,3.1,1.7,4.2c1.1,1.1,2.5,1.6,4.2,1.6c2,0,3.5-0.6,4.6-1.8v-3.9h-1.9V346.8z"/>
	<path fill="#555555" d="M516.4,342v-1.5h-2.3v-2.7h-1.8v2.7h-1.1v1.5h1.1v4.3c0,0.9,0.3,1.6,0.8,2.2s1.2,0.8,2,0.8
		c0.8,0,1.5-0.3,2.1-0.9l-0.7-1.3c-0.4,0.4-0.7,0.6-1.1,0.6c-0.4,0-0.7-0.1-0.9-0.4s-0.3-0.6-0.3-1V342L516.4,342L516.4,342z
		 M510.1,342.3l0-1.8c-0.6,0-1.1,0.2-1.6,0.5c-0.5,0.3-0.9,0.8-1.2,1.3v-1.7h-1.8v8.6h1.8v-3.7c0-1,0.2-1.8,0.7-2.3
		C508.5,342.6,509.2,342.3,510.1,342.3L510.1,342.3L510.1,342.3z M500.6,347.3c-0.4,0.3-0.9,0.5-1.5,0.5s-1-0.1-1.3-0.3
		c-0.3-0.2-0.5-0.5-0.5-1c0-0.8,0.6-1.2,2-1.2h2v0.7C501.2,346.5,501,346.9,500.6,347.3z M503,343.6c0-1.1-0.3-1.9-1-2.4
		s-1.5-0.8-2.5-0.8c-1.3,0-2.5,0.4-3.5,1.2l0.8,1.1c0.9-0.6,1.7-0.9,2.5-0.9c1.3,0,1.9,0.6,1.9,1.7v0.3h-2.3c-1.1,0-1.9,0.2-2.5,0.6
		c-0.6,0.4-0.9,1.1-0.9,1.9s0.3,1.5,0.9,2c0.6,0.5,1.3,0.8,2.2,0.8c1.2,0,2.1-0.4,2.9-1.3v1.1h1.6L503,343.6L503,343.6z M493.8,342
		v-1.5h-2.3v-2.7h-1.8v2.7h-1.1v1.5h1.1v4.3c0,0.9,0.3,1.6,0.8,2.2s1.2,0.8,2,0.8c0.8,0,1.5-0.3,2.1-0.9l-0.7-1.3
		c-0.4,0.4-0.7,0.6-1.1,0.6c-0.4,0-0.7-0.1-0.9-0.4s-0.3-0.6-0.3-1V342L493.8,342L493.8,342z M486.4,344.8c-0.3-0.2-0.6-0.3-0.8-0.5
		c-0.3-0.1-0.5-0.2-0.8-0.3c-0.3-0.1-0.6-0.2-0.9-0.3c-0.3-0.1-0.6-0.2-0.8-0.3c-0.3-0.1-0.4-0.3-0.4-0.6c0-0.3,0.1-0.5,0.4-0.7
		c0.3-0.2,0.6-0.2,1-0.2c0.8,0,1.6,0.2,2.3,0.7l0.7-1.3c-0.9-0.6-1.8-0.9-2.8-0.9s-1.8,0.2-2.4,0.7c-0.6,0.5-0.9,1.1-0.9,1.9
		c0,1.1,0.9,1.9,2.7,2.4l0.2,0.1c1.1,0.3,1.7,0.7,1.7,1.2c0,0.3-0.1,0.5-0.4,0.7c-0.2,0.2-0.6,0.3-1,0.3c-0.9,0-1.9-0.4-2.9-1.1
		l-0.9,1.4c0.5,0.4,1.1,0.7,1.8,1c0.7,0.2,1.3,0.3,1.9,0.3c0.9,0,1.7-0.2,2.3-0.7s0.9-1.1,0.9-2S487,345.2,486.4,344.8z M468,342.8
		c0.5-0.5,1.1-0.8,1.9-0.8c0.7,0,1.3,0.3,1.8,0.8c0.5,0.5,0.7,1.2,0.7,2c0,0.8-0.2,1.5-0.7,2s-1.1,0.8-1.8,0.8
		c-0.7,0-1.3-0.3-1.9-0.8s-0.8-1.2-0.8-2S467.5,343.4,468,342.8z M469.4,349.3c1.3,0,2.3-0.5,2.9-1.4v1.3h1.8v-12h-1.8v4.7
		c-0.7-1-1.6-1.5-2.8-1.5s-2.1,0.4-3,1.2c-0.8,0.8-1.2,1.9-1.2,3.2c0,1.3,0.4,2.4,1.2,3.2C467.4,348.9,468.4,349.3,469.4,349.3z
		 M458,342.7c0.5-0.4,1-0.6,1.6-0.6c1.3,0,2,0.8,2,2.4v4.7h1.8v-5.3c0-1.1-0.3-2-0.9-2.6s-1.4-0.9-2.3-0.9c-0.6,0-1.1,0.2-1.7,0.5
		c-0.5,0.3-0.9,0.7-1.2,1.2v-1.6h-1.8v8.6h1.8v-4.6C457.3,343.7,457.6,343.1,458,342.7z M450.6,347.3c-0.4,0.3-0.9,0.5-1.5,0.5
		s-1-0.1-1.3-0.3c-0.3-0.2-0.5-0.5-0.5-1c0-0.8,0.6-1.2,2-1.2h2v0.7C451.2,346.5,451,346.9,450.6,347.3z M453,343.6
		c0-1.1-0.3-1.9-1-2.4s-1.5-0.8-2.5-0.8c-1.3,0-2.5,0.4-3.5,1.2l0.8,1.1c0.9-0.6,1.7-0.9,2.5-0.9c1.3,0,1.9,0.6,1.9,1.7v0.3h-2.3
		c-1.1,0-1.9,0.2-2.5,0.6c-0.6,0.4-0.9,1.1-0.9,1.9s0.3,1.5,0.9,2c0.6,0.5,1.3,0.8,2.2,0.8c1.2,0,2.1-0.4,2.9-1.3v1.1h1.6L453,343.6
		L453,343.6z M432.8,342.8c0.5-0.5,1.1-0.8,1.9-0.8c0.7,0,1.3,0.3,1.8,0.8c0.5,0.5,0.7,1.2,0.7,2c0,0.8-0.2,1.5-0.7,2
		s-1.1,0.8-1.8,0.8c-0.7,0-1.3-0.3-1.9-0.8s-0.8-1.2-0.8-2S432.3,343.4,432.8,342.8z M434.3,349.3c1.3,0,2.3-0.5,2.9-1.4v1.3h1.8
		v-12h-1.8v4.7c-0.7-1-1.6-1.5-2.8-1.5s-2.1,0.4-3,1.2c-0.8,0.8-1.2,1.9-1.2,3.2c0,1.3,0.4,2.4,1.2,3.2
		C432.3,348.9,433.2,349.3,434.3,349.3z M425.8,347.3c-0.4,0.3-0.9,0.5-1.5,0.5s-1-0.1-1.3-0.3c-0.3-0.2-0.5-0.5-0.5-1
		c0-0.8,0.6-1.2,2-1.2h2v0.7C426.5,346.5,426.3,346.9,425.8,347.3z M428.3,343.6c0-1.1-0.3-1.9-1-2.4s-1.5-0.8-2.5-0.8
		c-1.3,0-2.5,0.4-3.5,1.2l0.8,1.1c0.9-0.6,1.7-0.9,2.5-0.9c1.3,0,1.9,0.6,1.9,1.7v0.3h-2.3c-1.1,0-1.9,0.2-2.5,0.6
		c-0.6,0.4-0.9,1.1-0.9,1.9s0.3,1.5,0.9,2c0.6,0.5,1.3,0.8,2.2,0.8c1.2,0,2.1-0.4,2.9-1.3v1.1h1.6L428.3,343.6L428.3,343.6z
		 M413.4,342.6c0.5-0.4,1.1-0.6,1.8-0.6c0.7,0,1.2,0.2,1.7,0.6c0.5,0.4,0.7,0.9,0.7,1.7h-4.9C412.6,343.5,412.9,343,413.4,342.6z
		 M419.4,344.4c0-1.2-0.4-2.2-1.2-2.9c-0.8-0.7-1.8-1.1-3-1.1s-2.2,0.4-3,1.2c-0.9,0.8-1.3,1.9-1.3,3.2s0.4,2.4,1.3,3.2
		s1.9,1.2,3.1,1.2c1.5,0,2.7-0.5,3.6-1.4l-1-1.1c-0.6,0.7-1.4,1-2.5,1c-0.7,0-1.3-0.2-1.8-0.6s-0.8-0.9-0.9-1.5h6.7L419.4,344.4
		L419.4,344.4z M403.5,342.7c0.5-0.4,1-0.6,1.6-0.6c1.3,0,2,0.8,2,2.4v4.7h1.8v-5.3c0-1.1-0.3-2-0.9-2.6s-1.4-0.9-2.3-0.9
		c-0.6,0-1.2,0.2-1.7,0.5s-0.9,0.7-1.2,1.2v-4.9H401v11.9h1.8v-4.6C402.8,343.7,403,343.1,403.5,342.7z M396,347.3
		c-0.4,0.3-0.9,0.5-1.5,0.5s-1-0.1-1.3-0.3c-0.3-0.2-0.5-0.5-0.5-1c0-0.8,0.6-1.2,2-1.2h2v0.7C396.6,346.5,396.4,346.9,396,347.3z
		 M398.4,343.6c0-1.1-0.3-1.9-1-2.4s-1.5-0.8-2.5-0.8c-1.3,0-2.5,0.4-3.5,1.2l0.8,1.1c0.9-0.6,1.7-0.9,2.5-0.9
		c1.3,0,1.9,0.6,1.9,1.7v0.3h-2.3c-1.1,0-1.9,0.2-2.5,0.6c-0.6,0.4-0.9,1.1-0.9,1.9s0.3,1.5,0.9,2c0.6,0.5,1.3,0.8,2.2,0.8
		c1.2,0,2.1-0.4,2.9-1.3v1.1h1.6L398.4,343.6L398.4,343.6z M385,344.9c0-1.2-0.4-2.3-1.3-3.1c-0.9-0.9-1.9-1.3-3.2-1.3
		c-1.3,0-2.4,0.4-3.2,1.3c-0.9,0.9-1.3,1.9-1.3,3.1s0.4,2.3,1.3,3.1c0.9,0.9,1.9,1.3,3.2,1.3c1.3,0,2.4-0.4,3.2-1.3
		C384.6,347.1,385,346.1,385,344.9z M377.8,344.9c0-0.8,0.3-1.5,0.8-2s1.2-0.8,1.9-0.8c0.8,0,1.4,0.3,1.9,0.8s0.8,1.2,0.8,2
		c0,0.8-0.3,1.5-0.8,2c-0.5,0.5-1.2,0.8-1.9,0.8c-0.8,0-1.4-0.3-1.9-0.8C378.1,346.4,377.8,345.7,377.8,344.9z M372.4,346.8
		c-0.7,0.5-1.6,0.7-2.7,0.7c-1.1,0-2-0.4-2.7-1.1c-0.8-0.7-1.1-1.7-1.1-2.9c0-1.2,0.4-2.2,1.2-2.9c0.8-0.7,1.7-1.1,2.9-1.1
		c0.6,0,1.1,0.1,1.6,0.2c0.4,0.1,0.9,0.4,1.3,0.8l1-1.5c-1.1-0.9-2.4-1.4-4-1.4s-3,0.6-4.2,1.7s-1.7,2.5-1.7,4.2s0.6,3.1,1.7,4.2
		s2.5,1.6,4.2,1.6c2,0,3.5-0.6,4.6-1.8v-3.9h-1.9L372.4,346.8L372.4,346.8z M356.4,349.3c0.3,0,0.6-0.1,0.9-0.4s0.4-0.5,0.4-0.9
		s-0.1-0.6-0.4-0.8s-0.5-0.3-0.9-0.3s-0.6,0.1-0.8,0.3c-0.2,0.2-0.3,0.5-0.3,0.8s0.1,0.6,0.3,0.9C355.8,349.2,356,349.3,356.4,349.3
		z M352.5,344.8c-0.3-0.2-0.6-0.3-0.8-0.5c-0.3-0.1-0.5-0.2-0.8-0.3c-0.3-0.1-0.6-0.2-0.9-0.3c-0.3-0.1-0.6-0.2-0.8-0.3
		c-0.3-0.1-0.4-0.3-0.4-0.6c0-0.3,0.1-0.5,0.4-0.7c0.3-0.2,0.6-0.2,1-0.2c0.8,0,1.6,0.2,2.3,0.7l0.7-1.3c-0.9-0.6-1.8-0.9-2.8-0.9
		s-1.8,0.2-2.4,0.7c-0.6,0.5-0.9,1.1-0.9,1.9c0,1.1,0.9,1.9,2.7,2.4l0.2,0.1c1.1,0.3,1.7,0.7,1.7,1.2c0,0.3-0.1,0.5-0.4,0.7
		c-0.2,0.2-0.6,0.3-1,0.3c-0.9,0-1.9-0.4-2.9-1.1l-0.9,1.4c0.5,0.4,1.1,0.7,1.8,1c0.7,0.2,1.3,0.3,1.9,0.3c0.9,0,1.7-0.2,2.3-0.7
		s0.9-1.1,0.9-2S353.1,345.2,352.5,344.8z M342.2,347c-0.5,0.4-1,0.6-1.6,0.6c-1.3,0-2-0.8-2-2.4v-4.7h-1.8v5.3c0,1.1,0.3,2,0.9,2.6
		c0.6,0.6,1.4,0.9,2.3,0.9c0.6,0,1.1-0.1,1.7-0.5s0.9-0.7,1.2-1.2v1.6h1.8v-8.6h-1.8v4.6C342.9,346,342.6,346.6,342.2,347z
		 M324.5,342.7c0.5-0.4,1-0.6,1.6-0.6c1.3,0,2,0.8,2,2.4v4.7h1.8v-5.3c0-1.1-0.3-2-0.9-2.6s-1.4-0.9-2.3-0.9c-0.6,0-1.2,0.2-1.7,0.5
		s-0.9,0.7-1.2,1.2v-4.9H322v11.9h1.8v-4.6C323.8,343.7,324.1,343.1,324.5,342.7z M319.8,342v-1.5h-2.3v-2.7h-1.8v2.7h-1.1v1.5h1.1
		v4.3c0,0.9,0.3,1.6,0.8,2.2s1.2,0.8,2,0.8c0.8,0,1.5-0.3,2.1-0.9l-0.7-1.3c-0.4,0.4-0.7,0.6-1.1,0.6c-0.4,0-0.7-0.1-0.9-0.4
		s-0.3-0.6-0.3-1V342L319.8,342L319.8,342z M311.8,339.2c0.3,0,0.6-0.1,0.8-0.3c0.2-0.2,0.3-0.5,0.3-0.8s-0.1-0.6-0.3-0.8
		c-0.2-0.2-0.5-0.3-0.8-0.3c-0.3,0-0.6,0.1-0.8,0.3c-0.2,0.2-0.3,0.5-0.3,0.8s0.1,0.6,0.3,0.8C311.2,339.1,311.5,339.2,311.8,339.2z
		 M312.7,340.6h-1.8v8.6h1.8V340.6z M302.2,343.3l2,5.9h2.1l3-8.6h-1.9l-2.1,6.5l-2.1-6.5h-1.9l-2.1,6.5l-2.1-6.5h-1.9l3,8.6h2.1
		L302.2,343.3z"/>
	<path fill="#555555" d="M499.3,373.5c0.3,0,0.6-0.1,0.9-0.4s0.4-0.5,0.4-0.9s-0.1-0.6-0.4-0.8s-0.5-0.3-0.9-0.3s-0.6,0.1-0.8,0.3
		c-0.2,0.2-0.3,0.5-0.3,0.8s0.1,0.6,0.3,0.9C498.7,373.3,499,373.5,499.3,373.5z M490.2,367.5l2,5.9h2.1l3-8.6h-1.9l-2.1,6.5
		l-2.1-6.5h-1.9l-2.1,6.5l-2.1-6.5h-1.9l3,8.6h2.1L490.2,367.5z M482.2,369c0-1.2-0.4-2.3-1.3-3.1c-0.9-0.9-1.9-1.3-3.2-1.3
		c-1.3,0-2.4,0.4-3.2,1.3c-0.9,0.9-1.3,1.9-1.3,3.1s0.4,2.3,1.3,3.1c0.9,0.9,1.9,1.3,3.2,1.3c1.3,0,2.4-0.4,3.2-1.3
		C481.8,371.3,482.2,370.3,482.2,369z M475,369c0-0.8,0.3-1.5,0.8-2s1.2-0.8,1.9-0.8c0.8,0,1.4,0.3,1.9,0.8s0.8,1.2,0.8,2
		c0,0.8-0.3,1.5-0.8,2c-0.5,0.5-1.2,0.8-1.9,0.8c-0.8,0-1.4-0.3-1.9-0.8C475.2,370.6,475,369.9,475,369z M465.8,366.9
		c0.5-0.4,1-0.6,1.6-0.6c1.3,0,2,0.8,2,2.4v4.7h1.8v-5.3c0-1.1-0.3-2-0.9-2.6s-1.4-0.9-2.3-0.9c-0.6,0-1.1,0.2-1.7,0.5
		c-0.5,0.3-0.9,0.7-1.2,1.2v-1.6h-1.8v8.6h1.8v-4.6C465.1,367.9,465.4,367.3,465.8,366.9z M452.3,376.3c0.5-0.3,0.8-0.8,1.1-1.3
		l4.2-10.2h-1.9l-2.6,6.3l-2.6-6.3h-1.9c2.3,5.7,3.5,8.7,3.5,8.8c0,0.3-0.1,0.7-0.4,1c-0.3,0.3-0.6,0.4-1,0.4s-0.8-0.2-1.2-0.5
		l-0.8,1.5c0.6,0.6,1.3,0.9,2.1,0.9C451.3,376.8,451.8,376.6,452.3,376.3z M441.8,366.8c0.5-0.4,1.1-0.6,1.8-0.6
		c0.7,0,1.2,0.2,1.7,0.6c0.5,0.4,0.7,0.9,0.7,1.7h-4.9C441.1,367.7,441.3,367.2,441.8,366.8z M447.8,368.6c0-1.2-0.4-2.2-1.2-2.9
		c-0.8-0.7-1.8-1.1-3-1.1s-2.2,0.4-3,1.2c-0.9,0.8-1.3,1.9-1.3,3.2s0.4,2.4,1.3,3.2s1.9,1.2,3.1,1.2c1.5,0,2.7-0.5,3.6-1.4l-1-1.1
		c-0.6,0.7-1.4,1-2.5,1c-0.7,0-1.3-0.2-1.8-0.6s-0.8-0.9-0.9-1.5h6.7L447.8,368.6L447.8,368.6z M434.9,373.3l3.5-8.6h-1.9l-2.6,6.5
		l-2.6-6.5h-1.9l3.5,8.6H434.9z M428.8,366.5l0-1.8c-0.6,0-1.1,0.2-1.6,0.5c-0.5,0.3-0.9,0.8-1.2,1.3v-1.7h-1.8v8.6h1.8v-3.7
		c0-1,0.2-1.8,0.7-2.3C427.1,366.7,427.8,366.5,428.8,366.5L428.8,366.5L428.8,366.5z M419.1,371.2c-0.5,0.4-1,0.6-1.6,0.6
		c-1.3,0-2-0.8-2-2.4v-4.7h-1.8v5.3c0,1.1,0.3,2,0.9,2.6c0.6,0.6,1.4,0.9,2.3,0.9c0.6,0,1.1-0.1,1.7-0.5s0.9-0.7,1.2-1.2v1.6h1.8
		v-8.6h-1.8v4.6C419.8,370.2,419.5,370.8,419.1,371.2z M410.8,369c-0.3-0.2-0.6-0.3-0.8-0.5c-0.3-0.1-0.5-0.2-0.8-0.3
		c-0.3-0.1-0.6-0.2-0.9-0.3c-0.3-0.1-0.6-0.2-0.8-0.3c-0.3-0.1-0.4-0.3-0.4-0.6c0-0.3,0.1-0.5,0.4-0.7c0.3-0.2,0.6-0.2,1-0.2
		c0.8,0,1.6,0.2,2.3,0.7l0.7-1.3c-0.9-0.6-1.8-0.9-2.8-0.9s-1.8,0.2-2.4,0.7c-0.6,0.5-0.9,1.1-0.9,1.9c0,1.1,0.9,1.9,2.7,2.4
		l0.2,0.1c1.1,0.3,1.7,0.7,1.7,1.2c0,0.3-0.1,0.5-0.4,0.7c-0.2,0.2-0.6,0.3-1,0.3c-0.9,0-1.9-0.4-2.9-1.1l-0.9,1.4
		c0.5,0.4,1.1,0.7,1.8,1c0.7,0.2,1.3,0.3,1.9,0.3c0.9,0,1.7-0.2,2.3-0.7s0.9-1.1,0.9-2S411.4,369.4,410.8,369z M398.9,366.2v-1.5
		h-2.3v-2.7h-1.8v2.7h-1.1v1.5h1.1v4.3c0,0.9,0.3,1.6,0.8,2.2s1.2,0.8,2,0.8c0.8,0,1.5-0.3,2.1-0.9l-0.7-1.3
		c-0.4,0.4-0.7,0.6-1.1,0.6c-0.4,0-0.7-0.1-0.9-0.4s-0.3-0.6-0.3-1v-4.4L398.9,366.2L398.9,366.2z M391.5,369
		c-0.3-0.2-0.6-0.3-0.8-0.5c-0.3-0.1-0.5-0.2-0.8-0.3c-0.3-0.1-0.6-0.2-0.9-0.3c-0.3-0.1-0.6-0.2-0.8-0.3c-0.3-0.1-0.4-0.3-0.4-0.6
		c0-0.3,0.1-0.5,0.4-0.7c0.3-0.2,0.6-0.2,1-0.2c0.8,0,1.6,0.2,2.3,0.7l0.7-1.3c-0.9-0.6-1.8-0.9-2.8-0.9s-1.8,0.2-2.4,0.7
		c-0.6,0.5-0.9,1.1-0.9,1.9c0,1.1,0.9,1.9,2.7,2.4l0.2,0.1c1.1,0.3,1.7,0.7,1.7,1.2c0,0.3-0.1,0.5-0.4,0.7c-0.2,0.2-0.6,0.3-1,0.3
		c-0.9,0-1.9-0.4-2.9-1.1l-0.9,1.4c0.5,0.4,1.1,0.7,1.8,1c0.7,0.2,1.3,0.3,1.9,0.3c0.9,0,1.7-0.2,2.3-0.7s0.9-1.1,0.9-2
		S392.1,369.4,391.5,369z M384.5,366.5l0-1.8c-0.6,0-1.1,0.2-1.6,0.5c-0.5,0.3-0.9,0.8-1.2,1.3v-1.7h-1.8v8.6h1.8v-3.7
		c0-1,0.2-1.8,0.7-2.3C382.8,366.7,383.5,366.5,384.5,366.5L384.5,366.5L384.5,366.5z M376.4,363.4c0.3,0,0.6-0.1,0.8-0.3
		c0.2-0.2,0.3-0.5,0.3-0.8s-0.1-0.6-0.3-0.8c-0.2-0.2-0.5-0.3-0.8-0.3c-0.3,0-0.6,0.1-0.8,0.3c-0.2,0.2-0.3,0.5-0.3,0.8
		s0.1,0.6,0.3,0.8C375.8,363.3,376.1,363.4,376.4,363.4z M377.3,364.8h-1.8v8.6h1.8V364.8z M371.8,363.1c0.2-0.2,0.5-0.4,0.9-0.4
		c0.4,0,0.8,0.2,1.1,0.6l0.7-1.3c-0.6-0.6-1.3-0.9-2.1-0.9c-0.8,0-1.4,0.3-2,0.8c-0.5,0.5-0.8,1.2-0.8,2.2v0.7h-1.1v1.5h1.1v7.1h1.8
		v-7.1h2.3v-1.5h-2.3v-0.7C371.5,363.6,371.6,363.3,371.8,363.1z M363,366.5l0-1.8c-0.6,0-1.1,0.2-1.6,0.5c-0.5,0.3-0.9,0.8-1.2,1.3
		v-1.7h-1.8v8.6h1.8v-3.7c0-1,0.2-1.8,0.7-2.3C361.4,366.7,362,366.5,363,366.5L363,366.5L363,366.5z M353.3,371.2
		c-0.5,0.4-1,0.6-1.6,0.6c-1.3,0-2-0.8-2-2.4v-4.7h-1.8v5.3c0,1.1,0.3,2,0.9,2.6c0.6,0.6,1.4,0.9,2.3,0.9c0.6,0,1.1-0.1,1.7-0.5
		s0.9-0.7,1.2-1.2v1.6h1.8v-8.6H354v4.6C354,370.2,353.8,370.8,353.3,371.2z M346,369c0-1.2-0.4-2.3-1.3-3.1
		c-0.9-0.9-1.9-1.3-3.2-1.3c-1.3,0-2.4,0.4-3.2,1.3c-0.9,0.9-1.3,1.9-1.3,3.1s0.4,2.3,1.3,3.1c0.9,0.9,1.9,1.3,3.2,1.3
		c1.3,0,2.4-0.4,3.2-1.3C345.5,371.3,346,370.3,346,369z M338.7,369c0-0.8,0.3-1.5,0.8-2s1.2-0.8,1.9-0.8c0.8,0,1.4,0.3,1.9,0.8
		s0.8,1.2,0.8,2c0,0.8-0.3,1.5-0.8,2c-0.5,0.5-1.2,0.8-1.9,0.8c-0.8,0-1.4-0.3-1.9-0.8C339,370.6,338.7,369.9,338.7,369z M331,376.3
		c0.5-0.3,0.8-0.8,1.1-1.3l4.2-10.2h-1.9l-2.6,6.3l-2.6-6.3h-1.9c2.3,5.7,3.5,8.7,3.5,8.8c0,0.3-0.1,0.7-0.4,1
		c-0.3,0.3-0.6,0.4-1,0.4s-0.8-0.2-1.2-0.5l-0.8,1.5c0.6,0.6,1.3,0.9,2.1,0.9C330,376.8,330.5,376.6,331,376.3z M321.7,366.2v-1.5
		h-2.3v-2.7h-1.8v2.7h-1.1v1.5h1.1v4.3c0,0.9,0.3,1.6,0.8,2.2s1.2,0.8,2,0.8c0.8,0,1.5-0.3,2.1-0.9l-0.7-1.3
		c-0.4,0.4-0.7,0.6-1.1,0.6c-0.4,0-0.7-0.1-0.9-0.4s-0.3-0.6-0.3-1v-4.4L321.7,366.2L321.7,366.2z M312.1,371.2
		c-0.5,0.4-1,0.6-1.6,0.6c-1.3,0-2-0.8-2-2.4v-4.7h-1.8v5.3c0,1.1,0.3,2,0.9,2.6c0.6,0.6,1.4,0.9,2.3,0.9c0.6,0,1.1-0.1,1.7-0.5
		s0.9-0.7,1.2-1.2v1.6h1.8v-8.6h-1.8v4.6C312.8,370.2,312.6,370.8,312.1,371.2z M304.8,369c0-1.2-0.4-2.3-1.3-3.1
		c-0.9-0.9-1.9-1.3-3.2-1.3s-2.4,0.4-3.2,1.3c-0.9,0.9-1.3,1.9-1.3,3.1s0.4,2.3,1.3,3.1c0.9,0.9,1.9,1.3,3.2,1.3s2.4-0.4,3.2-1.3
		C304.3,371.3,304.8,370.3,304.8,369z M297.5,369c0-0.8,0.3-1.5,0.8-2c0.5-0.5,1.2-0.8,1.9-0.8c0.8,0,1.4,0.3,1.9,0.8
		c0.5,0.5,0.8,1.2,0.8,2c0,0.8-0.3,1.5-0.8,2c-0.5,0.5-1.2,0.8-1.9,0.8c-0.8,0-1.4-0.3-1.9-0.8C297.8,370.6,297.5,369.9,297.5,369z
		 M285.2,376.3c0.5-0.3,0.8-0.8,1.1-1.3l4.2-10.2h-1.9l-2.6,6.3l-2.6-6.3h-1.9c2.3,5.7,3.5,8.7,3.5,8.8c0,0.3-0.1,0.7-0.4,1
		c-0.3,0.3-0.6,0.4-1,0.4s-0.8-0.2-1.2-0.5l-0.8,1.5c0.6,0.6,1.3,0.9,2.1,0.9C284.3,376.8,284.8,376.6,285.2,376.3z M280.8,366.5
		l0-1.8c-0.6,0-1.1,0.2-1.6,0.5c-0.5,0.3-0.9,0.8-1.2,1.3v-1.7h-1.8v8.6h1.8v-3.7c0-1,0.2-1.8,0.7-2.3
		C279.2,366.7,279.8,366.5,280.8,366.5L280.8,366.5L280.8,366.5z M274,366.2v-1.5h-2.3v-2.7h-1.8v2.7h-1.1v1.5h1.1v4.3
		c0,0.9,0.3,1.6,0.8,2.2c0.5,0.5,1.2,0.8,2,0.8s1.5-0.3,2.1-0.9l-0.7-1.3c-0.4,0.4-0.7,0.6-1.1,0.6s-0.7-0.1-0.9-0.4
		c-0.2-0.2-0.3-0.6-0.3-1v-4.4L274,366.2L274,366.2z M262.1,369c-0.3-0.2-0.6-0.3-0.8-0.5c-0.3-0.1-0.5-0.2-0.8-0.3
		s-0.6-0.2-0.9-0.3c-0.4-0.1-0.6-0.2-0.8-0.3c-0.3-0.1-0.4-0.3-0.4-0.6c0-0.3,0.1-0.5,0.4-0.7c0.3-0.2,0.6-0.2,1-0.2
		c0.8,0,1.6,0.2,2.3,0.7l0.7-1.3c-0.9-0.6-1.8-0.9-2.8-0.9c-1,0-1.8,0.2-2.4,0.7c-0.6,0.5-0.9,1.1-0.9,1.9c0,1.1,0.9,1.9,2.7,2.4
		l0.2,0.1c1.1,0.3,1.7,0.7,1.7,1.2c0,0.3-0.1,0.5-0.4,0.7c-0.2,0.2-0.6,0.3-1,0.3c-0.9,0-1.9-0.4-2.9-1.1l-0.9,1.4
		c0.5,0.4,1.1,0.7,1.8,1c0.7,0.2,1.3,0.3,1.9,0.3c0.9,0,1.7-0.2,2.3-0.7s0.9-1.1,0.9-2S262.7,369.4,262.1,369z M249.4,370.9l1.3-1.3
		l2.5,3.8h2.2l-3.5-5.2l3.3-3.4h-2.3l-3.5,3.6v-7h-1.8v12h1.8V370.9z M245.8,371.9l-1.1-1.2c-0.7,0.7-1.5,1.1-2.3,1.1
		s-1.5-0.3-2-0.8c-0.5-0.5-0.8-1.2-0.8-2s0.3-1.4,0.8-1.9c0.6-0.5,1.2-0.7,2-0.7s1.5,0.3,2.2,1l1.1-1.3c-0.9-0.9-2-1.3-3.3-1.3
		s-2.4,0.4-3.3,1.2s-1.3,1.9-1.3,3.2s0.4,2.4,1.3,3.2s1.9,1.2,3.1,1.2C243.5,373.5,244.7,372.9,245.8,371.9z M233.2,371.2
		c-0.5,0.4-1,0.6-1.6,0.6c-1.3,0-2-0.8-2-2.4v-4.7h-1.8v5.3c0,1.1,0.3,2,0.9,2.6s1.4,0.9,2.3,0.9c0.6,0,1.1-0.1,1.7-0.5
		s0.9-0.7,1.2-1.2v1.6h1.8v-8.6h-1.8v4.6C233.9,370.2,233.7,370.8,233.2,371.2z M218.7,368.5h2.7c1.6,0,2.4,0.5,2.4,1.5
		c0,0.6-0.2,1-0.6,1.2c-0.4,0.2-0.9,0.3-1.6,0.3h-3L218.7,368.5L218.7,368.5z M218.7,363.8h2.4c0.7,0,1.2,0.1,1.5,0.4
		c0.3,0.2,0.5,0.6,0.5,1.2c0,0.9-0.7,1.4-2.1,1.4h-2.4L218.7,363.8L218.7,363.8z M225,372.3c0.5-0.6,0.8-1.3,0.8-2.1
		c0-0.7-0.2-1.3-0.6-1.8s-1-0.8-1.7-0.9c0.2-0.1,0.3-0.1,0.4-0.2s0.2-0.1,0.4-0.3c0.6-0.4,0.8-1.1,0.8-2c0-0.7-0.3-1.4-0.8-2
		c-0.3-0.3-0.7-0.6-1.2-0.7c-0.6-0.2-1.2-0.3-2-0.3h-4.4v11.3h4.9C223.3,373.3,224.4,373,225,372.3z M203.5,366.9
		c0.4-0.5,1-0.8,1.7-0.8s1.3,0.3,1.8,0.8c0.5,0.5,0.7,1.1,0.7,1.9s-0.2,1.4-0.7,1.8c-0.5,0.5-1.1,0.7-1.8,0.7s-1.3-0.3-1.8-0.8
		c-0.4-0.5-0.7-1.1-0.7-1.8S203,367.4,203.5,366.9z M207.7,364.8v1.3c-0.7-0.9-1.6-1.4-2.8-1.4c-1.1,0-2.1,0.4-2.8,1.2
		c-0.7,0.8-1.1,1.8-1.1,3s0.4,2.2,1.1,3c0.7,0.8,1.7,1.2,2.8,1.2c0.6,0,1.2-0.1,1.7-0.5c0.5-0.3,0.9-0.7,1.2-1.2v1.1
		c0,1-0.2,1.7-0.8,2.1c-0.5,0.4-1.2,0.7-2,0.7c-0.9,0-1.7-0.3-2.5-1l-0.9,1.4c1,0.8,2.2,1.2,3.5,1.2s2.3-0.4,3.2-1.1
		s1.2-1.9,1.2-3.4v-7.5H207.7z M196.6,371.5c-0.4,0.3-0.9,0.5-1.5,0.5c-0.6,0-1-0.1-1.3-0.3c-0.3-0.2-0.5-0.5-0.5-1
		c0-0.8,0.6-1.2,2-1.2h2v0.7C197.3,370.7,197,371.1,196.6,371.5z M199.1,367.8c0-1.1-0.3-1.9-1-2.4c-0.6-0.5-1.5-0.8-2.5-0.8
		c-1.3,0-2.5,0.4-3.5,1.2l0.8,1.1c0.9-0.6,1.7-0.9,2.5-0.9c1.3,0,1.9,0.6,1.9,1.7v0.3h-2.3c-1.1,0-1.9,0.2-2.5,0.6
		c-0.6,0.4-0.9,1.1-0.9,1.9s0.3,1.5,0.9,2c0.6,0.5,1.3,0.8,2.2,0.8c1.2,0,2.1-0.4,2.9-1.3v1.1h1.6V367.8z M183.5,367.5l2,5.9h2.1
		l3-8.6h-1.9l-2.1,6.5l-2.1-6.5h-1.9l-2.1,6.5l-2.1-6.5h-1.9l3,8.6h2.1L183.5,367.5z M172.8,363.8c0.6,0.2,1,0.4,1.4,0.7l1-1.4
		c-0.5-0.4-1.1-0.8-1.8-1s-1.4-0.4-2.1-0.4c-1.1,0-2.1,0.3-2.8,0.8c-0.8,0.6-1.1,1.4-1.1,2.4c0,1,0.3,1.8,1,2.3
		c0.3,0.3,0.7,0.5,1.1,0.7c0.4,0.2,1.1,0.4,1.9,0.5c0.8,0.2,1.4,0.4,1.7,0.7c0.3,0.2,0.5,0.6,0.5,1s-0.2,0.8-0.5,1
		c-0.4,0.3-0.8,0.4-1.5,0.4c-1.2,0-2.4-0.5-3.5-1.5l-1.2,1.4c1.4,1.2,2.9,1.8,4.7,1.8c1.2,0,2.2-0.3,2.9-0.9s1.1-1.4,1.1-2.4
		s-0.3-1.7-0.9-2.2c-0.6-0.5-1.5-0.9-2.6-1.2c-1.2-0.3-1.9-0.5-2.3-0.8c-0.4-0.2-0.5-0.6-0.5-1c0-0.5,0.2-0.8,0.5-1
		c0.4-0.2,0.8-0.3,1.4-0.3C171.7,363.6,172.3,363.6,172.8,363.8z M154.4,366.9c0.4-0.5,1-0.8,1.7-0.8s1.3,0.3,1.8,0.8
		c0.5,0.5,0.7,1.1,0.7,1.9s-0.2,1.4-0.7,1.8c-0.5,0.5-1.1,0.7-1.8,0.7s-1.3-0.3-1.8-0.8c-0.4-0.5-0.7-1.1-0.7-1.8
		S154,367.4,154.4,366.9z M158.7,364.8v1.3c-0.7-0.9-1.6-1.4-2.8-1.4c-1.1,0-2.1,0.4-2.8,1.2c-0.7,0.8-1.1,1.8-1.1,3s0.4,2.2,1.1,3
		c0.7,0.8,1.7,1.2,2.8,1.2c0.6,0,1.2-0.1,1.7-0.5c0.5-0.3,0.9-0.7,1.2-1.2v1.1c0,1-0.2,1.7-0.8,2.1c-0.5,0.4-1.2,0.7-2,0.7
		c-0.9,0-1.7-0.3-2.5-1l-0.9,1.4c1,0.8,2.2,1.2,3.5,1.2s2.3-0.4,3.2-1.1s1.2-1.9,1.2-3.4v-7.5H158.7z M144.6,366.9
		c0.5-0.4,1-0.6,1.6-0.6c1.3,0,2,0.8,2,2.4v4.7h1.8v-5.3c0-1.1-0.3-2-0.9-2.6s-1.4-0.9-2.3-0.9c-0.6,0-1.1,0.2-1.7,0.5
		c-0.5,0.3-0.9,0.7-1.2,1.2v-1.6h-1.8v8.6h1.8v-4.6C143.9,367.9,144.1,367.3,144.6,366.9z M138.6,363.4c0.3,0,0.6-0.1,0.8-0.3
		c0.2-0.2,0.3-0.5,0.3-0.8s-0.1-0.6-0.3-0.8c-0.2-0.2-0.5-0.3-0.8-0.3c-0.3,0-0.6,0.1-0.8,0.3c-0.2,0.2-0.3,0.5-0.3,0.8
		s0.1,0.6,0.3,0.8C138,363.3,138.3,363.4,138.6,363.4z M139.5,364.8h-1.8v8.6h1.8V364.8z M129.8,366.9c0.5-0.4,1-0.6,1.6-0.6
		c1.3,0,2,0.8,2,2.4v4.7h1.8v-5.3c0-1.1-0.3-2-0.9-2.6s-1.4-0.9-2.3-0.9c-0.6,0-1.1,0.2-1.7,0.5c-0.5,0.3-0.9,0.7-1.2,1.2v-1.6h-1.8
		v8.6h1.8v-4.6C129.1,367.9,129.3,367.3,129.8,366.9z M125.5,366.5l0-1.8c-0.6,0-1.1,0.2-1.6,0.5c-0.5,0.3-0.9,0.8-1.2,1.3v-1.7
		h-1.8v8.6h1.8v-3.7c0-1,0.2-1.8,0.7-2.3C123.8,366.7,124.5,366.5,125.5,366.5L125.5,366.5L125.5,366.5z M115.9,371.5
		c-0.4,0.3-0.9,0.5-1.5,0.5c-0.6,0-1-0.1-1.3-0.3c-0.3-0.2-0.5-0.5-0.5-1c0-0.8,0.7-1.2,2-1.2h2v0.7
		C116.6,370.7,116.3,371.1,115.9,371.5z M118.4,367.8c0-1.1-0.3-1.9-1-2.4c-0.6-0.5-1.5-0.8-2.5-0.8c-1.3,0-2.5,0.4-3.5,1.2l0.8,1.1
		c0.9-0.6,1.7-0.9,2.5-0.9c1.3,0,1.9,0.6,1.9,1.7v0.3h-2.3c-1.1,0-1.9,0.2-2.5,0.6c-0.6,0.4-0.9,1.1-0.9,1.9s0.3,1.5,0.9,2
		c0.6,0.5,1.3,0.8,2.2,0.8c1.2,0,2.1-0.4,2.9-1.3v1.1h1.6C118.4,373.3,118.4,367.8,118.4,367.8z M103.5,366.8
		c0.5-0.4,1.1-0.6,1.8-0.6s1.2,0.2,1.7,0.6c0.5,0.4,0.7,0.9,0.7,1.7h-4.9C102.7,367.7,103,367.2,103.5,366.8z M109.4,368.6
		c0-1.2-0.4-2.2-1.2-2.9s-1.8-1.1-3-1.1c-1.2,0-2.2,0.4-3,1.2c-0.9,0.8-1.3,1.9-1.3,3.2s0.4,2.4,1.3,3.2s1.9,1.2,3.1,1.2
		c1.5,0,2.7-0.5,3.6-1.4l-1-1.1c-0.6,0.7-1.4,1-2.5,1c-0.7,0-1.3-0.2-1.8-0.6c-0.5-0.4-0.8-0.9-0.9-1.5h6.7
		C109.4,369.8,109.4,368.6,109.4,368.6z"/>
	<path fill="#CCCCCC" d="M477.5,240.7c0,10.2-8.2,18.4-18.4,18.4H152.9c-10.2,0-18.4-8.2-18.4-18.4v-161c0-10.2,8.2-18.4,18.4-18.4
		h306.1c10.2,0,18.4,8.2,18.4,18.4L477.5,240.7L477.5,240.7z"/>
	<circle fill="#CCCCCC" cx="145.8" cy="69.7" r="29"/>
	<path fill="#FFFFFF" d="M477.5,234c0,10.2-8.2,18.4-18.4,18.4H152.9c-10.2,0-18.4-8.2-18.4-18.4V73c0-10.2,8.2-18.4,18.4-18.4
		h306.1c10.2,0,18.4,8.2,18.4,18.4L477.5,234L477.5,234z"/>
	<rect x="284.2" y="103.2" fill="#98D2B5" width="52.7" height="8"/>
	<rect x="348.5" y="103.2" fill="#98D2B5" width="84.1" height="8"/>
	<rect x="284.2" y="126" fill="#BAE1CD" width="161.6" height="8"/>
	<rect x="284.2" y="146.4" fill="#BAE1CD" width="161.6" height="8"/>
	<rect x="284.2" y="165.5" fill="#BAE1CD" width="161.6" height="8"/>
	<rect x="284.2" y="185.9" fill="#BAE1CD" width="161.6" height="8"/>
	<path fill="#DFF1E8" d="M245.6,195.2h-70.3c-8.2,0-14.8-6.6-14.8-14.8v-70.3c0-8.2,6.6-14.8,14.8-14.8h70.3
		c8.2,0,14.8,6.6,14.8,14.8v70.3C260.4,188.6,253.8,195.2,245.6,195.2z"/>
	<path fill="#EEEEEE" d="M134.7,73v23.4c3.4,1.5,7.2,2.3,11.2,2.3c16,0,29-13.1,29-29.1c0-5.5-1.6-10.5-4.3-15.2h-17.6
		C142.8,54.4,134.7,62.8,134.7,73z"/>
	<circle fill="#50B380" cx="145.8" cy="65.7" r="29"/>
	<path fill="#FFFFFE" d="M159.1,60.3c0-0.4-0.2-0.9-0.5-1.2l-2.3-2.3c-0.3-0.3-0.7-0.5-1.2-0.5c-0.4,0-0.9,0.2-1.2,0.5l-11.3,11.3
		l-5.1-5.1c-0.3-0.3-0.7-0.5-1.2-0.5s-0.9,0.2-1.2,0.5l-2.3,2.3c-0.3,0.3-0.5,0.7-0.5,1.2s0.2,0.9,0.5,1.2l6.2,6.2l2.3,2.3
		c0.3,0.3,0.7,0.5,1.2,0.5s0.9-0.2,1.2-0.5l2.3-2.3l12.5-12.5C159,61.2,159.1,60.8,159.1,60.3z"/>
</g>
<g>
	<path fill="#BAE1CD" d="M232.4,119.5c4.5,5.5,6.5,12.9,6.1,22.1c1.7,0.7,2.9,2.9,2.9,5.5c0,3.2-1.9,5.8-4.1,5.8
		c-0.2,0-0.4,0-0.5-0.1c-2.1,9.6-7.9,17.5-15.5,21.4v4.6l2.3,1.1c0-0.2,0.2-0.5,0.4-0.6c0.2-0.1,0.5-0.1,0.8,0l28,14.1
		c3.7-2,6.4-5.5,7.4-9.6v-77.2c-1.5-6.5-7.4-11.4-14.4-11.4H211v14.3C212.2,109.7,224.7,110.2,232.4,119.5z"/>
	<path fill="#98D2B5" d="M203.7,176c-1.7-0.5-3.4-1.2-5-2v4.6L203.7,176z"/>
	<path fill="#98D2B5" d="M221.2,178.8v-4.6c-1.7,0.9-3.4,1.5-5.3,2L221.2,178.8z"/>
	<path fill="#98D2B5" d="M196.7,180.2l0,0.1c1,6.5,6.7,11.5,13.3,11.5c6.7,0,12.5-5,13.4-11.6l0-0.1c0,0,0,0,0-0.1l-2.3-1.1
		l-5.3-2.6c-1.9,0.5-3.8,0.7-5.7,0.7c-2.2,0-4.4-0.3-6.4-0.9l-5,2.6l-2.3,1.2C196.6,179.8,196.6,180,196.7,180.2z"/>
	<path fill="#449E70" d="M224.9,181.4c-1.5,6.9-7.7,12.1-14.9,12.1c-7.1,0-13.3-5-14.8-11.9l-25,12.8c1.6,0.6,3.3,0.9,5.1,0.9h70.3
		c1.8,0,3.5-0.3,5-0.9L224.9,181.4z"/>
	<path fill="#449E70" d="M223.8,179.4c-0.2,0.1-0.4,0.4-0.4,0.6c0,0,0,0,0,0.1l0,0.1c-0.9,6.6-6.7,11.6-13.4,11.6
		c-6.6,0-12.4-4.9-13.3-11.5l0-0.1c0-0.2-0.1-0.3-0.2-0.4c-0.1-0.1-0.1-0.1-0.2-0.2c-0.2-0.1-0.5-0.1-0.8,0l-27.2,13.9
		c0.6,0.3,1.3,0.6,2,0.9l25-12.8c1.5,6.9,7.7,11.9,14.8,11.9c7.2,0,13.4-5.1,14.9-12.1l25.8,13c0.7-0.2,1.4-0.5,2-0.9l-28-14.1
		C224.4,179.2,224.1,179.2,223.8,179.4z"/>
	<path fill="#BAE1CD" d="M182.9,146.2c-0.2-1.3-0.3-3-0.4-4.9c-2.1,0.2-3.8,2.7-3.8,5.7c0,3.2,1.9,5.8,4.2,5.8c0.3,0,0.6,0,0.8-0.1
		C183.2,150.6,182.9,148.5,182.9,146.2z"/>
	<path fill="#DFF1E8" d="M237.2,152.9c2.3,0,4.1-2.6,4.1-5.8c0-2.6-1.2-4.8-2.9-5.5c-0.1,3-0.5,6.1-1.2,9.4c0,0.1-0.1,0.2-0.2,0.2
		l0,0c0,0,0,0,0,0c-0.1,0.5-0.2,1.1-0.3,1.6C236.8,152.8,237,152.9,237.2,152.9z"/>
	<path fill="#DFF1E8" d="M214.2,128.5c-0.9,0.6-2.4,1.5-4,2.5v2.2C211.4,132,212.8,130.4,214.2,128.5z"/>
	<path fill="#DFF1E8" d="M215.9,176.2c1.8-0.5,3.6-1.1,5.3-2c7.6-3.9,13.4-11.8,15.5-21.4c0.1-0.5,0.2-1,0.3-1.6
		c-0.1,0-0.2-0.1-0.2-0.2c-0.1-0.1-4.9-12.3-6.9-25.4c-1.5,2-7.1,8.6-19.6,10.5v5.3h0c0.3,0,0.5,0.2,0.6,0.4l2.8,13.8
		c0,0.2,0,0.3-0.1,0.5c-0.1,0.1-0.3,0.2-0.4,0.2l-2.8,0v7.2c3.3,0,7.1-0.7,11.3-3c-2.3,5.7-6.3,9.6-11,9.6c-0.1,0-0.2,0-0.3,0v6.7
		C212.1,176.9,214.1,176.6,215.9,176.2z M225.9,158.5c-0.6,0-1-0.5-1-1c0-0.6,0.5-1,1-1c0.6,0,1,0.5,1,1
		C226.9,158.1,226.4,158.5,225.9,158.5z M229.9,152.8c0.6,0,1,0.5,1,1s-0.5,1-1,1s-1-0.5-1-1C228.9,153.2,229.3,152.8,229.9,152.8z
		 M225.6,144.5c1.3,0,2.3,1,2.3,2.3c0,1.3-1,2.3-2.3,2.3c-1.3,0-2.3-1-2.3-2.3C223.3,145.5,224.3,144.5,225.6,144.5z M221.2,155.8
		c-0.6,0-1-0.5-1-1s0.5-1,1-1s1,0.5,1,1C222.3,155.4,221.8,155.8,221.2,155.8z"/>
	<path fill="#BAE1CD" d="M203.7,176c2.1,0.6,4.2,0.9,6.4,0.9v-6.7c-4.5-0.2-8.5-3.9-10.7-9.6c0,0,4.3,3,10.7,3v-7.2l-2.2,0h0
		c-0.2,0-0.3-0.1-0.4-0.2c-0.1-0.1-0.2-0.3-0.1-0.5l2.2-13.8c0-0.3,0.3-0.5,0.5-0.5h0v-5.3c-1.1,0.2-2.1,0.3-3.3,0.4
		c-0.1,0-0.2-0.1-0.3-0.2c0-0.1,0-0.3,0.1-0.3c0,0,1.5-1,3.5-3V131c-3.7,2.1-8.6,4.7-12.6,5.7l-0.2,0l-0.1-0.2c0,0-0.3-2-0.6-4.8
		C194,136,185.5,150,183.7,150c-0.1,0-0.2-0.1-0.3-0.2c0,0-0.3-1.4-0.6-3.6c0.1,2.2,0.3,4.4,0.8,6.5c2,9.4,7.6,17.2,15.1,21.2
		C200.3,174.8,202,175.5,203.7,176z M199.1,152.6c0.6,0,1,0.5,1,1c0,0.6-0.5,1-1,1c-0.6,0-1-0.5-1-1S198.5,152.6,199.1,152.6z
		 M189.4,154.6c0-0.6,0.5-1,1-1c0.6,0,1,0.5,1,1c0,0.6-0.5,1-1,1C189.8,155.7,189.4,155.2,189.4,154.6z M195,158.4c-0.6,0-1-0.5-1-1
		c0-0.6,0.5-1,1-1c0.6,0,1,0.5,1,1C196.1,157.9,195.6,158.4,195,158.4z M194.7,144.5c1.3,0,2.3,1,2.3,2.3c0,1.3-1,2.3-2.3,2.3
		c-1.3,0-2.3-1-2.3-2.3S193.5,144.5,194.7,144.5z"/>
	<circle fill="#449E70" cx="194.7" cy="146.8" r="2.3"/>
	<circle fill="#449E70" cx="225.6" cy="146.8" r="2.3"/>
	<path fill="#50B380" d="M210.2,113v18c1.7-1,3.1-1.9,4-2.5c-1.4,1.9-2.8,3.5-4,4.7v3.1c12.5-1.9,18.2-8.5,19.6-10.5
		c2,13.1,6.9,25.2,6.9,25.4c0,0.1,0.1,0.2,0.2,0.2c0,0,0,0,0,0l0,0c0.1,0,0.2-0.1,0.2-0.2c0.7-3.3,1.1-6.5,1.2-9.4
		c0.4-9.2-1.6-16.6-6.1-22.1c-7.7-9.4-20.2-9.9-21.4-9.9c-0.1,0-0.1,0-0.1,0h0c-0.2,0-0.5,0-0.7,0.1V113z"/>
	<circle fill="#98D2B5" cx="190.4" cy="154.6" r="1"/>
	<circle fill="#98D2B5" cx="195" cy="157.3" r="1"/>
	<circle fill="#98D2B5" cx="199.1" cy="153.6" r="1"/>
	<circle fill="#BAE1CD" cx="221.2" cy="154.8" r="1"/>
	<circle fill="#BAE1CD" cx="225.9" cy="157.5" r="1"/>
	<circle fill="#BAE1CD" cx="229.9" cy="153.8" r="1"/>
	<path fill="#449E70" d="M182.9,146.2c0.3,2.2,0.6,3.5,0.6,3.6c0,0.1,0.1,0.2,0.3,0.2c1.8,0,10.2-14,12.9-18.4
		c0.2,2.8,0.6,4.8,0.6,4.8l0.1,0.2l0.2,0c4.1-1,9-3.6,12.6-5.7v-18v-3.3c-10.1,0.9-17.6,4.7-22.3,11.1c-4.7,6.5-5.6,14.6-5.4,20.5
		C182.5,143.2,182.7,144.9,182.9,146.2z"/>
	<path fill="#449E70" d="M206.7,136.1c-0.1,0.1-0.2,0.2-0.1,0.3c0,0.1,0.2,0.2,0.3,0.2c1.1-0.1,2.2-0.2,3.3-0.4v-3.1
		C208.2,135.1,206.7,136.1,206.7,136.1z"/>
	<polygon fill="#98D2B5" points="212.3,155.4 210.2,145.2 208.6,155.4 	"/>
	<path fill="#98D2B5" d="M213,156.5c0.2,0,0.3-0.1,0.4-0.2c0.1-0.1,0.1-0.3,0.1-0.5l-2.8-13.8c-0.1-0.3-0.3-0.4-0.6-0.4h0h0
		c-0.3,0-0.5,0.2-0.5,0.5l-2.2,13.8c0,0.2,0,0.3,0.1,0.5c0.1,0.1,0.3,0.2,0.4,0.2h0l2.2,0L213,156.5z M210.2,145.2l2,10.1l-3.7,0
		L210.2,145.2z"/>
	<path fill="#FFFFFE" d="M221.4,160.7c-4.1,2.3-8,3.1-11.3,3c-6.4-0.1-10.7-3-10.7-3c2.2,5.6,6.2,9.4,10.7,9.6c0.1,0,0.2,0,0.3,0
		C215.1,170.2,219.2,166.4,221.4,160.7z"/>
</g>
</svg>
