<?xml version="1.0" encoding="utf-8"?>
<!-- Generator: Adobe Illustrator 17.1.0, SVG Export Plug-In . SVG Version: 6.00 Build 0)  -->
<!DOCTYPE svg PUBLIC "-//W3C//DTD SVG 1.1//EN" "http://www.w3.org/Graphics/SVG/1.1/DTD/svg11.dtd">
<svg version="1.1" id="Layer_1" xmlns="http://www.w3.org/2000/svg" xmlns:xlink="http://www.w3.org/1999/xlink" x="0px" y="0px"
	 width="200px" height="170px" viewBox="0 0 200 170" enable-background="new 0 0 200 170" xml:space="preserve">
<g>
	<circle fill="#FFFFFE" cx="84.3" cy="89.7" r="79.8"/>
	<g>
		<g>
			<path fill="#DEEFE6" d="M191.9,104.1h-67.5c-0.2-8.3-2.8-16-7.3-22.3l-66-0.4c-4.8,6.6-7.6,14.8-7.6,23.6
				c0,22.3,18.1,40.5,40.5,40.5c20.4,0,37.3-15.2,40.1-34.8h67.8c1.8,0,3.3-1.5,3.3-3.3C195.2,105.5,193.7,104.1,191.9,104.1z"/>
			<path fill="#DEEFE6" d="M84,146.4c-22.8,0-41.4-18.6-41.4-41.4c0-8.7,2.7-17.1,7.8-24.2l0.3-0.4l67,0.4l0.3,0.4
				c4.5,6.4,7.1,14,7.4,21.9h66.5c2.3,0,4.2,1.9,4.2,4.2c0,2.3-1.9,4.2-4.2,4.2h-67C121.7,131.5,104.3,146.4,84,146.4z M51.6,82.3
				c-4.7,6.7-7.1,14.5-7.1,22.6c0,21.8,17.7,39.5,39.5,39.5c19.6,0,36.4-14.6,39.1-34l0.1-0.8h68.7c1.3,0,2.3-1,2.3-2.3
				c0-1.3-1-2.3-2.3-2.3h-68.4l0-0.9c-0.2-7.7-2.5-15.1-6.8-21.4L51.6,82.3z"/>
		</g>
		<g>
			<circle fill="#74C29A" cx="94.3" cy="122" r="12"/>
			<path fill="#74C29A" d="M94.3,134.5c-6.9,0-12.5-5.6-12.5-12.5c0-6.9,5.6-12.5,12.5-12.5c6.9,0,12.5,5.6,12.5,12.5
				C106.8,128.9,101.2,134.5,94.3,134.5z M94.3,110.5c-6.3,0-11.5,5.2-11.5,11.5s5.2,11.5,11.5,11.5c6.4,0,11.5-5.2,11.5-11.5
				C105.8,115.7,100.6,110.5,94.3,110.5z"/>
		</g>
		<g>
			<path fill="#449D71" d="M102.7,106.2c-5.4,0-9.7-4.4-9.7-9.7c0-5.4,4.4-9.7,9.7-9.7c5.4,0,9.7,4.4,9.7,9.7
				C112.4,101.8,108,106.2,102.7,106.2z M102.7,89.5c-3.8,0-6.9,3.1-6.9,6.9c0,3.8,3.1,6.9,6.9,6.9c3.8,0,6.9-3.1,6.9-6.9
				C109.5,92.6,106.5,89.5,102.7,89.5z"/>
		</g>
		<g>
			<path fill="#449D71" d="M86.4,81.6l-35.3-0.3c-4.8,6.6-7.6,14.8-7.6,23.6c0,16.2,9.6,30.2,23.4,36.7l0-0.8v-28.3
				c-4.3,0-7.8-3.5-7.8-7.8c0-4.3,3.5-7.8,7.8-7.8c2.3,0,4.4,1,5.8,2.6c0,0,2.3-14.9,18.4-17.8L86.4,81.6z"/>
			<path fill="#449D71" d="M66.9,142.6c-0.1,0-0.3,0-0.4-0.1C52,135.7,42.6,121,42.6,104.9c0-8.7,2.7-17.1,7.8-24.2
				c0.2-0.3,0.5-0.4,0.8-0.4l35.3,0.3l4.8,0.1c0.5,0,0.9,0.4,0.9,0.9c0,0.5-0.3,0.9-0.8,1c-15.2,2.7-17.5,16.4-17.6,17
				c-0.1,0.4-0.3,0.7-0.7,0.8c-0.4,0.1-0.7,0-1-0.3c-1.3-1.5-3.2-2.3-5.1-2.3c-3.8,0-6.9,3.1-6.9,6.9s3.1,6.9,6.9,6.9
				c0.5,0,1,0.4,1,1v28.3l0,0.9c0,0.3-0.2,0.6-0.5,0.8C67.2,142.5,67.1,142.6,66.9,142.6z M51.6,82.3c-4.7,6.7-7.1,14.5-7.1,22.6
				c0,14.8,8.4,28.5,21.5,35.2l0-26.7c-4.4-0.5-7.8-4.2-7.8-8.7c0-4.8,3.9-8.8,8.8-8.8c1.9,0,3.8,0.6,5.3,1.8
				c1-3.4,4.1-11.2,12.8-15.1L51.6,82.3z"/>
		</g>
		<g>
			<path fill="#449D71" d="M111.4,95.8c0-2.8-2.3-5.1-5.1-5.1c-2.8,0-5.1,2.3-5.1,5.1c0,2.8,2.3,5.1,5.1,5.1
				C109.1,100.9,111.4,98.6,111.4,95.8z"/>
		</g>
		<g>
			<polyline fill="#74C29A" points="86.9,13.3 113.8,72.3 54.9,72.3 81.6,13.3 			"/>
			<polygon fill="#74C29A" points="115.3,73.3 53.5,73.3 80.7,12.9 82.4,13.7 56.4,71.4 112.3,71.4 86,13.7 87.7,12.9 			"/>
		</g>
		<g>
			<path fill="#337A57" d="M47.8,87.3l4.3-9.3l60.2-3.9l5.6,8.7c0,0-49.2,0.4-72.5,12.5C45.3,95.3,46.1,91.2,47.8,87.3z"/>
			<path fill="#347A57" d="M44,97l0.3-1.9c0-0.2,0.8-4.2,2.6-8.2l4.5-9.8l61.3-4l6.8,10.6l-1.7,0c-0.5,0-49.2,0.5-72.1,12.4L44,97z
				 M52.7,79l-4,8.8c-1,2.1-1.6,4.3-2,5.8c9.8-4.6,24.4-7.9,43.5-10c11.8-1.2,22-1.6,25.9-1.7l-4.3-6.8L52.7,79z"/>
		</g>
		<g>
			<path fill="#3E9168" d="M84,8.4l-4.6,11c1.2,1.2,2.8,1.9,4.6,1.9c1.8,0,3.4-0.7,4.6-1.9L84,8.4z"/>
			<path fill="#3E9168" d="M84,22.7c-2.1,0-4.1-0.8-5.6-2.4l-0.7-0.7l6.3-15l6.2,15.1l-0.7,0.7C88.1,21.9,86.1,22.7,84,22.7z
				 M81.1,18.9c1.7,1.2,4.1,1.2,5.7,0L84,12.1L81.1,18.9z"/>
		</g>
		<g>
			<path fill="#4FB280" d="M90.7,10.3c0-3.6-2.9-6.5-6.5-6.5c-3.6,0-6.5,2.9-6.5,6.5c0,3.6,2.9,6.5,6.5,6.5
				C87.8,16.7,90.7,13.8,90.7,10.3z"/>
			<path fill="#4FB280" d="M84.2,18.2c-4.3,0-7.9-3.5-7.9-7.9c0-4.3,3.5-7.9,7.9-7.9c4.3,0,7.9,3.5,7.9,7.9
				C92.1,14.6,88.6,18.2,84.2,18.2z M84.2,5.2c-2.8,0-5,2.3-5,5c0,2.8,2.3,5,5,5c2.8,0,5-2.3,5-5C89.2,7.5,87,5.2,84.2,5.2z"/>
		</g>
		<g>
			<path fill="#4FB280" d="M118.6,81.4c2.5,0,4.5-2,4.5-4.5c0-2.5-2-4.5-4.5-4.5H49.4c-2.5,0-4.5,2-4.5,4.5c0,2.5,2,4.5,4.5,4.5
				H118.6z"/>
			<path fill="#4FB280" d="M118.6,82.8H49.4c-3.3,0-6-2.7-6-6c0-3.3,2.7-6,6-6h69.1c3.3,0,6,2.7,6,6
				C124.5,80.1,121.8,82.8,118.6,82.8z M49.4,73.8c-1.7,0-3.1,1.4-3.1,3.1c0,1.7,1.4,3.1,3.1,3.1h69.1c1.7,0,3.1-1.4,3.1-3.1
				c0-1.7-1.4-3.1-3.1-3.1H49.4z"/>
		</g>
	</g>
</g>
</svg>
