<?xml version="1.0" encoding="utf-8"?>
<!-- Generator: Adobe Illustrator 17.1.0, SVG Export Plug-In . SVG Version: 6.00 Build 0)  -->
<!DOCTYPE svg PUBLIC "-//W3C//DTD SVG 1.1//EN" "http://www.w3.org/Graphics/SVG/1.1/DTD/svg11.dtd">
<svg version="1.1" id="Layer_1" xmlns="http://www.w3.org/2000/svg" xmlns:xlink="http://www.w3.org/1999/xlink" x="0px" y="0px"
	 width="135px" height="52px" viewBox="0 0 135 52" enable-background="new 0 0 135 52" xml:space="preserve">
<g>
	<path fill="#50B380" d="M107,0C93.5,0,91.9,5.2,67.6,5.2S41.6,0,28.1,0C14.7,0,0,11,0,26c0,15.1,14.7,26,28.1,26s15.1-5.2,39.4-5.2
		s25.9,5.2,39.4,5.2c13.5,0,28.1-11,28.1-26C135.1,10.9,120.4,0,107,0z"/>
	<g>
		<path fill="#FFFFFE" d="M62.3,25.4c0,0.9,0,1.6-0.1,1.9c-0.1,0.4-0.3,0.7-0.6,1c-0.3,0.3-0.8,0.4-1.5,0.4c-0.6,0-1.1-0.1-1.5-0.4
			c-0.4-0.3-0.6-0.7-0.7-1.1c-0.1-0.3-0.1-0.9-0.1-1.9V19h-2.3v6.1c0,1.3,0.1,2.3,0.2,2.9c0.1,0.4,0.3,0.9,0.6,1.3
			c0.3,0.4,0.8,0.7,1.3,1c0.6,0.3,1.4,0.4,2.5,0.4c0.9,0,1.6-0.1,2.2-0.3c0.6-0.2,1-0.5,1.3-0.9s0.6-0.9,0.7-1.4
			c0.1-0.6,0.2-1.5,0.2-2.9v-6h-2.3L62.3,25.4L62.3,25.4L62.3,25.4z"/>
		<polygon fill="#FFFFFE" points="49.9,26.7 45.2,19 43,19 43,30.5 45.1,30.5 45.1,23 49.7,30.5 52,30.5 52,19 49.9,19 		"/>
		<polygon fill="#FFFFFE" points="67.2,21 70.6,21 70.6,30.5 72.9,30.5 72.9,21 76.3,21 76.3,19 67.2,19 		"/>
		<path fill="#FFFFFE" d="M33.8,19l-4.4,11.5h2.4l0.9-2.6h4.5l1,2.6h2.5L36.3,19H33.8z M33.5,26l1.5-4.3l1.6,4.3H33.5z"/>
		<path fill="#FFFFFE" d="M13.6,19.2c-0.4-0.1-1.3-0.2-2.7-0.2H7.2v11.5h2.3v-4.3H11c1,0,1.8-0.1,2.4-0.2c0.4-0.1,0.8-0.3,1.2-0.5
			s0.7-0.7,1-1.1c0.3-0.5,0.4-1.1,0.4-1.8c0-0.9-0.2-1.7-0.7-2.2C14.8,19.7,14.2,19.4,13.6,19.2z M13.3,23.5
			c-0.2,0.3-0.4,0.4-0.7,0.6s-0.9,0.2-1.8,0.2H9.5V21h1.1c0.8,0,1.4,0,1.6,0.1c0.4,0.1,0.7,0.2,0.9,0.5s0.4,0.6,0.4,1
			C13.5,22.9,13.4,23.2,13.3,23.5z"/>
		<polygon fill="#FFFFFE" points="86.4,19.1 84.2,19.1 84.2,30.5 92.1,30.5 92.1,28.6 86.4,28.6 		"/>
		<polygon fill="#FFFFFE" points="21.2,25.4 26.9,25.4 26.9,23.5 21.2,23.5 21.2,21 27.3,21 27.3,19 18.9,19 18.9,30.5 27.5,30.5 
			27.5,28.6 21.2,28.6 		"/>
		<path fill="#FFFFFE" d="M98.1,19l-4.4,11.5h2.4l0.9-2.6h4.5l1,2.6h2.5L100.5,19H98.1z M97.8,26l1.5-4.3l1.6,4.3H97.8z"/>
		<path fill="#FFFFFE" d="M122.3,21.2c0.4-0.3,0.9-0.4,1.6-0.4c0.6,0,1.1,0.1,1.5,0.4c0.3,0.3,0.5,0.7,0.6,1.3l2.3-0.1
			c0-1.1-0.4-1.9-1.1-2.5c-0.7-0.6-1.8-0.9-3.2-0.9c-0.9,0-1.6,0.1-2.2,0.4c-0.6,0.3-1.1,0.7-1.4,1.2c-0.3,0.5-0.5,1.1-0.5,1.6
			c0,0.9,0.3,1.7,1,2.3c0.5,0.4,1.4,0.8,2.6,1.1c1,0.2,1.6,0.4,1.8,0.5c0.4,0.1,0.7,0.3,0.8,0.5s0.2,0.4,0.2,0.7
			c0,0.4-0.2,0.8-0.6,1.1c-0.4,0.3-0.9,0.5-1.7,0.5c-0.7,0-1.3-0.2-1.7-0.5c-0.4-0.4-0.7-0.9-0.8-1.7l-2.2,0.2
			c0.2,1.3,0.6,2.3,1.4,2.9c0.8,0.7,1.9,1,3.3,1c1,0,1.8-0.1,2.5-0.4c0.7-0.3,1.2-0.7,1.5-1.3c0.4-0.6,0.5-1.2,0.5-1.8
			c0-0.7-0.2-1.3-0.5-1.8c-0.3-0.5-0.7-0.9-1.3-1.2c-0.5-0.3-1.4-0.6-2.5-0.8c-1.1-0.3-1.8-0.5-2.1-0.8c-0.2-0.2-0.3-0.4-0.3-0.7
			C121.9,21.6,122,21.3,122.3,21.2z"/>
		<path fill="#FFFFFE" d="M114.7,24.4c0.5-0.2,0.9-0.6,1.2-1c0.3-0.4,0.4-0.9,0.4-1.5c0-0.5-0.1-0.9-0.3-1.3s-0.5-0.7-0.9-1
			c-0.3-0.2-0.7-0.4-1.2-0.5c-0.4-0.1-1.1-0.1-2-0.1h-4.5v11.5h3.9c1.5,0,2.4,0,2.8-0.1c0.6-0.1,1.1-0.2,1.5-0.5
			c0.4-0.3,0.7-0.7,1-1.2s0.4-1,0.4-1.5c0-0.7-0.2-1.2-0.6-1.7C116,25,115.4,24.6,114.7,24.4z M109.7,20.9h1.3c1.1,0,1.7,0,2,0
			c0.4,0,0.7,0.2,0.9,0.4c0.2,0.2,0.3,0.5,0.3,0.9c0,0.4-0.1,0.7-0.3,0.9c-0.2,0.2-0.5,0.4-0.9,0.4c-0.2,0-0.8,0-1.7,0h-1.5
			L109.7,20.9L109.7,20.9z M114.2,28c-0.2,0.2-0.5,0.4-0.8,0.5c-0.2,0-0.7,0.1-1.6,0.1h-2.1v-3.1h1.9c1,0,1.7,0.1,2,0.2
			s0.6,0.3,0.7,0.5c0.2,0.2,0.2,0.5,0.2,0.9C114.5,27.5,114.4,27.8,114.2,28z"/>
	</g>
</g>
</svg>
