<?xml version="1.0" encoding="utf-8"?>
<!-- Generator: Adobe Illustrator 17.1.0, SVG Export Plug-In . SVG Version: 6.00 Build 0)  -->
<!DOCTYPE svg PUBLIC "-//W3C//DTD SVG 1.1//EN" "http://www.w3.org/Graphics/SVG/1.1/DTD/svg11.dtd">
<svg version="1.1" id="Layer_1" xmlns="http://www.w3.org/2000/svg" xmlns:xlink="http://www.w3.org/1999/xlink" x="0px" y="0px"
	 width="537.5px" height="445.7px" viewBox="0 0 537.5 445.7" enable-background="new 0 0 537.5 445.7" xml:space="preserve">
<g>
	<polygon fill="#74C29A" points="430.4,106.6 265.9,10.9 101.3,106.6 99,102.6 265.9,5.6 432.7,102.6 	"/>
	
		<rect x="31.2" y="76.6" transform="matrix(-0.9976 6.860909e-02 -6.860909e-02 -0.9976 556.1137 467.0724)" fill="#FFFFFE" width="477.7" height="333"/>
	
		<rect x="38.5" y="95.8" transform="matrix(-0.9976 6.860909e-02 -6.860909e-02 -0.9976 528.1768 197.8446)" fill="#DEEFE6" width="444.4" height="24.4"/>
	<path fill="#97D1B4" d="M145.8,147.5c0,0-1.3-7.7,7.5-8.6c0,0-5.3,4.6-1.8,10.7L145.8,147.5z"/>
	<path fill="#97D1B4" d="M151.5,150.4c-0.1,0-0.2,0-0.3-0.1l-5.7-2.2c-0.3-0.1-0.4-0.3-0.5-0.6c0-0.1-0.6-3.5,1.5-6.3
		c1.4-1.8,3.6-2.9,6.6-3.2c0.4,0,0.6,0.2,0.8,0.5c0.1,0.3,0.1,0.7-0.2,0.9c-0.2,0.2-4.7,4.2-1.7,9.6c0.1,0.1,0.2,0.3,0.2,0.5
		C152.3,150.1,151.9,150.4,151.5,150.4L151.5,150.4z M146.6,146.9l3.5,1.3c-1.2-3.5,0.1-6.5,1.3-8.2c-1.5,0.4-2.7,1.2-3.5,2.2
		C146.5,144,146.5,146.1,146.6,146.9z"/>
	<path fill="#97D1B4" d="M225.9,211.9h-0.1c-5-39.6-40.2-68.9-80.5-66.1c-40.4,2.8-71.2,36.6-70.7,76.6h-0.1L80.9,416l165.3-11.4
		L225.9,211.9z"/>
	<path fill="#97D1B4" d="M444,207.4L444,207.4c-4.7-36.4-37-63.4-74.1-60.8c-37.1,2.6-65.4,33.7-65,70.4h-0.1l5.9,178l152-10.5
		L444,207.4z"/>
	<path fill="#74C29A" d="M369.9,146.6c-37.1,2.6-65.4,33.7-65,70.4h-0.1l5.9,178l76-5.2"/>
	<circle fill="#DEEFE6" cx="375.8" cy="223.4" r="19.1"/>
	<circle fill="#74C29A" cx="370.4" cy="226.8" r="8.2"/>
	<circle fill="#449D71" cx="370.4" cy="226.8" r="3.6"/>
	<path fill="#DEEFE6" d="M370.4,226.8l8.2,3.9c1.4-2.9,1.1-6.3-0.7-9L370.4,226.8z"/>
	<path fill="#97D1B4" d="M430.9,195.6c0,0,10.8,9.2,21.3,9.6c0,0-11.4-6.1-13.9-13.5L430.9,195.6z"/>
	<path fill="#97D1B4" d="M452.2,206L452.2,206c-10.7-0.4-21.4-9.4-21.8-9.7c-0.2-0.2-0.3-0.4-0.3-0.7s0.2-0.5,0.4-0.6l7.4-3.9
		c0.2-0.1,0.4-0.1,0.6,0s0.4,0.3,0.4,0.5c2.4,7.1,13.4,13,13.5,13.1c0.3,0.2,0.5,0.5,0.4,0.9C452.9,205.7,452.6,206,452.2,206z
		 M432.3,195.8c2.4,1.8,9.2,6.8,16.5,8.2c-3.4-2.3-8.8-6.4-10.9-11.2L432.3,195.8z"/>
	<path fill="#97D1B4" d="M429.3,188.3c0,0,10,6.1,18.7,5c0,0-10.1-3.5-13.1-9.2L429.3,188.3z"/>
	<path fill="#97D1B4" d="M445.8,194.2L445.8,194.2c-8.2,0-16.6-5-16.9-5.3c-0.2-0.1-0.4-0.4-0.4-0.6c0-0.3,0.1-0.5,0.3-0.6l5.6-4.2
		c0.2-0.1,0.4-0.2,0.6-0.1c0.2,0,0.4,0.2,0.5,0.4c2.8,5.4,12.6,8.8,12.7,8.8c0.3,0.1,0.5,0.4,0.5,0.8c0,0.4-0.3,0.6-0.7,0.7
		C447.3,194.2,446.6,194.2,445.8,194.2z M430.7,188.2c2.2,1.2,7.9,4,13.6,4.4c-3.1-1.5-7.5-4-9.7-7.4L430.7,188.2z"/>
	<path fill="#97D1B4" d="M436.8,236.6c0,0,10.8,9.2,21.3,9.6c0,0-11.4-6.1-13.9-13.5L436.8,236.6z"/>
	<path fill="#97D1B4" d="M458.1,247L458.1,247c-10.7-0.4-21.4-9.4-21.8-9.7c-0.2-0.2-0.3-0.4-0.3-0.7s0.2-0.5,0.4-0.6l7.4-3.9
		c0.2-0.1,0.4-0.1,0.6,0s0.4,0.3,0.4,0.5c2.4,7.1,13.4,13,13.5,13.1c0.3,0.2,0.5,0.5,0.4,0.9C458.8,246.7,458.4,247,458.1,247z
		 M438.2,236.8c2.4,1.8,9.2,6.8,16.5,8.2c-3.4-2.3-8.8-6.4-10.9-11.2L438.2,236.8z"/>
	<path fill="#97D1B4" d="M414.7,168.3c0,0,10.8,4.5,19.2,2.2c0,0-9.1-1.8-14.3-6.4L414.7,168.3z"/>
	<path fill="#97D1B4" d="M428.4,172c-7.1,0-13.8-2.8-14.1-2.9c-0.2-0.1-0.4-0.3-0.5-0.6c0-0.3,0.1-0.5,0.3-0.7l4.9-4.2
		c0.3-0.2,0.7-0.2,1,0c5,4.4,13.8,6.2,13.9,6.2c0.3,0.1,0.6,0.4,0.6,0.7c0,0.4-0.2,0.7-0.6,0.8C432.4,171.7,430.5,172,428.4,172z
		 M416.1,168.1c2.2,0.8,7.2,2.3,12.3,2.3c0.6,0,1.2,0,1.8-0.1c-3-0.9-7.4-2.6-10.7-5.2L416.1,168.1z"/>
	<path fill="#449D71" d="M376.6,271.4c-8.6,0-16.6-4.1-21.6-11.2c-0.7-1-0.5-2.5,0.5-3.2s2.5-0.5,3.2,0.5c4.5,6.3,11.7,9.7,19.4,9.2
		c7.7-0.5,14.4-4.9,17.9-11.8c0.6-1.1,2-1.6,3.1-1s1.6,2,1,3.1c-4.3,8.3-12.4,13.6-21.7,14.2C377.8,271.4,377.2,271.4,376.6,271.4z"
		/>
	<path fill="#4FB280" d="M356.9,219.4c1.8-8.2,8.8-14.6,17.5-15.2c8.8-0.6,16.6,4.8,19.5,12.6C393.9,216.9,374.7,207.5,356.9,219.4z
		"/>
	<path fill="#74C29A" d="M443.6,243.4c-0.1,0-0.3,0-0.4-0.1c-0.7-0.5-1.5-1-2.3-1.6c-6.7-5-11.7-12.5-15-18.7c0.1,2.9,0.5,5,0.5,5.1
		c0.1,0.8-0.3,1.5-1,1.8c-0.5,0.2-1.2,0.2-1.6-0.2c-0.1-0.1-0.3-0.2-0.3-0.4c-6.6-9.2-6-23.8-5.9-24.4c0-0.4,0.4-0.8,0.8-0.7
		c0.4,0,0.7,0.4,0.7,0.8c0,0.6-0.6,14.7,5.7,23.5h0.2l0.1-0.2c0,0-0.7-4-0.5-8.5c0-0.3,0.3-0.6,0.6-0.7s0.7,0.1,0.8,0.4
		c3.2,6.4,8.5,15.3,16,21c0.7,0.5,1.5,1.1,2.2,1.5c0.4,0.2,0.5,0.7,0.2,1.1C444.1,243.3,443.9,243.4,443.6,243.4z"/>
	<path fill="#74C29A" d="M407.2,192.2L407.2,192.2c-0.3,0-0.5-0.1-0.7-0.1c-10.1-3.9-17.8-14.4-20.7-18.7c-0.2-0.3-0.1-0.8,0.2-1.1
		c0.3-0.2,0.8-0.1,1.1,0.2c2.8,4.2,10.3,14.3,20,18.1c0.2,0,0.3,0,0.4-0.1s0.1-0.3,0-0.4c-0.7-0.7-2.7-2.7-5.2-6.8
		c-0.2-0.3-0.1-0.7,0.1-0.9s0.6-0.3,0.9-0.1c6.2,3.7,11.4,6.3,15.8,8c0.4,0.1,0.6,0.6,0.5,1s-0.6,0.6-1,0.5
		c-3.9-1.4-8.2-3.6-13.3-6.5c1.6,2.2,2.7,3.4,3.1,3.8c0.7,0.7,0.7,1.7,0.2,2.4C408.4,191.9,407.8,192.2,407.2,192.2z"/>
	<g>
		<path fill="#449D71" d="M390.6,214.8c0.8,0.2,1.6,0.2,2.4,0.2c0.6-0.4,1.2-0.8,1.8-1.3c1.6-1.5,2.4-3.5,2.5-5.7
			c0-0.4-0.3-0.8-0.8-0.8l0,0c-0.4,0-0.8,0.3-0.8,0.8c0,1.8-0.7,3.4-2,4.6c-1,0.9-2.1,1.5-3.4,1.8c-0.3,0.3-0.7,0.5-1.1,0.7
			c0.2,0.1,0.4,0.1,0.5,0.2C389.9,214.9,390.2,214.7,390.6,214.8z"/>
		<path fill="#449D71" d="M401.9,207.8c-0.4-0.1-0.8,0.2-0.9,0.6c-0.9,3.8-4.2,6.5-8,6.7c-0.8,0-1.6,0-2.4-0.2
			c-0.4-0.1-0.7,0.1-0.8,0.4c1.1,0.4,2.2,0.8,3.3,1.3c4.4-0.2,8.3-3.3,9.4-7.8C402.6,208.3,402.3,207.9,401.9,207.8z"/>
		<path fill="#449D71" d="M392.4,208.4c-0.1-0.4-0.5-0.7-0.9-0.6c-0.4,0.1-0.7,0.5-0.6,0.9c0.5,2.4-1,4.8-3.4,5.3
			c-0.2,0-0.4,0.2-0.5,0.4c0.7,0.2,1.5,0.4,2.2,0.7c0.4-0.2,0.7-0.4,1.1-0.7C392,213,392.9,210.7,392.4,208.4z"/>
	</g>
	<path fill="#449D71" d="M384.6,264.4c0.1,2.1-1.5,4-3.6,4.1s-4-1.5-4.1-3.6s1.5-4,3.6-4.1C382.6,260.6,384.4,262.2,384.6,264.4z"/>
	<circle fill="#449D71" cx="375.3" cy="265" r="3.9"/>
	
		<ellipse transform="matrix(6.870344e-02 0.9976 -0.9976 6.870344e-02 622.5438 -125.4577)" fill="#449D71" cx="378.5" cy="270.7" rx="4.8" ry="6.4"/>
	<path fill="#74C29A" d="M79.6,326.2c0,0-5.4,9.4-4.2,17.4c0,0,3-9.4,8.2-12.4L79.6,326.2z"/>
	<path fill="#74C29A" d="M75.4,344.4L75.4,344.4c-0.4,0-0.7-0.3-0.8-0.6c-1.2-8.2,4.1-17.5,4.3-17.9c0.1-0.2,0.4-0.4,0.6-0.4
		s0.5,0.1,0.7,0.3l4,5.1c0.1,0.2,0.2,0.4,0.1,0.6c0,0.2-0.2,0.4-0.4,0.5c-4.9,2.8-7.8,11.8-7.9,11.9C76,344.2,75.7,344.4,75.4,344.4
		z M79.7,327.6c-1.1,2.1-3.4,7.2-3.7,12.3c1.3-2.9,3.5-6.8,6.5-8.9L79.7,327.6z"/>
	<path fill="#74C29A" d="M145.2,145.7c-40.4,2.8-71.2,36.6-70.7,76.6h-0.1l6.4,193.6l82.6-5.7"/>
	<path fill="#74C29A" d="M81.8,367.4c0,0-6.3,11-4.9,20.3c0,0,3.5-11,9.6-14.4L81.8,367.4z"/>
	<path fill="#74C29A" d="M76.9,388.4L76.9,388.4c-0.4,0-0.7-0.3-0.8-0.6c-1.4-9.5,4.7-20.4,5-20.8c0.1-0.2,0.4-0.4,0.6-0.4
		c0.3,0,0.5,0.1,0.7,0.3l4.7,5.9c0.1,0.2,0.2,0.4,0.2,0.6s-0.2,0.4-0.4,0.5c-5.8,3.2-9.2,13.9-9.2,14
		C77.5,388.2,77.2,388.4,76.9,388.4z M81.9,368.7c-1.2,2.4-4.2,8.9-4.5,15.3c1.5-3.4,4.1-8.4,7.9-11L81.9,368.7z"/>
	<path fill="#74C29A" d="M144.3,146.1c-3-5.2-9.9-11.1-25.8-7.8c0,0,13.1,1.3,14.1,8.8c0,0-6.1-5.1-13.8-1.6c0,0,13.8,1.6,9.1,11.8
		l16.4-4.3l0.1-6.3L144.3,146.1z"/>
	<path fill="#74C29A" d="M127.8,158c-0.2,0-0.4-0.1-0.6-0.3s-0.2-0.5-0.1-0.8c1.1-2.4,1.2-4.5,0.3-6.1c-2.1-3.8-8.7-4.6-8.8-4.6
		c-0.3,0-0.6-0.3-0.7-0.6s0.1-0.7,0.4-0.8c1.9-0.9,3.9-1.3,5.8-1.3c3,0,5.4,1,7,1.8c-2.6-5.2-12.7-6.3-12.8-6.3
		c-0.4,0-0.7-0.3-0.7-0.7s0.2-0.7,0.6-0.8c3.1-0.6,6-1,8.7-1c10.5,0,15.6,5,18,9.2c0.1,0.1,0.1,0.3,0.1,0.4l-0.1,6.9
		c0,0.3-0.2,0.6-0.6,0.7L127.8,158L127.8,158z M121.6,145.3c2.4,0.7,5.6,2.1,7.1,4.8c1,1.8,1.1,3.8,0.3,6.1l14.4-3.8l0.1-6.1
		c-2.2-3.8-6.9-8.2-16.6-8.2c-1.3,0-2.7,0.1-4.1,0.2c4.1,1.1,9.8,3.5,10.4,8.7c0,0.3-0.1,0.6-0.4,0.8c-0.3,0.1-0.6,0.1-0.9-0.1
		c0,0-3.2-2.7-7.8-2.7C123.4,145,122.5,145.1,121.6,145.3z"/>
	<path fill="#74C29A" d="M78.7,207.7c0,0-9.4,16.3-7.3,30.2c0,0,5.2-16.3,14.3-21.4L78.7,207.7z"/>
	<path fill="#74C29A" d="M71.4,238.7L71.4,238.7c-0.4,0-0.7-0.3-0.8-0.6c-2.1-14,7-30,7.4-30.7c0.1-0.2,0.4-0.4,0.6-0.4
		c0.3,0,0.5,0.1,0.7,0.3l7,8.8c0.1,0.2,0.2,0.4,0.1,0.6c0,0.2-0.2,0.4-0.4,0.5c-8.7,4.9-13.9,20.9-13.9,21
		C72,238.5,71.7,238.7,71.4,238.7z M78.8,209.1c-1.8,3.4-7.2,14.7-6.9,25.3c2-4.9,6.3-14.1,12.7-18.1L78.8,209.1z"/>
	<path fill="#74C29A" d="M80.7,201.7c0,0-9.2,7.2-11.2,15.7c0,0,6.8-8.2,13.2-9.1L80.7,201.7z"/>
	<path fill="#74C29A" d="M69.4,218.2c-0.1,0-0.2,0-0.3-0.1c-0.3-0.2-0.5-0.5-0.4-0.9c2-8.6,11.1-15.9,11.5-16.2
		c0.2-0.2,0.5-0.2,0.7-0.1c0.2,0.1,0.4,0.3,0.5,0.5l2,6.7c0.1,0.2,0,0.4-0.1,0.6S83,209,82.8,209c-6.1,0.8-12.6,8.7-12.7,8.8
		C69.9,218.1,69.7,218.2,69.4,218.2z M80.3,203.1c-1.9,1.7-6.5,6-8.9,11.2c2.4-2.4,6.3-5.6,10.3-6.5L80.3,203.1z"/>
	<path fill="#74C29A" d="M79.7,317.1c0,0-4.7,4.9-5.2,9.9c0,0,3.2-5.2,6.8-6.2L79.7,317.1z"/>
	<path fill="#74C29A" d="M74.5,327.7c-0.1,0-0.2,0-0.2,0c-0.3-0.1-0.6-0.4-0.5-0.8c0.5-5.2,5.2-10.1,5.4-10.3
		c0.2-0.2,0.4-0.3,0.7-0.2c0.2,0,0.5,0.2,0.6,0.4l1.7,3.7c0.1,0.2,0.1,0.4,0,0.6s-0.3,0.4-0.5,0.4c-3.3,0.9-6.3,5.8-6.4,5.9
		C75,327.6,74.8,327.7,74.5,327.7z M79.5,318.5c-0.8,1-2.2,2.8-3.1,4.8c1.1-1.2,2.5-2.4,3.9-3L79.5,318.5z"/>
	<path fill="#97D1B4" d="M95.6,191.5c0,0-29-13.2-16.9-51.5c0,0,6.1,27,34.3,29.2L95.6,191.5z"/>
	<path fill="#97D1B4" d="M95.6,193c-0.2,0-0.4,0-0.6-0.1c-0.3-0.1-30.1-14.2-17.7-53.4c0.2-0.7,0.8-1.1,1.5-1.1s1.3,0.5,1.4,1.2
		c0.2,1.1,6.2,25.9,32.9,28c0.6,0,1.1,0.4,1.3,0.9s0.2,1.1-0.2,1.6l-17.4,22.3C96.5,192.8,96.1,193,95.6,193z M78.8,145.1
		c-7.1,29.4,11.5,41.8,16.3,44.4l14.9-19.2C90.6,167.6,82,152.9,78.8,145.1z"/>
	<path fill="#74C29A" d="M119.3,161.9c0,0-15,6.5-20.8,17.2c0,0,12.1-8.7,21.1-7.5L119.3,161.9z"/>
	<path fill="#74C29A" d="M98.5,179.9c-0.2,0-0.4-0.1-0.5-0.2c-0.3-0.2-0.3-0.6-0.2-0.9c5.8-10.9,20.5-17.3,21.2-17.6
		c0.2-0.1,0.5-0.1,0.7,0.1c0.2,0.1,0.3,0.4,0.4,0.6l0.3,9.7c0,0.2-0.1,0.4-0.3,0.6c-0.2,0.1-0.4,0.2-0.6,0.2
		c-0.5-0.1-1.1-0.1-1.7-0.1c-8.4,0-18.8,7.4-18.9,7.5C98.8,179.9,98.7,179.9,98.5,179.9z M118.6,163.1c-3.1,1.5-12.2,6.3-17.5,13.5
		c3.8-2.3,10.7-5.8,16.8-5.8c0.3,0,0.6,0,1,0L118.6,163.1z"/>
	<polygon fill="#449D71" points="172.7,387 163.1,398.3 152,388.5 149.8,302.6 163.1,301.6 	"/>
	<g>
		<polygon fill="#4FB280" points="164.3,312.3 163.1,301.6 157.7,302 150,310.7 150.5,328 		"/>
		<polygon fill="#4FB280" points="167.9,344.2 166.1,328.4 150.9,345.6 151.4,362.9 		"/>
		<polygon fill="#4FB280" points="156.6,392.6 171.4,375.8 169.6,360 151.8,380.1 152,388.5 		"/>
	</g>
	<polygon fill="#449D71" points="163.8,308.2 150,309.1 146.2,298.6 166.2,297.2 	"/>
	<path fill="#449D71" d="M150,309.9c-0.3,0-0.6-0.2-0.7-0.5l-3.8-10.5c-0.1-0.2-0.1-0.5,0.1-0.7c0.1-0.2,0.3-0.3,0.6-0.3l20.1-1.4
		c0.2,0,0.5,0.1,0.6,0.3c0.2,0.2,0.2,0.4,0.2,0.7l-2.4,10.9c-0.1,0.3-0.4,0.6-0.7,0.6L150,309.9L150,309.9z M147.2,299.3l3.3,9
		l12.7-0.9l2-9.4L147.2,299.3z"/>
	<path fill="#97D1B4" d="M477.8,329.1L477.8,329.1c-2.9-22.4-22.8-39-45.7-37.4s-40.3,20.7-40,43.3H392l2,65.5l93.6-6.4L477.8,329.1
		z"/>
	<path fill="#74C29A" d="M432.2,291.7c-22.9,1.6-40.3,20.7-40,43.3h-0.1l2,65.5l46.8-3.2"/>
	<path fill="#DEEFE6" d="M448.6,327.2c0.5,7.5-5.1,14-12.6,14.5s-14-5.1-14.5-12.6s5.1-14,12.6-14.5S448.1,319.7,448.6,327.2z"/>
	<path fill="#74C29A" d="M437,325.4c0.2,3.2-2.2,6-5.4,6.2s-6-2.2-6.2-5.4c-0.2-3.2,2.2-6,5.4-6.2S436.8,322.2,437,325.4z"/>
	<path fill="#449D71" d="M433.8,325.6c0.1,1.4-1,2.6-2.4,2.7s-2.6-1-2.7-2.4s1-2.6,2.4-2.7C432.4,323.2,433.7,324.2,433.8,325.6z"/>
	<path fill="#DEEFE6" d="M431.2,325.8l5.8,2.7c1-2,0.8-4.5-0.5-6.4L431.2,325.8z"/>
	<path fill="#74C29A" d="M432.5,287c0,0-1.3-7.7,7.5-8.6c0,0-5.3,4.6-1.8,10.7L432.5,287z"/>
	<path fill="#74C29A" d="M438.1,289.9c-0.1,0-0.2,0-0.3-0.1l-5.7-2.2c-0.3-0.1-0.4-0.3-0.5-0.6c0-0.1-0.6-3.5,1.5-6.3
		c1.4-1.8,3.6-2.9,6.6-3.2c0.4,0,0.6,0.2,0.8,0.5s0.1,0.7-0.2,0.9c-0.2,0.2-4.7,4.2-1.7,9.6c0.1,0.1,0.2,0.3,0.2,0.5
		C438.9,289.6,438.5,290,438.1,289.9L438.1,289.9z M433.2,286.5l3.5,1.3c-1.2-3.5,0.1-6.5,1.3-8.2c-1.5,0.4-2.7,1.2-3.5,2.2
		C433.2,283.5,433.1,285.6,433.2,286.5z"/>
	<path fill="#74C29A" d="M431.6,292.7c0,0,1.3-15.5-13.5-17.2c0,0,10.5,6.2,5.8,17.2H431.6z"/>
	<path fill="#74C29A" d="M431.6,293.4L431.6,293.4H424c-0.3,0-0.5-0.1-0.6-0.3s-0.2-0.5-0.1-0.7c4.4-10.2-5.1-16-5.5-16.2
		c-0.3-0.2-0.4-0.6-0.3-0.9s0.5-0.6,0.8-0.5c15.3,1.7,14.2,17.8,14.1,18C432.3,293.1,431.9,293.4,431.6,293.4z M425,291.9h5.8
		c0-2.7-0.5-12.3-9.8-15.1C423.8,279.5,427.6,284.7,425,291.9z"/>
	<polygon fill="#449D71" points="427.5,290 427.9,295.9 419.4,301.9 418.3,285.3 	"/>
	<path fill="#449D71" d="M419.4,304.2c-0.3,0-0.7-0.1-1-0.2c-0.7-0.4-1.2-1.1-1.3-1.9l-1.1-16.6c-0.1-0.8,0.3-1.6,1-2.1
		s1.6-0.5,2.3-0.1l9.3,4.8c0.7,0.4,1.2,1.1,1.2,1.9l0.4,5.9c0.1,0.8-0.3,1.6-1,2l-8.5,6C420.3,304.1,419.9,304.2,419.4,304.2z
		 M420.8,289.1l0.6,8.6l4.1-2.9l-0.2-3.3L420.8,289.1z"/>
	<polygon fill="#449D71" points="437.3,289.3 437.7,295.3 447,300 445.8,283.4 	"/>
	<path fill="#449D71" d="M447,302.3c-0.4,0-0.7-0.1-1-0.3l-9.3-4.8c-0.7-0.4-1.2-1.1-1.2-1.9l-0.4-5.9c-0.1-0.8,0.3-1.6,1-2l8.5-6
		c0.7-0.5,1.6-0.5,2.3-0.2c0.7,0.4,1.2,1.1,1.3,1.9l1.1,16.6c0.1,0.8-0.3,1.6-1,2.1C447.9,302.2,447.4,302.3,447,302.3z
		 M439.9,293.8l4.5,2.3l-0.6-8.6l-4.1,2.9L439.9,293.8z"/>
	<path fill="#449D71" d="M439.3,292.2c0.3,3.7-2.5,6.9-6.2,7.1c-3.7,0.3-6.9-2.5-7.1-6.2c-0.3-3.7,2.5-6.9,6.2-7.1
		C435.9,285.7,439.1,288.5,439.3,292.2z"/>
	<path fill="#449D71" d="M432.6,300.1c-3.9,0-7.2-3.1-7.4-6.9c-0.1-2,0.5-3.9,1.8-5.4s3.1-2.4,5.1-2.5c4.1-0.3,7.7,2.9,8,6.9
		c0.3,4.1-2.8,7.7-6.9,8C433,300.1,432.8,300.1,432.6,300.1z M432.6,286.7c-0.1,0-0.3,0-0.4,0c-1.6,0.1-3,0.8-4.1,2
		c-1,1.2-1.6,2.7-1.4,4.3c0.2,3.2,3.1,5.7,6.3,5.5c3.3-0.2,5.7-3.1,5.5-6.3C438.3,289.1,435.7,286.7,432.6,286.7z"/>
	<path fill="#449D71" d="M436.2,362.7c-7.9,0-15-5.4-17.1-13.1c-0.3-1.2,0.4-2.5,1.6-2.8s2.5,0.4,2.8,1.6c1.6,6,7.3,10.1,13.5,9.7
		c6.3-0.4,11.3-5.3,12.1-11.5c0.2-1.3,1.3-2.2,2.5-2c1.3,0.2,2.2,1.3,2,2.5c-1,8.4-7.9,14.9-16.3,15.5
		C437,362.7,436.6,362.7,436.2,362.7z"/>
	<path fill="#74C29A" d="M410.6,300.6c0,0-11,5.2-15,13.4c0,0,8.8-6.8,15.5-6.2L410.6,300.6z"/>
	<path fill="#74C29A" d="M395.6,314.7c-0.2,0-0.3-0.1-0.5-0.2c-0.3-0.2-0.4-0.6-0.2-0.9c4.1-8.3,14.9-13.5,15.4-13.8
		c0.2-0.1,0.5-0.1,0.7,0s0.4,0.4,0.4,0.6l0.5,7.2c0,0.2-0.1,0.4-0.2,0.6c-0.2,0.2-0.4,0.2-0.6,0.2c-6.4-0.6-14.9,5.9-15,6
		C395.9,314.7,395.8,314.7,395.6,314.7z M410,301.8c-2.3,1.3-8.1,4.7-11.8,9.5c3-1.9,7.7-4.3,12-4.3h0.1L410,301.8z"/>
	<path fill="#74C29A" d="M394.5,350.8c0,0-4.3,9.1-2.9,16.7c0,0,2.2-9.1,6.7-12L394.5,350.8z"/>
	<path fill="#74C29A" d="M391.6,368.3L391.6,368.3c-0.4,0-0.7-0.3-0.8-0.6c-1.5-7.7,2.8-16.8,3-17.2c0.1-0.2,0.3-0.4,0.6-0.4
		s0.5,0.1,0.7,0.3l3.8,4.7c0.1,0.2,0.2,0.4,0.2,0.6s-0.2,0.4-0.3,0.5c-4.2,2.8-6.3,11.5-6.3,11.6C392.2,368,391.9,368.3,391.6,368.3
		z M394.7,352.3c-0.8,2.1-2.4,6.6-2.6,11.2c1-2.7,2.7-6.1,5.1-8.1L394.7,352.3z"/>
	<path fill="#74C29A" d="M394,335.1c0,0-4.9,8.2-4,15.6c0,0,2.8-8.4,7.3-10.6L394,335.1z"/>
	<path fill="#74C29A" d="M390.1,351.4L390.1,351.4c-0.4,0-0.7-0.3-0.8-0.7c-0.9-7.6,3.9-15.7,4.1-16c0.1-0.2,0.4-0.4,0.6-0.4
		c0.3,0,0.5,0.1,0.7,0.3l3.4,4.9c0.1,0.2,0.2,0.4,0.1,0.6s-0.2,0.4-0.4,0.5c-4.2,2.1-6.9,10.1-7,10.2
		C390.7,351.2,390.4,351.4,390.1,351.4z M394.1,336.5c-1,1.9-2.8,5.9-3.3,10.3c1.2-2.4,3-5.5,5.5-7.1L394.1,336.5z"/>
	<path fill="#74C29A" d="M398.3,327.8c0,0-6.5,4-8.6,9.5c0,0,5-4.9,9.1-4.8L398.3,327.8z"/>
	<path fill="#74C29A" d="M389.7,338.1c-0.1,0-0.3,0-0.4-0.1c-0.3-0.2-0.4-0.6-0.3-0.9c2.2-5.7,8.6-9.8,8.9-9.9
		c0.2-0.1,0.5-0.2,0.7,0c0.2,0.1,0.4,0.3,0.4,0.6l0.6,4.7c0,0.2,0,0.4-0.2,0.6c-0.1,0.2-0.3,0.3-0.6,0.3l0,0c-3.8,0-8.5,4.6-8.6,4.6
		C390.1,338,389.9,338.1,389.7,338.1z M397.7,329.1c-1.3,0.9-3.6,2.8-5.3,5.1c1.6-1.1,3.7-2.2,5.7-2.5L397.7,329.1z"/>
	<path fill="#97D1B4" d="M458.8,302.7c0,0,15,8.1,20,19.8c0,0-11.8-10.1-21.2-9.7L458.8,302.7z"/>
	<path fill="#97D1B4" d="M478.8,323.2c-0.2,0-0.4-0.1-0.5-0.2s-11.6-9.9-20.7-9.5c-0.2,0-0.4-0.1-0.6-0.2c-0.2-0.2-0.2-0.4-0.2-0.6
		l1.2-10.1c0-0.3,0.2-0.5,0.4-0.6s0.5-0.1,0.7,0c0.6,0.3,15.3,8.4,20.4,20.2c0.1,0.3,0,0.7-0.3,0.9
		C479.2,323.2,479,323.2,478.8,323.2z M458.5,312c6.7,0.1,14.2,4.9,18.1,7.7c-4.9-8.1-14.1-14-17.1-15.8L458.5,312z"/>
	<path fill="#97D1B4" d="M450.3,297.2c0,0,12.2,1.1,18.7,7.4c0,0-10.6-3.3-16.7-0.4L450.3,297.2z"/>
	<path fill="#97D1B4" d="M469,305.4c-0.1,0-0.2,0-0.2,0c-0.1,0-5.1-1.6-10.1-1.6c-2.5,0-4.5,0.4-6.1,1.1c-0.2,0.1-0.4,0.1-0.6,0
		s-0.4-0.3-0.4-0.5l-2.1-7c-0.1-0.2,0-0.5,0.1-0.7c0.2-0.2,0.4-0.3,0.7-0.3c0.5,0,12.5,1.2,19.2,7.6c0.3,0.2,0.3,0.6,0.1,0.9
		C469.5,305.2,469.3,305.4,469,305.4z M451.4,298.1l1.5,5c1.6-0.6,3.6-0.9,5.9-0.9c2.5,0,5,0.4,7,0.8
		C460.6,299.7,454,298.5,451.4,298.1z"/>
	<path fill="#97D1B4" d="M478.3,342c0,0,6.1,8,6.3,15.7c0,0-4-8.4-9-10.4L478.3,342z"/>
	<path fill="#97D1B4" d="M484.6,358.5L484.6,358.5c-0.3,0-0.6-0.2-0.7-0.4c0-0.1-4-8.2-8.6-10c-0.2-0.1-0.4-0.2-0.4-0.4
		c-0.1-0.2-0.1-0.4,0-0.6l2.7-5.4c0.1-0.2,0.3-0.4,0.6-0.4s0.5,0.1,0.7,0.3c0.3,0.3,6.2,8.2,6.5,16c0,0.1,0,0.2,0,0.2
		C485.4,358.1,485.1,358.5,484.6,358.5z M476.6,347c2.7,1.4,5.1,4.4,6.7,6.9c-1.1-4.5-3.6-8.5-4.9-10.4L476.6,347z"/>
	<path fill="#97D1B4" d="M474.7,320.9c0,0,5.9,7.4,6.1,14.9c0,0-3.9-7.9-8.7-9.5L474.7,320.9z"/>
	<path fill="#97D1B4" d="M480.8,336.5L480.8,336.5c-0.3,0-0.6-0.2-0.7-0.4c0-0.1-3.8-7.6-8.3-9.2c-0.2-0.1-0.4-0.2-0.5-0.4
		c-0.1-0.2-0.1-0.4,0-0.6l2.7-5.3c0.1-0.2,0.3-0.4,0.6-0.4s0.5,0.1,0.7,0.3c0.2,0.3,6,7.6,6.2,15.1c0,0.1,0,0.2,0,0.2
		C481.5,336.2,481.2,336.5,480.8,336.5z M473.1,325.8c2.6,1.2,4.9,4,6.4,6.2c-1.1-4.2-3.5-8-4.7-9.7L473.1,325.8z"/>
	
		<rect x="246.2" y="286.6" transform="matrix(-0.9976 6.860957e-02 -6.860957e-02 -0.9976 568.718 630.0405)" fill="#97D1B4" width="54.7" height="76.4"/>
	<path fill="#97D1B4" d="M161.5,399l111.7-67.1L394.8,383C394.8,383,334.5,390.8,161.5,399z"/>
	<path fill="#74C29A" d="M310,346.7l86,36.1c0,0-60.3,7.9-233.3,16.1l78.3-47l0.1,0.3c3.6,16.6,19,28.5,36.5,27.3
		c17.6-1.2,31.3-15.3,32.4-32.5V346.7z"/>
	<path fill="#74C29A" d="M300.3,393.1c-40.1,2.8-86.4,5.4-137.4,7.8c-0.9,0-1.8-0.6-2.1-1.5s0.1-1.9,0.9-2.4l78.3-47
		c0.6-0.3,1.3-0.4,1.9-0.1s1.1,0.8,1.2,1.5l0.1,0.3c3.4,15.7,18.2,26.7,34.3,25.6c16.3-1.1,29.4-14.2,30.5-30.5v-0.2
		c0-0.7,0.3-1.3,0.9-1.7c0.6-0.4,1.3-0.5,1.9-0.2l86,36.1c0.9,0.4,1.4,1.3,1.2,2.2c-0.1,0.9-0.9,1.6-1.8,1.8
		C396,384.9,368.6,388.4,300.3,393.1z"/>
	<g>
		<path fill="#74C29A" d="M241.1,352.1l-0.1-0.3l-6.8,4.1l7.7-0.5C241.6,354.3,241.3,353.2,241.1,352.1z"/>
		<path fill="#74C29A" d="M310,346.7v0.3c-0.1,1.3-0.3,2.6-0.5,3.8l8.7-0.6L310,346.7z"/>
		<path fill="#449D71" d="M318.2,350.2l-8.7,0.6c-0.6,3.3-1.6,6.4-3.1,9.4l30.5-2.1L318.2,350.2z"/>
		<path fill="#449D71" d="M242,355.4l-7.7,0.5l-17.2,10.3l29.3-2C244.5,361.6,243,358.6,242,355.4z"/>
		<path fill="#74C29A" d="M254.7,372.8c-3.2-2.4-6.1-5.3-8.3-8.6l-29.3,2l-17.2,10.3L254.7,372.8z"/>
		<path fill="#74C29A" d="M337,358l-30.5,2.1c-1.8,3.6-4.2,6.9-7.1,9.6l56.3-3.9L337,358z"/>
		<path fill="#449D71" d="M182.7,386.9l191.7-13.2l-18.7-7.9l-56.3,3.9c-5.7,5.5-13.3,9.1-21.8,9.7s-16.5-1.9-22.9-6.6l-54.8,3.8
			L182.7,386.9z"/>
		<polygon fill="#74C29A" points="393.1,381.6 374.4,373.7 182.7,386.9 165.5,397.2 		"/>
		<path fill="#449D71" d="M393.1,381.6l-227.6,15.7l-2.7,1.6c173-8.2,233.3-16.1,233.3-16.1L393.1,381.6z"/>
	</g>
	<path fill="#BAE0CC" d="M213,272.1c0.5,7.7-3.5,14.3-9.1,14.7c-5.6,0.4-10.5-5.6-11.1-13.3c-0.5-7.7,3.5-14.3,9.1-14.7
		S212.5,264.4,213,272.1z"/>
	<path fill="#DEEFE6" d="M345.1,263.1c0.5,7.7-3.5,14.3-9.1,14.7c-5.6,0.4-10.5-5.6-11-13.3c-0.5-7.7,3.6-14.3,9.1-14.7
		C339.6,249.3,344.5,255.3,345.1,263.1z"/>
	<path fill="#DEEFE6" d="M335.4,258.5c2.9,42.9-24.4,79.7-61.1,82.2s-68.8-30.2-71.7-73.1s24.4-79.7,61.1-82.2
		C300.3,182.9,332.4,215.6,335.4,258.5z"/>
	<path fill="#BAE0CC" d="M274.3,340.7c-36.7,2.5-68.8-30.2-71.7-73.1s24.4-79.7,61.1-82.2"/>
	<path fill="#FFFFFE" d="M315.9,264.3c0.6,9.2-6.3,17.2-15.5,17.8c-9.2,0.6-17.2-6.3-17.8-15.5c-0.6-9.2,6.3-17.2,15.5-17.8
		C307.3,248.2,315.3,255.1,315.9,264.3z"/>
	<circle fill="#449D71" cx="299.3" cy="265.5" r="3.1"/>
	<path fill="#FFFFFE" d="M256.5,268.4c0.6,9.2-6.3,17.2-15.5,17.8c-9.2,0.6-17.2-6.3-17.8-15.5s6.3-17.2,15.5-17.8
		C247.9,252.3,255.9,259.2,256.5,268.4z"/>
	<path fill="#449D71" d="M243,269.4c0.1,1.7-1.2,3.2-2.9,3.3c-1.7,0.1-3.2-1.2-3.3-2.9c-0.1-1.7,1.2-3.2,2.9-3.3
		C241.4,266.4,242.9,267.6,243,269.4z"/>
	<polygon fill="#97D1B4" points="277.6,289.3 268.5,256.1 264,290.3 	"/>
	<path fill="#97D1B4" d="M264.1,291.6c-0.4,0-0.8-0.1-1.1-0.4c-0.3-0.3-0.4-0.7-0.4-1.1l4.5-34.1c0.1-0.6,0.6-1.1,1.3-1.2
		c0.7,0,1.2,0.4,1.4,1l9.1,33.2c0.1,0.4,0,0.8-0.2,1.2c-0.2,0.3-0.6,0.5-1,0.6L264.1,291.6L264.1,291.6z M269,263.1l-3.4,25.7
		l10.2-0.7L269,263.1z"/>
	<circle fill="#BAE0CC" cx="297.5" cy="285.2" r="2.5"/>
	<path fill="#BAE0CC" d="M311.7,290.8c0.1,1.4-0.9,2.5-2.3,2.6s-2.6-0.9-2.6-2.3c-0.1-1.4,0.9-2.5,2.3-2.6
		C310.4,288.4,311.6,289.4,311.7,290.8z"/>
	<circle fill="#BAE0CC" cx="318.4" cy="281.3" r="2.5"/>
	<path fill="#4FB280" d="M335.3,274.6c-0.3,0-0.5-0.1-0.7-0.4c-0.1-0.3-13.9-29-21.1-60.4c-3.5,5.6-18.1,25-53.8,30.4
		c-0.3,0-0.6-0.1-0.7-0.4s0-0.6,0.2-0.8c0.1-0.1,8.5-6.6,16.9-19.8c-7,5.2-25,17.9-39.1,22.5c-0.2,0.1-0.4,0-0.5-0.1
		c-0.2-0.1-0.3-0.3-0.3-0.4s-1.2-4.8-2.2-11.7c-5.6,11.2-23.9,46.6-28.2,46.9c-0.3,0-0.6-0.2-0.7-0.5c-0.1-0.4-12.8-41.1,5.9-71.1
		c10.5-16.8,28.7-27.2,54.1-31l0,0c0.6,0,32.7-1.9,53.8,20.5c15.7,16.6,21.5,42.1,17.2,75.6C335.9,274.3,335.7,274.5,335.3,274.6
		L335.3,274.6z"/>
	<g>
		<path fill="#449D71" d="M267.1,235.2c-4.5,5.1-7.8,7.7-7.9,7.8c-0.2,0.2-0.3,0.5-0.2,0.8c0.1,0.3,0.4,0.5,0.7,0.4
			c2.8-0.4,5.4-0.9,7.9-1.5L267.1,235.2z"/>
		<path fill="#449D71" d="M205.7,280.4c4.3-0.3,22.5-35.7,28.2-46.9c1.1,6.9,2.2,11.6,2.2,11.7c0,0.2,0.2,0.3,0.3,0.4
			c0.2,0.1,0.4,0.1,0.5,0.1c9.7-3.1,21.2-10.1,29.7-15.9l-3.6-51.7c-24.5,4-42,14.3-52.3,30.7c-18.7,30.1-6,70.7-5.9,71.1
			C205.1,280.2,205.4,280.4,205.7,280.4z"/>
	</g>
	<path fill="#74C29A" d="M268.2,322.4c-0.9,0.1-1.8-0.5-2.1-1.5c-0.3-1.1,0.3-2.2,1.4-2.6l8.8-2.6c1.1-0.3,2.2,0.3,2.6,1.4
		c0.3,1.1-0.3,2.2-1.4,2.6l-8.8,2.6C268.5,322.3,268.3,322.4,268.2,322.4z"/>
	<circle fill="#97D1B4" cx="243.7" cy="288.9" r="2.5"/>
	<path fill="#97D1B4" d="M230.4,296.4c0.1,1.4,1.3,2.4,2.6,2.3c1.4-0.1,2.4-1.3,2.3-2.6c-0.1-1.4-1.3-2.4-2.6-2.3
		S230.3,295,230.4,296.4z"/>
	<path fill="#97D1B4" d="M220,288c0.1,1.4,1.3,2.4,2.6,2.3c1.4-0.1,2.4-1.3,2.3-2.6c-0.1-1.4-1.3-2.4-2.6-2.3S219.9,286.7,220,288z"
		/>
	<path fill="#3E9168" d="M53.7,413.5l-21-305.2l453.7-31.2l21,305.2L53.7,413.5z M44.1,118.3l19.5,283.9L496,372.4L476.5,88.5
		L44.1,118.3z"/>
	<polygon fill="#4FB280" points="36.1,80 60.9,441 27.6,443.2 2.8,82.3 	"/>
	<polygon fill="#4FB280" points="512.6,47.2 537.5,408.2 504.2,410.4 479.4,49.5 	"/>
	<polygon fill="#74C29A" points="482,82.8 39.2,113.2 3.4,82.3 513.3,47.2 	"/>
	<polygon fill="#449D71" points="58.9,407.8 501.7,377.3 537.5,408.3 27.7,443.4 	"/>
	<circle fill="#3E9168" cx="265.9" cy="8.2" r="8.2"/>
	<circle fill="#DEEFE6" cx="150.7" cy="225.1" r="21.4"/>
	<circle fill="#74C29A" cx="155.6" cy="229.7" r="9.2"/>
	<circle fill="#449D71" cx="155.6" cy="229.7" r="4"/>
	<path fill="#DEEFE6" d="M155.6,229.7l9.1,4.3c1.5-3.2,1.2-7.1-0.8-10L155.6,229.7z"/>
	<path fill="#449D71" d="M151.9,276.6c-12.2,0-23.5-5.8-30.6-15.9c-1-1.4-0.6-3.3,0.7-4.3c1.4-1,3.3-0.6,4.3,0.7
		c6.4,9,16.8,14,27.8,13.2s20.7-7.1,25.8-16.9c0.8-1.5,2.6-2.1,4.1-1.3s2.1,2.6,1.3,4.1c-6.1,11.7-17.6,19.3-30.8,20.2
		C153.6,276.6,152.7,276.6,151.9,276.6z"/>
	<path fill="#BAE0CC" d="M200.6,184.2c0,0,26.9-17,9.7-53.4c0,0-2.3,27.6-30,33.6L200.6,184.2z"/>
	<path fill="#BAE0CC" d="M200.6,185.8c-0.4,0-0.8-0.1-1.1-0.4l-20.3-19.7c-0.4-0.4-0.6-1-0.4-1.5s0.6-1,1.1-1.1
		c26.3-5.8,28.8-32,28.8-32.3c0.1-0.7,0.6-1.3,1.2-1.4c0.7-0.1,1.4,0.2,1.7,0.8c17.6,37.2-10,55.1-10.3,55.3
		C201.1,185.7,200.8,185.8,200.6,185.8z M183.3,165.3l17.4,16.9c4.4-3.3,21.1-18,10.1-46.2C208.7,144.2,202.3,159.9,183.3,165.3z"/>
	<path fill="#97D1B4" d="M332.2,176.4c0,0-20.2-9.2-11.8-36c0,0,4.2,18.9,24,20.4L332.2,176.4z"/>
	<path fill="#97D1B4" d="M332.2,177.9c-0.2,0-0.4,0-0.6-0.1s-21.4-10.1-12.6-37.9c0.2-0.7,0.8-1.1,1.5-1.1s1.3,0.5,1.4,1.2
		c0.2,0.7,4.3,17.8,22.6,19.2c0.6,0,1,0.4,1.3,0.9c0.2,0.5,0.2,1.1-0.2,1.6l-12.2,15.6C333.1,177.7,332.7,177.9,332.2,177.9z
		 M320.7,145.5c-3.8,18.7,7.5,26.9,11.2,29l9.7-12.5C329.2,159.9,323.2,151.1,320.7,145.5z"/>
	<path fill="#BAE0CC" d="M408.6,171.1c0,0,18.8-11.9,6.8-37.3c0,0-1.6,19.3-21,23.5L408.6,171.1z"/>
	<path fill="#BAE0CC" d="M408.6,172.7c-0.4,0-0.8-0.1-1.1-0.4l-14.2-13.8c-0.4-0.4-0.6-1-0.4-1.5s0.6-1,1.1-1.1
		c18-3.9,19.7-21.4,19.8-22.2c0.1-0.7,0.6-1.2,1.3-1.4c0.7-0.1,1.4,0.2,1.7,0.8c12.5,26.3-7.1,39.1-7.3,39.2
		C409.2,172.6,408.9,172.7,408.6,172.7z M397.4,158.1l11.3,11c3.3-2.6,13.4-12.3,7.1-30.2C414.1,144.8,409.4,154.4,397.4,158.1z"/>
	<path fill="#97D1B4" d="M175.6,161.5c0,0,17.8,6.1,25.4,18c0,0-14.6-8.9-24.8-6.8L175.6,161.5z"/>
	<path fill="#97D1B4" d="M201,180.3c-0.1,0-0.3,0-0.4-0.1s-11.6-7-21-7c-1.2,0-2.3,0.1-3.3,0.3c-0.2,0-0.4,0-0.6-0.1
		s-0.3-0.3-0.3-0.6l-0.5-11.2c0-0.3,0.1-0.5,0.3-0.6c0.2-0.2,0.5-0.2,0.7-0.1c0.7,0.3,18.2,6.3,25.8,18.3c0.2,0.3,0.1,0.7-0.1,0.9
		C201.4,180.2,201.2,180.3,201,180.3z M179.6,171.6c6.9,0,14.6,3.4,18.8,5.5c-6.8-8.2-18.4-13.1-21.9-14.5l0.4,9.2
		C177.7,171.7,178.6,171.6,179.6,171.6z"/>
	<path fill="#97D1B4" d="M178.1,157c0,0,13.2,2.7,19.6,10.4c0,0-11.2-5-18.2-2.5L178.1,157z"/>
	<path fill="#97D1B4" d="M197.7,168.2c-0.1,0-0.2,0-0.3-0.1c-0.1,0-7.1-3.1-13.4-3.1c-1.6,0-3.1,0.2-4.3,0.6
		c-0.2,0.1-0.4,0.1-0.6-0.1c-0.2-0.1-0.3-0.3-0.4-0.5l-1.4-7.9c0-0.2,0-0.5,0.2-0.7s0.4-0.2,0.7-0.2c0.5,0.1,13.5,2.8,20.1,10.7
		c0.2,0.3,0.2,0.7,0,0.9C198.2,168.1,198,168.2,197.7,168.2z M184.1,163.5c3.8,0,7.9,1.1,10.6,2c-5.3-4.5-12.8-6.7-15.6-7.4l1,5.9
		C181.3,163.6,182.6,163.5,184.1,163.5z"/>
	<path fill="#97D1B4" d="M163.7,149.1c0,0,13.1-3.1,22.2,1.2c0,0-12.2,0.2-17.6,5.4L163.7,149.1z"/>
	<path fill="#97D1B4" d="M168.2,156.4L168.2,156.4c-0.3,0-0.5-0.1-0.6-0.3l-4.6-6.6c-0.1-0.2-0.2-0.5-0.1-0.7s0.3-0.4,0.5-0.5
		c0.2,0,4.7-1.1,10.3-1.1c4.9,0,9,0.8,12.3,2.4c0.3,0.2,0.5,0.5,0.4,0.9c-0.1,0.3-0.4,0.6-0.7,0.6c-0.1,0-12,0.2-17.1,5.1
		C168.6,156.3,168.4,156.4,168.2,156.4z M165,149.6l3.4,4.9c3.8-3.1,10-4.3,13.9-4.7c-2.4-0.7-5.3-1-8.4-1
		C170,148.8,166.6,149.3,165,149.6z"/>
	<path fill="#97D1B4" d="M386.5,159c0,0,10.8,4.5,19.2,2.2c0,0-9.1-1.8-14.3-6.4L386.5,159z"/>
	<path fill="#97D1B4" d="M400.2,162.6c-7.1,0-13.8-2.8-14.1-2.9c-0.2-0.1-0.4-0.3-0.5-0.6c0-0.3,0.1-0.5,0.3-0.7l4.9-4.2
		c0.3-0.2,0.7-0.2,1,0c5,4.4,13.8,6.2,13.9,6.2c0.3,0.1,0.6,0.4,0.6,0.7c0,0.4-0.2,0.7-0.6,0.8C404.2,162.4,402.3,162.6,400.2,162.6
		z M387.9,158.7c2.2,0.8,7.2,2.3,12.3,2.3c0.6,0,1.2,0,1.8-0.1c-3-0.9-7.4-2.6-10.7-5.2L387.9,158.7z"/>
	<path fill="#74C29A" d="M357.4,160.4c0,0-10.9,4.4-19.2,1.9c0,0,9.1-1.6,14.4-6.2L357.4,160.4z"/>
	<path fill="#74C29A" d="M343.9,163.8c-2.2,0-4.2-0.3-6-0.8c-0.3-0.1-0.6-0.4-0.5-0.8c0-0.4,0.3-0.6,0.6-0.7c0.1,0,9-1.7,14-6
		c0.3-0.2,0.7-0.2,1,0l4.9,4.3c0.2,0.2,0.3,0.4,0.2,0.7c0,0.3-0.2,0.5-0.5,0.6C357.4,161.2,350.9,163.8,343.9,163.8z M341.8,162.2
		c0.7,0.1,1.4,0.1,2.2,0.1c4.9,0,9.8-1.4,12-2.2l-3.4-3C349.2,159.7,344.8,161.3,341.8,162.2z"/>
	<path fill="#74C29A" d="M328.6,178.6c0,0-10.4,5.4-19,3.6c0,0,8.9-2.5,13.7-7.5L328.6,178.6z"/>
	<path fill="#74C29A" d="M313.3,183.4c-1.3,0-2.6-0.1-3.8-0.4c-0.3-0.1-0.6-0.4-0.6-0.7c0-0.4,0.2-0.7,0.6-0.8
		c0.1,0,8.8-2.5,13.4-7.3c0.3-0.3,0.7-0.3,1-0.1l5.2,3.8c0.2,0.2,0.3,0.4,0.3,0.7s-0.2,0.5-0.4,0.6
		C328.7,179.5,321,183.4,313.3,183.4z M313.3,181.9L313.3,181.9c5.7,0,11.5-2.3,13.9-3.4l-3.7-2.7
		C320.4,178.7,316.2,180.7,313.3,181.9z"/>
	<path fill="#74C29A" d="M348.4,170.4c0,0-10.9,4.4-19.2,1.9c0,0,9.1-1.6,14.4-6.2L348.4,170.4z"/>
	<path fill="#74C29A" d="M335,173.9c-2.2,0-4.2-0.3-6-0.8c-0.3-0.1-0.6-0.4-0.5-0.8c0-0.4,0.3-0.6,0.6-0.7c0.1,0,9-1.7,14-6
		c0.3-0.2,0.7-0.2,1,0l4.9,4.3c0.2,0.2,0.3,0.4,0.2,0.7c0,0.3-0.2,0.5-0.5,0.6C348.4,171.3,341.9,173.9,335,173.9z M332.8,172.2
		c0.7,0.1,1.4,0.1,2.2,0.1c4.9,0,9.8-1.4,12-2.2l-3.4-3C340.2,169.8,335.8,171.4,332.8,172.2z"/>
</g>
</svg>
