<?xml version="1.0" encoding="utf-8"?>
<!-- Generator: Adobe Illustrator 17.1.0, SVG Export Plug-In . SVG Version: 6.00 Build 0)  -->
<!DOCTYPE svg PUBLIC "-//W3C//DTD SVG 1.1//EN" "http://www.w3.org/Graphics/SVG/1.1/DTD/svg11.dtd">
<svg version="1.1" id="Layer_1" xmlns="http://www.w3.org/2000/svg" xmlns:xlink="http://www.w3.org/1999/xlink" x="0px" y="0px"
	 width="188.3px" height="170.5px" viewBox="0 0 188.3 170.5" enable-background="new 0 0 188.3 170.5" xml:space="preserve">
<g>
	<circle fill="#FFFFFE" cx="94.6" cy="85.2" r="85.2"/>
	
		<polygon fill="#BAE0CC" stroke="#BAE0CC" stroke-width="1.3538" stroke-linecap="round" stroke-linejoin="round" stroke-miterlimit="10" points="
		55.1,136.7 14.3,136.7 5.4,53.4 64.1,53.4 	"/>
	
		<polygon fill="#4FB280" stroke="#4FB280" stroke-width="1.3538" stroke-linecap="round" stroke-linejoin="round" stroke-miterlimit="10" points="
		62.8,73.2 6.6,73.2 10.9,112.6 58.6,112.6 	"/>
	
		<rect x="5.4" y="38.5" fill="#BAE0CC" stroke="#BAE0CC" stroke-width="1.3538" stroke-linecap="round" stroke-linejoin="round" stroke-miterlimit="10" width="58.7" height="7.5"/>
	<path fill="#74C29A" d="M65,53.4L4.4,53.2l1.3,10.5c0,0,21.9-7.7,58.9-7.7L65,53.4z"/>
	
		<rect x="0.9" y="45.9" fill="#BAE0CC" stroke="#BAE0CC" stroke-width="1.3538" stroke-linecap="round" stroke-linejoin="round" stroke-miterlimit="10" width="67.7" height="7.5"/>
	
		<path fill="#74C29A" stroke="#74C29A" stroke-width="1.3538" stroke-linecap="round" stroke-linejoin="round" stroke-miterlimit="10" d="
		M177.6,88.2h-1.7h-8.2v21.5h8.2h1.7c5.9,0,10.8-4.8,10.8-10.8C188.3,93,183.5,88.2,177.6,88.2z M177.6,105.4
		c-3.6,0-6.4-2.9-6.4-6.4s2.9-6.4,6.4-6.4c3.6,0,6.4,2.9,6.4,6.4C184,102.5,181.1,105.4,177.6,105.4z"/>
	
		<path fill="#74C29A" stroke="#74C29A" stroke-width="1.3538" stroke-linecap="round" stroke-linejoin="round" stroke-miterlimit="10" d="
		M148.4,129.6h-26.7h-3.8c-7.9,0-14.3-6.4-14.3-14.3v-0.9V81.6h66v30.3v3.3c0,7.9-6.4,14.3-14.3,14.3H148.4z"/>
	<g>
		<g>
			
				<path fill="#BAE0CC" stroke="#BAE0CC" stroke-width="1.3538" stroke-linecap="round" stroke-linejoin="round" stroke-miterlimit="10" d="
				M184.7,58.4c1.9,0,3.4-1.5,3.4-3.4s-1.5-3.4-3.4-3.4h-78.6c-1.9,0-3.4,1.5-3.4,3.4s1.5,3.4,3.4,3.4H184.7z"/>
			
				<path fill="#BAE0CC" stroke="#BAE0CC" stroke-width="1.3538" stroke-linecap="round" stroke-linejoin="round" stroke-miterlimit="10" d="
				M172.9,44.8c1.9,0,3.4-1.5,3.4-3.4c0-1.9-1.5-3.4-3.4-3.4h-38.1c-1.9,0-3.4,1.5-3.4,3.4c0,1.9,1.5,3.4,3.4,3.4H172.9z"/>
			
				<path fill="#BAE0CC" stroke="#BAE0CC" stroke-width="1.3538" stroke-linecap="round" stroke-linejoin="round" stroke-miterlimit="10" d="
				M157.5,51.6c-1.9,0-3.4-1.5-3.4-3.4c0-1.9,1.5-3.4,3.4-3.4h-13.9c1.9,0,3.4,1.5,3.4,3.4c0,1.9-1.5,3.4-3.4,3.4H157.5z"/>
			
				<path fill="#BAE0CC" stroke="#BAE0CC" stroke-width="1.3538" stroke-linecap="round" stroke-linejoin="round" stroke-miterlimit="10" d="
				M140.1,65.1c-1.9,0-3.4-1.5-3.4-3.4c0-1.9,1.5-3.4,3.4-3.4h-13.9c1.9,0,3.4,1.5,3.4,3.4c0,1.9-1.5,3.4-3.4,3.4H140.1z"/>
			
				<path fill="#BAE0CC" stroke="#BAE0CC" stroke-width="1.3538" stroke-linecap="round" stroke-linejoin="round" stroke-miterlimit="10" d="
				M154.2,75.3c0-1.9,1.5-3.4,3.4-3.4h-13.9c1.9,0,3.4,1.5,3.4,3.4"/>
			
				<path fill="#BAE0CC" stroke="#BAE0CC" stroke-width="1.3538" stroke-linecap="round" stroke-linejoin="round" stroke-miterlimit="10" d="
				M162.6,71.9c1.9,0,3.4-1.5,3.4-3.4c0-1.9-1.5-3.4-3.4-3.4H121c-1.9,0-3.4,1.5-3.4,3.4c0,1.9,1.5,3.4,3.4,3.4H162.6z"/>
		</g>
		
			<circle fill="#BAE0CC" stroke="#BAE0CC" stroke-width="1.3538" stroke-linecap="round" stroke-linejoin="round" stroke-miterlimit="10" cx="150.7" cy="75.3" r="3.5"/>
	</g>
	<path fill="#449D71" d="M133,129.1c-11.3,0-24.5-5.5-30-24.6v9.5v1c0,8.7,7.1,15.8,15.8,15.8h4.2h11.5L133,129.1z"/>
	
		<path fill="#4FB280" stroke="#4FB280" stroke-width="1.3538" stroke-linecap="round" stroke-linejoin="round" stroke-miterlimit="10" d="
		M170.2,136.4h-66.7l-4,0c-3.6,0-6.5-2.9-6.5-6.5l0.6,0h85.9l1,0c0,3.6-2.9,6.5-6.5,6.5L170.2,136.4z"/>
	<text transform="matrix(1 0 0 1 72.4411 100.8284)" fill="#449D71" font-family="'BebasNeue'" font-size="20.3139">v</text>
	<text transform="matrix(1 0 0 1 81.1354 100.8284)" fill="#449D71" font-family="'BebasNeue'" font-size="20.3139">s</text>
	<text transform="matrix(1 0 0 1 89.1471 100.8284)" fill="#449D71" font-family="'BebasNeue'" font-size="20.3139">.</text>
	
		<polygon fill="#449D71" stroke="#449D71" stroke-width="1.3538" stroke-linecap="round" stroke-linejoin="round" stroke-miterlimit="10" points="
		132.3,110.8 122,110.8 119,107.8 119,97.2 122,94.2 132.3,94.2 135.4,97.2 135.4,107.8 	"/>
	
		<line fill="none" stroke="#449D71" stroke-width="1.3538" stroke-linecap="round" stroke-linejoin="round" stroke-miterlimit="10" x1="127.2" y1="101.6" x2="127.2" y2="80.7"/>
	
		<circle fill="none" stroke="#DEEFE6" stroke-width="1.3538" stroke-linecap="round" stroke-linejoin="round" stroke-miterlimit="10" cx="34.7" cy="92.9" r="12.8"/>
	
		<polygon fill="#DEEFE6" stroke="#DEEFE6" stroke-width="1.3538" stroke-linecap="round" stroke-linejoin="round" stroke-miterlimit="10" points="
		34.7,86.4 36.3,91.4 41.5,91.4 37.3,94.4 38.9,99.4 34.7,96.3 30.5,99.4 32.1,94.4 27.9,91.4 33.1,91.4 	"/>
</g>
</svg>
